<?xml version="1.0" encoding="utf-8" standalone="no"?>
<!DOCTYPE svg PUBLIC "-//W3C//DTD SVG 1.1//EN"
  "http://www.w3.org/Graphics/SVG/1.1/DTD/svg11.dtd">
<!-- Created with matplotlib (https://matplotlib.org/) -->
<svg height="432pt" version="1.1" viewBox="0 0 720 432" width="720pt" xmlns="http://www.w3.org/2000/svg" xmlns:xlink="http://www.w3.org/1999/xlink">
 <metadata>
  <rdf:RDF xmlns:cc="http://creativecommons.org/ns#" xmlns:dc="http://purl.org/dc/elements/1.1/" xmlns:rdf="http://www.w3.org/1999/02/22-rdf-syntax-ns#">
   <cc:Work>
    <dc:type rdf:resource="http://purl.org/dc/dcmitype/StillImage"/>
    <dc:date>2021-11-29T12:48:12.313252</dc:date>
    <dc:format>image/svg+xml</dc:format>
    <dc:creator>
     <cc:Agent>
      <dc:title>Matplotlib v3.3.4, https://matplotlib.org/</dc:title>
     </cc:Agent>
    </dc:creator>
   </cc:Work>
  </rdf:RDF>
 </metadata>
 <defs>
  <style type="text/css">*{stroke-linecap:butt;stroke-linejoin:round;}</style>
 </defs>
 <g id="figure_1">
  <g id="patch_1">
   <path d="M 0 432 
L 720 432 
L 720 0 
L 0 0 
z
" style="fill:none;"/>
  </g>
  <g id="axes_1">
   <g id="patch_2">
    <path d="M 90 378 
L 648 378 
L 648 51.84 
L 90 51.84 
z
" style="fill:#ffffff;"/>
   </g>
   <g id="patch_3">
    <path clip-path="url(#p2c6ddc17db)" d="M 115.363636 378 
L 125.375598 378 
L 125.375598 197.835429 
L 115.363636 197.835429 
z
" style="fill:#1f77b4;"/>
   </g>
   <g id="patch_4">
    <path clip-path="url(#p2c6ddc17db)" d="M 182.110048 378 
L 192.12201 378 
L 192.12201 122.084416 
L 182.110048 122.084416 
z
" style="fill:#1f77b4;"/>
   </g>
   <g id="patch_5">
    <path clip-path="url(#p2c6ddc17db)" d="M 248.856459 378 
L 258.868421 378 
L 258.868421 109.72987 
L 248.856459 109.72987 
z
" style="fill:#1f77b4;"/>
   </g>
   <g id="patch_6">
    <path clip-path="url(#p2c6ddc17db)" d="M 315.602871 378 
L 325.614833 378 
L 325.614833 110.957651 
L 315.602871 110.957651 
z
" style="fill:#1f77b4;"/>
   </g>
   <g id="patch_7">
    <path clip-path="url(#p2c6ddc17db)" d="M 382.349282 378 
L 392.361244 378 
L 392.361244 196.015584 
L 382.349282 196.015584 
z
" style="fill:#1f77b4;"/>
   </g>
   <g id="patch_8">
    <path clip-path="url(#p2c6ddc17db)" d="M 449.095694 378 
L 459.107656 378 
L 459.107656 214.214026 
L 449.095694 214.214026 
z
" style="fill:#1f77b4;"/>
   </g>
   <g id="patch_9">
    <path clip-path="url(#p2c6ddc17db)" d="M 515.842105 378 
L 525.854067 378 
L 525.854067 214.214026 
L 515.842105 214.214026 
z
" style="fill:#1f77b4;"/>
   </g>
   <g id="patch_10">
    <path clip-path="url(#p2c6ddc17db)" d="M 582.588517 378 
L 592.600478 378 
L 592.600478 241.511688 
L 582.588517 241.511688 
z
" style="fill:#1f77b4;"/>
   </g>
   <g id="patch_11">
    <path clip-path="url(#p2c6ddc17db)" d="M 125.375598 378 
L 135.38756 378 
L 135.38756 115.942442 
L 125.375598 115.942442 
z
" style="fill:#ff7f0e;"/>
   </g>
   <g id="patch_12">
    <path clip-path="url(#p2c6ddc17db)" d="M 192.12201 378 
L 202.133971 378 
L 202.133971 122.084416 
L 192.12201 122.084416 
z
" style="fill:#ff7f0e;"/>
   </g>
   <g id="patch_13">
    <path clip-path="url(#p2c6ddc17db)" d="M 258.868421 378 
L 268.880383 378 
L 268.880383 123.849351 
L 258.868421 123.849351 
z
" style="fill:#ff7f0e;"/>
   </g>
   <g id="patch_14">
    <path clip-path="url(#p2c6ddc17db)" d="M 325.614833 378 
L 335.626794 378 
L 335.626794 84.253416 
L 325.614833 84.253416 
z
" style="fill:#ff7f0e;"/>
   </g>
   <g id="patch_15">
    <path clip-path="url(#p2c6ddc17db)" d="M 392.361244 378 
L 402.373206 378 
L 402.373206 287.007792 
L 392.361244 287.007792 
z
" style="fill:#ff7f0e;"/>
   </g>
   <g id="patch_16">
    <path clip-path="url(#p2c6ddc17db)" d="M 459.107656 378 
L 469.119617 378 
L 469.119617 230.592623 
L 459.107656 230.592623 
z
" style="fill:#ff7f0e;"/>
   </g>
   <g id="patch_17">
    <path clip-path="url(#p2c6ddc17db)" d="M 525.854067 378 
L 535.866029 378 
L 535.866029 132.321039 
L 525.854067 132.321039 
z
" style="fill:#ff7f0e;"/>
   </g>
   <g id="patch_18">
    <path clip-path="url(#p2c6ddc17db)" d="M 592.600478 378 
L 602.61244 378 
L 602.61244 241.511688 
L 592.600478 241.511688 
z
" style="fill:#ff7f0e;"/>
   </g>
   <g id="patch_19">
    <path clip-path="url(#p2c6ddc17db)" d="M 135.38756 378 
L 145.399522 378 
L 145.399522 115.942442 
L 135.38756 115.942442 
z
" style="fill:#2ca02c;"/>
   </g>
   <g id="patch_20">
    <path clip-path="url(#p2c6ddc17db)" d="M 202.133971 378 
L 212.145933 378 
L 212.145933 87.962338 
L 202.133971 87.962338 
z
" style="fill:#2ca02c;"/>
   </g>
   <g id="patch_21">
    <path clip-path="url(#p2c6ddc17db)" d="M 268.880383 378 
L 278.892344 378 
L 278.892344 67.371429 
L 268.880383 67.371429 
z
" style="fill:#2ca02c;"/>
   </g>
   <g id="patch_22">
    <path clip-path="url(#p2c6ddc17db)" d="M 335.626794 378 
L 345.638756 378 
L 345.638756 102.056239 
L 335.626794 102.056239 
z
" style="fill:#2ca02c;"/>
   </g>
   <g id="patch_23">
    <path clip-path="url(#p2c6ddc17db)" d="M 402.373206 378 
L 412.385167 378 
L 412.385167 196.015584 
L 402.373206 196.015584 
z
" style="fill:#2ca02c;"/>
   </g>
   <g id="patch_24">
    <path clip-path="url(#p2c6ddc17db)" d="M 469.119617 378 
L 479.131579 378 
L 479.131579 246.971221 
L 469.119617 246.971221 
z
" style="fill:#2ca02c;"/>
   </g>
   <g id="patch_25">
    <path clip-path="url(#p2c6ddc17db)" d="M 535.866029 378 
L 545.87799 378 
L 545.87799 214.214026 
L 535.866029 214.214026 
z
" style="fill:#2ca02c;"/>
   </g>
   <g id="patch_26">
    <path clip-path="url(#p2c6ddc17db)" d="M 602.61244 378 
L 612.624402 378 
L 612.624402 218.763636 
L 602.61244 218.763636 
z
" style="fill:#2ca02c;"/>
   </g>
   <g id="patch_27">
    <path clip-path="url(#p2c6ddc17db)" d="M 145.399522 378 
L 155.411483 378 
L 155.411483 132.321039 
L 145.399522 132.321039 
z
" style="fill:#d62728;"/>
   </g>
   <g id="patch_28">
    <path clip-path="url(#p2c6ddc17db)" d="M 212.145933 378 
L 222.157895 378 
L 222.157895 105.023377 
L 212.145933 105.023377 
z
" style="fill:#d62728;"/>
   </g>
   <g id="patch_29">
    <path clip-path="url(#p2c6ddc17db)" d="M 278.892344 378 
L 288.904306 378 
L 288.904306 95.61039 
L 278.892344 95.61039 
z
" style="fill:#d62728;"/>
   </g>
   <g id="patch_30">
    <path clip-path="url(#p2c6ddc17db)" d="M 345.638756 378 
L 355.650718 378 
L 355.650718 155.464709 
L 345.638756 155.464709 
z
" style="fill:#d62728;"/>
   </g>
   <g id="patch_31">
    <path clip-path="url(#p2c6ddc17db)" d="M 412.385167 378 
L 422.397129 378 
L 422.397129 150.519481 
L 412.385167 150.519481 
z
" style="fill:#d62728;"/>
   </g>
   <g id="patch_32">
    <path clip-path="url(#p2c6ddc17db)" d="M 479.131579 378 
L 489.143541 378 
L 489.143541 246.971221 
L 479.131579 246.971221 
z
" style="fill:#d62728;"/>
   </g>
   <g id="patch_33">
    <path clip-path="url(#p2c6ddc17db)" d="M 545.87799 378 
L 555.889952 378 
L 555.889952 214.214026 
L 545.87799 214.214026 
z
" style="fill:#d62728;"/>
   </g>
   <g id="patch_34">
    <path clip-path="url(#p2c6ddc17db)" d="M 612.624402 378 
L 622.636364 378 
L 622.636364 218.763636 
L 612.624402 218.763636 
z
" style="fill:#d62728;"/>
   </g>
   <g id="matplotlib.axis_1">
    <g id="xtick_1">
     <g id="line2d_1">
      <defs>
       <path d="M 0 0 
L 0 3.5 
" id="m02d46fef0e" style="stroke:#000000;stroke-width:0.8;"/>
      </defs>
      <g>
       <use style="stroke:#000000;stroke-width:0.8;" x="135.38756" xlink:href="#m02d46fef0e" y="378"/>
      </g>
     </g>
     <g id="text_1">
      <!-- JL1 -->
      <g transform="translate(124.30506 394.877969)scale(0.13 -0.13)">
       <defs>
        <path d="M 9.1875 72.90625 
L 27.984375 72.90625 
L 27.984375 7.078125 
Q 27.984375 -6.546875 20.578125 -13.28125 
Q 13.1875 -20.015625 -1.8125 -20.015625 
L -5.609375 -20.015625 
L -5.609375 -5.8125 
L -2.6875 -5.8125 
Q 3.171875 -5.8125 6.171875 -2.53125 
Q 9.1875 0.734375 9.1875 7.078125 
z
" id="DejaVuSans-Bold-74"/>
        <path d="M 9.1875 72.90625 
L 27.984375 72.90625 
L 27.984375 14.203125 
L 60.984375 14.203125 
L 60.984375 0 
L 9.1875 0 
z
" id="DejaVuSans-Bold-76"/>
        <path d="M 11.71875 12.984375 
L 28.328125 12.984375 
L 28.328125 60.109375 
L 11.28125 56.59375 
L 11.28125 69.390625 
L 28.21875 72.90625 
L 46.09375 72.90625 
L 46.09375 12.984375 
L 62.703125 12.984375 
L 62.703125 0 
L 11.71875 0 
z
" id="DejaVuSans-Bold-49"/>
       </defs>
       <use xlink:href="#DejaVuSans-Bold-74"/>
       <use x="37.207031" xlink:href="#DejaVuSans-Bold-76"/>
       <use x="100.927734" xlink:href="#DejaVuSans-Bold-49"/>
      </g>
     </g>
    </g>
    <g id="xtick_2">
     <g id="line2d_2">
      <g>
       <use style="stroke:#000000;stroke-width:0.8;" x="202.133971" xlink:href="#m02d46fef0e" y="378"/>
      </g>
     </g>
     <g id="text_2">
      <!-- JL2 -->
      <g transform="translate(191.051471 394.877969)scale(0.13 -0.13)">
       <defs>
        <path d="M 28.8125 13.8125 
L 60.890625 13.8125 
L 60.890625 0 
L 7.90625 0 
L 7.90625 13.8125 
L 34.515625 37.3125 
Q 38.09375 40.53125 39.796875 43.609375 
Q 41.5 46.6875 41.5 50 
Q 41.5 55.125 38.0625 58.25 
Q 34.625 61.375 28.90625 61.375 
Q 24.515625 61.375 19.28125 59.5 
Q 14.0625 57.625 8.109375 53.90625 
L 8.109375 69.921875 
Q 14.453125 72.015625 20.65625 73.109375 
Q 26.859375 74.21875 32.8125 74.21875 
Q 45.90625 74.21875 53.15625 68.453125 
Q 60.40625 62.703125 60.40625 52.390625 
Q 60.40625 46.4375 57.328125 41.28125 
Q 54.25 36.140625 44.390625 27.484375 
z
" id="DejaVuSans-Bold-50"/>
       </defs>
       <use xlink:href="#DejaVuSans-Bold-74"/>
       <use x="37.207031" xlink:href="#DejaVuSans-Bold-76"/>
       <use x="100.927734" xlink:href="#DejaVuSans-Bold-50"/>
      </g>
     </g>
    </g>
    <g id="xtick_3">
     <g id="line2d_3">
      <g>
       <use style="stroke:#000000;stroke-width:0.8;" x="268.880383" xlink:href="#m02d46fef0e" y="378"/>
      </g>
     </g>
     <g id="text_3">
      <!-- JL3 -->
      <g transform="translate(257.797883 394.877969)scale(0.13 -0.13)">
       <defs>
        <path d="M 46.578125 39.3125 
Q 53.953125 37.40625 57.78125 32.6875 
Q 61.625 27.984375 61.625 20.703125 
Q 61.625 9.859375 53.3125 4.21875 
Q 45.015625 -1.421875 29.109375 -1.421875 
Q 23.484375 -1.421875 17.84375 -0.515625 
Q 12.203125 0.390625 6.6875 2.203125 
L 6.6875 16.703125 
Q 11.96875 14.0625 17.15625 12.71875 
Q 22.359375 11.375 27.390625 11.375 
Q 34.859375 11.375 38.84375 13.953125 
Q 42.828125 16.546875 42.828125 21.390625 
Q 42.828125 26.375 38.75 28.9375 
Q 34.671875 31.5 26.703125 31.5 
L 19.1875 31.5 
L 19.1875 43.609375 
L 27.09375 43.609375 
Q 34.1875 43.609375 37.640625 45.828125 
Q 41.109375 48.046875 41.109375 52.59375 
Q 41.109375 56.78125 37.734375 59.078125 
Q 34.375 61.375 28.21875 61.375 
Q 23.6875 61.375 19.046875 60.34375 
Q 14.40625 59.328125 9.8125 57.328125 
L 9.8125 71.09375 
Q 15.375 72.65625 20.84375 73.4375 
Q 26.3125 74.21875 31.59375 74.21875 
Q 45.796875 74.21875 52.84375 69.546875 
Q 59.90625 64.890625 59.90625 55.515625 
Q 59.90625 49.125 56.53125 45.046875 
Q 53.171875 40.96875 46.578125 39.3125 
z
" id="DejaVuSans-Bold-51"/>
       </defs>
       <use xlink:href="#DejaVuSans-Bold-74"/>
       <use x="37.207031" xlink:href="#DejaVuSans-Bold-76"/>
       <use x="100.927734" xlink:href="#DejaVuSans-Bold-51"/>
      </g>
     </g>
    </g>
    <g id="xtick_4">
     <g id="line2d_4">
      <g>
       <use style="stroke:#000000;stroke-width:0.8;" x="335.626794" xlink:href="#m02d46fef0e" y="378"/>
      </g>
     </g>
     <g id="text_4">
      <!-- M1 -->
      <g transform="translate(324.635701 394.877969)scale(0.13 -0.13)">
       <defs>
        <path d="M 9.1875 72.90625 
L 33.109375 72.90625 
L 49.703125 33.890625 
L 66.40625 72.90625 
L 90.28125 72.90625 
L 90.28125 0 
L 72.515625 0 
L 72.515625 53.328125 
L 55.71875 14.015625 
L 43.796875 14.015625 
L 27 53.328125 
L 27 0 
L 9.1875 0 
z
" id="DejaVuSans-Bold-77"/>
       </defs>
       <use xlink:href="#DejaVuSans-Bold-77"/>
       <use x="99.511719" xlink:href="#DejaVuSans-Bold-49"/>
      </g>
     </g>
    </g>
    <g id="xtick_5">
     <g id="line2d_5">
      <g>
       <use style="stroke:#000000;stroke-width:0.8;" x="402.373206" xlink:href="#m02d46fef0e" y="378"/>
      </g>
     </g>
     <g id="text_5">
      <!-- M2 -->
      <g transform="translate(391.382112 394.877969)scale(0.13 -0.13)">
       <use xlink:href="#DejaVuSans-Bold-77"/>
       <use x="99.511719" xlink:href="#DejaVuSans-Bold-50"/>
      </g>
     </g>
    </g>
    <g id="xtick_6">
     <g id="line2d_6">
      <g>
       <use style="stroke:#000000;stroke-width:0.8;" x="469.119617" xlink:href="#m02d46fef0e" y="378"/>
      </g>
     </g>
     <g id="text_6">
      <!-- M3 -->
      <g transform="translate(458.128523 394.877969)scale(0.13 -0.13)">
       <use xlink:href="#DejaVuSans-Bold-77"/>
       <use x="99.511719" xlink:href="#DejaVuSans-Bold-51"/>
      </g>
     </g>
    </g>
    <g id="xtick_7">
     <g id="line2d_7">
      <g>
       <use style="stroke:#000000;stroke-width:0.8;" x="535.866029" xlink:href="#m02d46fef0e" y="378"/>
      </g>
     </g>
     <g id="text_7">
      <!-- M4 -->
      <g transform="translate(524.874935 394.877969)scale(0.13 -0.13)">
       <defs>
        <path d="M 36.8125 57.421875 
L 16.21875 26.90625 
L 36.8125 26.90625 
z
M 33.6875 72.90625 
L 54.59375 72.90625 
L 54.59375 26.90625 
L 64.984375 26.90625 
L 64.984375 13.28125 
L 54.59375 13.28125 
L 54.59375 0 
L 36.8125 0 
L 36.8125 13.28125 
L 4.5 13.28125 
L 4.5 29.390625 
z
" id="DejaVuSans-Bold-52"/>
       </defs>
       <use xlink:href="#DejaVuSans-Bold-77"/>
       <use x="99.511719" xlink:href="#DejaVuSans-Bold-52"/>
      </g>
     </g>
    </g>
    <g id="xtick_8">
     <g id="line2d_8">
      <g>
       <use style="stroke:#000000;stroke-width:0.8;" x="602.61244" xlink:href="#m02d46fef0e" y="378"/>
      </g>
     </g>
     <g id="text_8">
      <!-- JL4 -->
      <g transform="translate(591.52994 394.877969)scale(0.13 -0.13)">
       <use xlink:href="#DejaVuSans-Bold-74"/>
       <use x="37.207031" xlink:href="#DejaVuSans-Bold-76"/>
       <use x="100.927734" xlink:href="#DejaVuSans-Bold-52"/>
      </g>
     </g>
    </g>
    <g id="text_9">
     <!-- Session -->
     <g transform="translate(344.199453 411.459531)scale(0.13 -0.13)">
      <defs>
       <path d="M 53.515625 70.515625 
L 53.515625 60.890625 
Q 47.90625 63.578125 42.921875 64.890625 
Q 37.9375 66.21875 33.296875 66.21875 
Q 25.25 66.21875 20.875 63.09375 
Q 16.5 59.96875 16.5 54.203125 
Q 16.5 49.359375 19.40625 46.890625 
Q 22.3125 44.4375 30.421875 42.921875 
L 36.375 41.703125 
Q 47.40625 39.59375 52.65625 34.296875 
Q 57.90625 29 57.90625 20.125 
Q 57.90625 9.515625 50.796875 4.046875 
Q 43.703125 -1.421875 29.984375 -1.421875 
Q 24.8125 -1.421875 18.96875 -0.25 
Q 13.140625 0.921875 6.890625 3.21875 
L 6.890625 13.375 
Q 12.890625 10.015625 18.65625 8.296875 
Q 24.421875 6.59375 29.984375 6.59375 
Q 38.421875 6.59375 43.015625 9.90625 
Q 47.609375 13.234375 47.609375 19.390625 
Q 47.609375 24.75 44.3125 27.78125 
Q 41.015625 30.8125 33.5 32.328125 
L 27.484375 33.5 
Q 16.453125 35.6875 11.515625 40.375 
Q 6.59375 45.0625 6.59375 53.421875 
Q 6.59375 63.09375 13.40625 68.65625 
Q 20.21875 74.21875 32.171875 74.21875 
Q 37.3125 74.21875 42.625 73.28125 
Q 47.953125 72.359375 53.515625 70.515625 
z
" id="DejaVuSans-83"/>
       <path d="M 56.203125 29.59375 
L 56.203125 25.203125 
L 14.890625 25.203125 
Q 15.484375 15.921875 20.484375 11.0625 
Q 25.484375 6.203125 34.421875 6.203125 
Q 39.59375 6.203125 44.453125 7.46875 
Q 49.3125 8.734375 54.109375 11.28125 
L 54.109375 2.78125 
Q 49.265625 0.734375 44.1875 -0.34375 
Q 39.109375 -1.421875 33.890625 -1.421875 
Q 20.796875 -1.421875 13.15625 6.1875 
Q 5.515625 13.8125 5.515625 26.8125 
Q 5.515625 40.234375 12.765625 48.109375 
Q 20.015625 56 32.328125 56 
Q 43.359375 56 49.78125 48.890625 
Q 56.203125 41.796875 56.203125 29.59375 
z
M 47.21875 32.234375 
Q 47.125 39.59375 43.09375 43.984375 
Q 39.0625 48.390625 32.421875 48.390625 
Q 24.90625 48.390625 20.390625 44.140625 
Q 15.875 39.890625 15.1875 32.171875 
z
" id="DejaVuSans-101"/>
       <path d="M 44.28125 53.078125 
L 44.28125 44.578125 
Q 40.484375 46.53125 36.375 47.5 
Q 32.28125 48.484375 27.875 48.484375 
Q 21.1875 48.484375 17.84375 46.4375 
Q 14.5 44.390625 14.5 40.28125 
Q 14.5 37.15625 16.890625 35.375 
Q 19.28125 33.59375 26.515625 31.984375 
L 29.59375 31.296875 
Q 39.15625 29.25 43.1875 25.515625 
Q 47.21875 21.78125 47.21875 15.09375 
Q 47.21875 7.46875 41.1875 3.015625 
Q 35.15625 -1.421875 24.609375 -1.421875 
Q 20.21875 -1.421875 15.453125 -0.5625 
Q 10.6875 0.296875 5.421875 2 
L 5.421875 11.28125 
Q 10.40625 8.6875 15.234375 7.390625 
Q 20.0625 6.109375 24.8125 6.109375 
Q 31.15625 6.109375 34.5625 8.28125 
Q 37.984375 10.453125 37.984375 14.40625 
Q 37.984375 18.0625 35.515625 20.015625 
Q 33.0625 21.96875 24.703125 23.78125 
L 21.578125 24.515625 
Q 13.234375 26.265625 9.515625 29.90625 
Q 5.8125 33.546875 5.8125 39.890625 
Q 5.8125 47.609375 11.28125 51.796875 
Q 16.75 56 26.8125 56 
Q 31.78125 56 36.171875 55.265625 
Q 40.578125 54.546875 44.28125 53.078125 
z
" id="DejaVuSans-115"/>
       <path d="M 9.421875 54.6875 
L 18.40625 54.6875 
L 18.40625 0 
L 9.421875 0 
z
M 9.421875 75.984375 
L 18.40625 75.984375 
L 18.40625 64.59375 
L 9.421875 64.59375 
z
" id="DejaVuSans-105"/>
       <path d="M 30.609375 48.390625 
Q 23.390625 48.390625 19.1875 42.75 
Q 14.984375 37.109375 14.984375 27.296875 
Q 14.984375 17.484375 19.15625 11.84375 
Q 23.34375 6.203125 30.609375 6.203125 
Q 37.796875 6.203125 41.984375 11.859375 
Q 46.1875 17.53125 46.1875 27.296875 
Q 46.1875 37.015625 41.984375 42.703125 
Q 37.796875 48.390625 30.609375 48.390625 
z
M 30.609375 56 
Q 42.328125 56 49.015625 48.375 
Q 55.71875 40.765625 55.71875 27.296875 
Q 55.71875 13.875 49.015625 6.21875 
Q 42.328125 -1.421875 30.609375 -1.421875 
Q 18.84375 -1.421875 12.171875 6.21875 
Q 5.515625 13.875 5.515625 27.296875 
Q 5.515625 40.765625 12.171875 48.375 
Q 18.84375 56 30.609375 56 
z
" id="DejaVuSans-111"/>
       <path d="M 54.890625 33.015625 
L 54.890625 0 
L 45.90625 0 
L 45.90625 32.71875 
Q 45.90625 40.484375 42.875 44.328125 
Q 39.84375 48.1875 33.796875 48.1875 
Q 26.515625 48.1875 22.3125 43.546875 
Q 18.109375 38.921875 18.109375 30.90625 
L 18.109375 0 
L 9.078125 0 
L 9.078125 54.6875 
L 18.109375 54.6875 
L 18.109375 46.1875 
Q 21.34375 51.125 25.703125 53.5625 
Q 30.078125 56 35.796875 56 
Q 45.21875 56 50.046875 50.171875 
Q 54.890625 44.34375 54.890625 33.015625 
z
" id="DejaVuSans-110"/>
      </defs>
      <use xlink:href="#DejaVuSans-83"/>
      <use x="63.476562" xlink:href="#DejaVuSans-101"/>
      <use x="125" xlink:href="#DejaVuSans-115"/>
      <use x="177.099609" xlink:href="#DejaVuSans-115"/>
      <use x="229.199219" xlink:href="#DejaVuSans-105"/>
      <use x="256.982422" xlink:href="#DejaVuSans-111"/>
      <use x="318.164062" xlink:href="#DejaVuSans-110"/>
     </g>
    </g>
   </g>
   <g id="matplotlib.axis_2">
    <g id="ytick_1">
     <g id="line2d_9">
      <defs>
       <path d="M 0 0 
L -3.5 0 
" id="m7c1a4ff634" style="stroke:#000000;stroke-width:0.8;"/>
      </defs>
      <g>
       <use style="stroke:#000000;stroke-width:0.8;" x="90" xlink:href="#m7c1a4ff634" y="378"/>
      </g>
     </g>
     <g id="text_10">
      <!-- 0 -->
      <g transform="translate(73.954844 382.938984)scale(0.13 -0.13)">
       <defs>
        <path d="M 46 36.53125 
Q 46 50.203125 43.4375 55.78125 
Q 40.875 61.375 34.8125 61.375 
Q 28.765625 61.375 26.171875 55.78125 
Q 23.578125 50.203125 23.578125 36.53125 
Q 23.578125 22.703125 26.171875 17.03125 
Q 28.765625 11.375 34.8125 11.375 
Q 40.828125 11.375 43.40625 17.03125 
Q 46 22.703125 46 36.53125 
z
M 64.796875 36.375 
Q 64.796875 18.265625 56.984375 8.421875 
Q 49.171875 -1.421875 34.8125 -1.421875 
Q 20.40625 -1.421875 12.59375 8.421875 
Q 4.78125 18.265625 4.78125 36.375 
Q 4.78125 54.546875 12.59375 64.375 
Q 20.40625 74.21875 34.8125 74.21875 
Q 49.171875 74.21875 56.984375 64.375 
Q 64.796875 54.546875 64.796875 36.375 
z
" id="DejaVuSans-Bold-48"/>
       </defs>
       <use xlink:href="#DejaVuSans-Bold-48"/>
      </g>
     </g>
    </g>
    <g id="ytick_2">
     <g id="line2d_10">
      <g>
       <use style="stroke:#000000;stroke-width:0.8;" x="90" xlink:href="#m7c1a4ff634" y="337.053506"/>
      </g>
     </g>
     <g id="text_11">
      <!-- 10 -->
      <g transform="translate(64.909688 341.992491)scale(0.13 -0.13)">
       <use xlink:href="#DejaVuSans-Bold-49"/>
       <use x="69.580078" xlink:href="#DejaVuSans-Bold-48"/>
      </g>
     </g>
    </g>
    <g id="ytick_3">
     <g id="line2d_11">
      <g>
       <use style="stroke:#000000;stroke-width:0.8;" x="90" xlink:href="#m7c1a4ff634" y="296.107013"/>
      </g>
     </g>
     <g id="text_12">
      <!-- 20 -->
      <g transform="translate(64.909688 301.045997)scale(0.13 -0.13)">
       <use xlink:href="#DejaVuSans-Bold-50"/>
       <use x="69.580078" xlink:href="#DejaVuSans-Bold-48"/>
      </g>
     </g>
    </g>
    <g id="ytick_4">
     <g id="line2d_12">
      <g>
       <use style="stroke:#000000;stroke-width:0.8;" x="90" xlink:href="#m7c1a4ff634" y="255.160519"/>
      </g>
     </g>
     <g id="text_13">
      <!-- 30 -->
      <g transform="translate(64.909688 260.099504)scale(0.13 -0.13)">
       <use xlink:href="#DejaVuSans-Bold-51"/>
       <use x="69.580078" xlink:href="#DejaVuSans-Bold-48"/>
      </g>
     </g>
    </g>
    <g id="ytick_5">
     <g id="line2d_13">
      <g>
       <use style="stroke:#000000;stroke-width:0.8;" x="90" xlink:href="#m7c1a4ff634" y="214.214026"/>
      </g>
     </g>
     <g id="text_14">
      <!-- 40 -->
      <g transform="translate(64.909688 219.15301)scale(0.13 -0.13)">
       <use xlink:href="#DejaVuSans-Bold-52"/>
       <use x="69.580078" xlink:href="#DejaVuSans-Bold-48"/>
      </g>
     </g>
    </g>
    <g id="ytick_6">
     <g id="line2d_14">
      <g>
       <use style="stroke:#000000;stroke-width:0.8;" x="90" xlink:href="#m7c1a4ff634" y="173.267532"/>
      </g>
     </g>
     <g id="text_15">
      <!-- 50 -->
      <g transform="translate(64.909688 178.206517)scale(0.13 -0.13)">
       <defs>
        <path d="M 10.59375 72.90625 
L 57.328125 72.90625 
L 57.328125 59.078125 
L 25.59375 59.078125 
L 25.59375 47.796875 
Q 27.734375 48.390625 29.90625 48.703125 
Q 32.078125 49.03125 34.421875 49.03125 
Q 47.75 49.03125 55.171875 42.359375 
Q 62.59375 35.6875 62.59375 23.78125 
Q 62.59375 11.96875 54.515625 5.265625 
Q 46.4375 -1.421875 32.078125 -1.421875 
Q 25.875 -1.421875 19.796875 -0.21875 
Q 13.71875 0.984375 7.71875 3.421875 
L 7.71875 18.21875 
Q 13.671875 14.796875 19.015625 13.078125 
Q 24.359375 11.375 29.109375 11.375 
Q 35.9375 11.375 39.859375 14.71875 
Q 43.796875 18.0625 43.796875 23.78125 
Q 43.796875 29.546875 39.859375 32.859375 
Q 35.9375 36.1875 29.109375 36.1875 
Q 25.046875 36.1875 20.453125 35.125 
Q 15.875 34.078125 10.59375 31.890625 
z
" id="DejaVuSans-Bold-53"/>
       </defs>
       <use xlink:href="#DejaVuSans-Bold-53"/>
       <use x="69.580078" xlink:href="#DejaVuSans-Bold-48"/>
      </g>
     </g>
    </g>
    <g id="ytick_7">
     <g id="line2d_15">
      <g>
       <use style="stroke:#000000;stroke-width:0.8;" x="90" xlink:href="#m7c1a4ff634" y="132.321039"/>
      </g>
     </g>
     <g id="text_16">
      <!-- 60 -->
      <g transform="translate(64.909688 137.260023)scale(0.13 -0.13)">
       <defs>
        <path d="M 36.1875 35.984375 
Q 31.25 35.984375 28.78125 32.78125 
Q 26.3125 29.59375 26.3125 23.1875 
Q 26.3125 16.796875 28.78125 13.59375 
Q 31.25 10.40625 36.1875 10.40625 
Q 41.15625 10.40625 43.625 13.59375 
Q 46.09375 16.796875 46.09375 23.1875 
Q 46.09375 29.59375 43.625 32.78125 
Q 41.15625 35.984375 36.1875 35.984375 
z
M 59.421875 71 
L 59.421875 57.515625 
Q 54.78125 59.71875 50.671875 60.765625 
Q 46.578125 61.8125 42.671875 61.8125 
Q 34.28125 61.8125 29.59375 57.140625 
Q 24.90625 52.484375 24.125 43.3125 
Q 27.34375 45.703125 31.09375 46.890625 
Q 34.859375 48.09375 39.3125 48.09375 
Q 50.484375 48.09375 57.34375 41.546875 
Q 64.203125 35.015625 64.203125 24.421875 
Q 64.203125 12.703125 56.53125 5.640625 
Q 48.875 -1.421875 35.984375 -1.421875 
Q 21.78125 -1.421875 13.984375 8.171875 
Q 6.203125 17.78125 6.203125 35.40625 
Q 6.203125 53.46875 15.3125 63.796875 
Q 24.421875 74.125 40.28125 74.125 
Q 45.3125 74.125 50.046875 73.34375 
Q 54.78125 72.5625 59.421875 71 
z
" id="DejaVuSans-Bold-54"/>
       </defs>
       <use xlink:href="#DejaVuSans-Bold-54"/>
       <use x="69.580078" xlink:href="#DejaVuSans-Bold-48"/>
      </g>
     </g>
    </g>
    <g id="ytick_8">
     <g id="line2d_16">
      <g>
       <use style="stroke:#000000;stroke-width:0.8;" x="90" xlink:href="#m7c1a4ff634" y="91.374545"/>
      </g>
     </g>
     <g id="text_17">
      <!-- 70 -->
      <g transform="translate(64.909688 96.31353)scale(0.13 -0.13)">
       <defs>
        <path d="M 6.6875 72.90625 
L 61.625 72.90625 
L 61.625 62.3125 
L 33.203125 0 
L 14.890625 0 
L 41.796875 59.078125 
L 6.6875 59.078125 
z
" id="DejaVuSans-Bold-55"/>
       </defs>
       <use xlink:href="#DejaVuSans-Bold-55"/>
       <use x="69.580078" xlink:href="#DejaVuSans-Bold-48"/>
      </g>
     </g>
    </g>
    <g id="text_18">
     <!-- Accuracy on Error Trials (%) -->
     <g transform="translate(58.206094 304.709375)rotate(-90)scale(0.13 -0.13)">
      <defs>
       <path d="M 34.1875 63.1875 
L 20.796875 26.90625 
L 47.609375 26.90625 
z
M 28.609375 72.90625 
L 39.796875 72.90625 
L 67.578125 0 
L 57.328125 0 
L 50.6875 18.703125 
L 17.828125 18.703125 
L 11.1875 0 
L 0.78125 0 
z
" id="DejaVuSans-65"/>
       <path d="M 48.78125 52.59375 
L 48.78125 44.1875 
Q 44.96875 46.296875 41.140625 47.34375 
Q 37.3125 48.390625 33.40625 48.390625 
Q 24.65625 48.390625 19.8125 42.84375 
Q 14.984375 37.3125 14.984375 27.296875 
Q 14.984375 17.28125 19.8125 11.734375 
Q 24.65625 6.203125 33.40625 6.203125 
Q 37.3125 6.203125 41.140625 7.25 
Q 44.96875 8.296875 48.78125 10.40625 
L 48.78125 2.09375 
Q 45.015625 0.34375 40.984375 -0.53125 
Q 36.96875 -1.421875 32.421875 -1.421875 
Q 20.0625 -1.421875 12.78125 6.34375 
Q 5.515625 14.109375 5.515625 27.296875 
Q 5.515625 40.671875 12.859375 48.328125 
Q 20.21875 56 33.015625 56 
Q 37.15625 56 41.109375 55.140625 
Q 45.0625 54.296875 48.78125 52.59375 
z
" id="DejaVuSans-99"/>
       <path d="M 8.5 21.578125 
L 8.5 54.6875 
L 17.484375 54.6875 
L 17.484375 21.921875 
Q 17.484375 14.15625 20.5 10.265625 
Q 23.53125 6.390625 29.59375 6.390625 
Q 36.859375 6.390625 41.078125 11.03125 
Q 45.3125 15.671875 45.3125 23.6875 
L 45.3125 54.6875 
L 54.296875 54.6875 
L 54.296875 0 
L 45.3125 0 
L 45.3125 8.40625 
Q 42.046875 3.421875 37.71875 1 
Q 33.40625 -1.421875 27.6875 -1.421875 
Q 18.265625 -1.421875 13.375 4.4375 
Q 8.5 10.296875 8.5 21.578125 
z
M 31.109375 56 
z
" id="DejaVuSans-117"/>
       <path d="M 41.109375 46.296875 
Q 39.59375 47.171875 37.8125 47.578125 
Q 36.03125 48 33.890625 48 
Q 26.265625 48 22.1875 43.046875 
Q 18.109375 38.09375 18.109375 28.8125 
L 18.109375 0 
L 9.078125 0 
L 9.078125 54.6875 
L 18.109375 54.6875 
L 18.109375 46.1875 
Q 20.953125 51.171875 25.484375 53.578125 
Q 30.03125 56 36.53125 56 
Q 37.453125 56 38.578125 55.875 
Q 39.703125 55.765625 41.0625 55.515625 
z
" id="DejaVuSans-114"/>
       <path d="M 34.28125 27.484375 
Q 23.390625 27.484375 19.1875 25 
Q 14.984375 22.515625 14.984375 16.5 
Q 14.984375 11.71875 18.140625 8.90625 
Q 21.296875 6.109375 26.703125 6.109375 
Q 34.1875 6.109375 38.703125 11.40625 
Q 43.21875 16.703125 43.21875 25.484375 
L 43.21875 27.484375 
z
M 52.203125 31.203125 
L 52.203125 0 
L 43.21875 0 
L 43.21875 8.296875 
Q 40.140625 3.328125 35.546875 0.953125 
Q 30.953125 -1.421875 24.3125 -1.421875 
Q 15.921875 -1.421875 10.953125 3.296875 
Q 6 8.015625 6 15.921875 
Q 6 25.140625 12.171875 29.828125 
Q 18.359375 34.515625 30.609375 34.515625 
L 43.21875 34.515625 
L 43.21875 35.40625 
Q 43.21875 41.609375 39.140625 45 
Q 35.0625 48.390625 27.6875 48.390625 
Q 23 48.390625 18.546875 47.265625 
Q 14.109375 46.140625 10.015625 43.890625 
L 10.015625 52.203125 
Q 14.9375 54.109375 19.578125 55.046875 
Q 24.21875 56 28.609375 56 
Q 40.484375 56 46.34375 49.84375 
Q 52.203125 43.703125 52.203125 31.203125 
z
" id="DejaVuSans-97"/>
       <path d="M 32.171875 -5.078125 
Q 28.375 -14.84375 24.75 -17.8125 
Q 21.140625 -20.796875 15.09375 -20.796875 
L 7.90625 -20.796875 
L 7.90625 -13.28125 
L 13.1875 -13.28125 
Q 16.890625 -13.28125 18.9375 -11.515625 
Q 21 -9.765625 23.484375 -3.21875 
L 25.09375 0.875 
L 2.984375 54.6875 
L 12.5 54.6875 
L 29.59375 11.921875 
L 46.6875 54.6875 
L 56.203125 54.6875 
z
" id="DejaVuSans-121"/>
       <path id="DejaVuSans-32"/>
       <path d="M 9.8125 72.90625 
L 55.90625 72.90625 
L 55.90625 64.59375 
L 19.671875 64.59375 
L 19.671875 43.015625 
L 54.390625 43.015625 
L 54.390625 34.71875 
L 19.671875 34.71875 
L 19.671875 8.296875 
L 56.78125 8.296875 
L 56.78125 0 
L 9.8125 0 
z
" id="DejaVuSans-69"/>
       <path d="M -0.296875 72.90625 
L 61.375 72.90625 
L 61.375 64.59375 
L 35.5 64.59375 
L 35.5 0 
L 25.59375 0 
L 25.59375 64.59375 
L -0.296875 64.59375 
z
" id="DejaVuSans-84"/>
       <path d="M 9.421875 75.984375 
L 18.40625 75.984375 
L 18.40625 0 
L 9.421875 0 
z
" id="DejaVuSans-108"/>
       <path d="M 31 75.875 
Q 24.46875 64.65625 21.28125 53.65625 
Q 18.109375 42.671875 18.109375 31.390625 
Q 18.109375 20.125 21.3125 9.0625 
Q 24.515625 -2 31 -13.1875 
L 23.1875 -13.1875 
Q 15.875 -1.703125 12.234375 9.375 
Q 8.59375 20.453125 8.59375 31.390625 
Q 8.59375 42.28125 12.203125 53.3125 
Q 15.828125 64.359375 23.1875 75.875 
z
" id="DejaVuSans-40"/>
       <path d="M 72.703125 32.078125 
Q 68.453125 32.078125 66.03125 28.46875 
Q 63.625 24.859375 63.625 18.40625 
Q 63.625 12.0625 66.03125 8.421875 
Q 68.453125 4.78125 72.703125 4.78125 
Q 76.859375 4.78125 79.265625 8.421875 
Q 81.6875 12.0625 81.6875 18.40625 
Q 81.6875 24.8125 79.265625 28.4375 
Q 76.859375 32.078125 72.703125 32.078125 
z
M 72.703125 38.28125 
Q 80.421875 38.28125 84.953125 32.90625 
Q 89.5 27.546875 89.5 18.40625 
Q 89.5 9.28125 84.9375 3.921875 
Q 80.375 -1.421875 72.703125 -1.421875 
Q 64.890625 -1.421875 60.34375 3.921875 
Q 55.8125 9.28125 55.8125 18.40625 
Q 55.8125 27.59375 60.375 32.9375 
Q 64.9375 38.28125 72.703125 38.28125 
z
M 22.3125 68.015625 
Q 18.109375 68.015625 15.6875 64.375 
Q 13.28125 60.75 13.28125 54.390625 
Q 13.28125 47.953125 15.671875 44.328125 
Q 18.0625 40.71875 22.3125 40.71875 
Q 26.5625 40.71875 28.96875 44.328125 
Q 31.390625 47.953125 31.390625 54.390625 
Q 31.390625 60.6875 28.953125 64.34375 
Q 26.515625 68.015625 22.3125 68.015625 
z
M 66.40625 74.21875 
L 74.21875 74.21875 
L 28.609375 -1.421875 
L 20.796875 -1.421875 
z
M 22.3125 74.21875 
Q 30.03125 74.21875 34.609375 68.875 
Q 39.203125 63.53125 39.203125 54.390625 
Q 39.203125 45.171875 34.640625 39.84375 
Q 30.078125 34.515625 22.3125 34.515625 
Q 14.546875 34.515625 10.03125 39.859375 
Q 5.515625 45.21875 5.515625 54.390625 
Q 5.515625 63.484375 10.046875 68.84375 
Q 14.59375 74.21875 22.3125 74.21875 
z
" id="DejaVuSans-37"/>
       <path d="M 8.015625 75.875 
L 15.828125 75.875 
Q 23.140625 64.359375 26.78125 53.3125 
Q 30.421875 42.28125 30.421875 31.390625 
Q 30.421875 20.453125 26.78125 9.375 
Q 23.140625 -1.703125 15.828125 -13.1875 
L 8.015625 -13.1875 
Q 14.5 -2 17.703125 9.0625 
Q 20.90625 20.125 20.90625 31.390625 
Q 20.90625 42.671875 17.703125 53.65625 
Q 14.5 64.65625 8.015625 75.875 
z
" id="DejaVuSans-41"/>
      </defs>
      <use xlink:href="#DejaVuSans-65"/>
      <use x="66.658203" xlink:href="#DejaVuSans-99"/>
      <use x="121.638672" xlink:href="#DejaVuSans-99"/>
      <use x="176.619141" xlink:href="#DejaVuSans-117"/>
      <use x="239.998047" xlink:href="#DejaVuSans-114"/>
      <use x="281.111328" xlink:href="#DejaVuSans-97"/>
      <use x="342.390625" xlink:href="#DejaVuSans-99"/>
      <use x="397.371094" xlink:href="#DejaVuSans-121"/>
      <use x="456.550781" xlink:href="#DejaVuSans-32"/>
      <use x="488.337891" xlink:href="#DejaVuSans-111"/>
      <use x="549.519531" xlink:href="#DejaVuSans-110"/>
      <use x="612.898438" xlink:href="#DejaVuSans-32"/>
      <use x="644.685547" xlink:href="#DejaVuSans-69"/>
      <use x="707.869141" xlink:href="#DejaVuSans-114"/>
      <use x="747.232422" xlink:href="#DejaVuSans-114"/>
      <use x="786.095703" xlink:href="#DejaVuSans-111"/>
      <use x="847.277344" xlink:href="#DejaVuSans-114"/>
      <use x="888.390625" xlink:href="#DejaVuSans-32"/>
      <use x="920.177734" xlink:href="#DejaVuSans-84"/>
      <use x="966.511719" xlink:href="#DejaVuSans-114"/>
      <use x="1007.625" xlink:href="#DejaVuSans-105"/>
      <use x="1035.408203" xlink:href="#DejaVuSans-97"/>
      <use x="1096.6875" xlink:href="#DejaVuSans-108"/>
      <use x="1124.470703" xlink:href="#DejaVuSans-115"/>
      <use x="1176.570312" xlink:href="#DejaVuSans-32"/>
      <use x="1208.357422" xlink:href="#DejaVuSans-40"/>
      <use x="1247.371094" xlink:href="#DejaVuSans-37"/>
      <use x="1342.390625" xlink:href="#DejaVuSans-41"/>
     </g>
    </g>
   </g>
   <g id="LineCollection_1">
    <path clip-path="url(#p2c6ddc17db)" d="M 120.369617 217.14268 
L 120.369617 178.528177 
" style="fill:none;stroke:#000000;stroke-width:1.5;"/>
    <path clip-path="url(#p2c6ddc17db)" d="M 187.116029 145.27825 
L 187.116029 98.890581 
" style="fill:none;stroke:#000000;stroke-width:1.5;"/>
    <path clip-path="url(#p2c6ddc17db)" d="M 253.86244 138.744917 
L 253.86244 80.714823 
" style="fill:none;stroke:#000000;stroke-width:1.5;"/>
    <path clip-path="url(#p2c6ddc17db)" d="M 320.608852 124.627158 
L 320.608852 97.288144 
" style="fill:none;stroke:#000000;stroke-width:1.5;"/>
    <path clip-path="url(#p2c6ddc17db)" d="M 387.355263 216.551119 
L 387.355263 175.480049 
" style="fill:none;stroke:#000000;stroke-width:1.5;"/>
    <path clip-path="url(#p2c6ddc17db)" d="M 454.101675 230.615696 
L 454.101675 197.812356 
" style="fill:none;stroke:#000000;stroke-width:1.5;"/>
    <path clip-path="url(#p2c6ddc17db)" d="M 520.848086 228.237866 
L 520.848086 200.190186 
" style="fill:none;stroke:#000000;stroke-width:1.5;"/>
    <path clip-path="url(#p2c6ddc17db)" d="M 587.594498 253.822441 
L 587.594498 229.200936 
" style="fill:none;stroke:#000000;stroke-width:1.5;"/>
   </g>
   <g id="LineCollection_2">
    <path clip-path="url(#p2c6ddc17db)" d="M 130.381579 115.942442 
L 130.381579 115.942442 
" style="fill:none;stroke:#000000;stroke-width:1.5;"/>
    <path clip-path="url(#p2c6ddc17db)" d="M 197.12799 122.084416 
L 197.12799 122.084416 
" style="fill:none;stroke:#000000;stroke-width:1.5;"/>
    <path clip-path="url(#p2c6ddc17db)" d="M 263.874402 123.849351 
L 263.874402 123.849351 
" style="fill:none;stroke:#000000;stroke-width:1.5;"/>
    <path clip-path="url(#p2c6ddc17db)" d="M 330.620813 84.253416 
L 330.620813 84.253416 
" style="fill:none;stroke:#000000;stroke-width:1.5;"/>
    <path clip-path="url(#p2c6ddc17db)" d="M 397.367225 287.007792 
L 397.367225 287.007792 
" style="fill:none;stroke:#000000;stroke-width:1.5;"/>
    <path clip-path="url(#p2c6ddc17db)" d="M 464.113636 230.592623 
L 464.113636 230.592623 
" style="fill:none;stroke:#000000;stroke-width:1.5;"/>
    <path clip-path="url(#p2c6ddc17db)" d="M 530.860048 132.321039 
L 530.860048 132.321039 
" style="fill:none;stroke:#000000;stroke-width:1.5;"/>
    <path clip-path="url(#p2c6ddc17db)" d="M 597.606459 241.511688 
L 597.606459 241.511688 
" style="fill:none;stroke:#000000;stroke-width:1.5;"/>
   </g>
   <g id="LineCollection_3">
    <path clip-path="url(#p2c6ddc17db)" d="M 140.393541 115.942442 
L 140.393541 115.942442 
" style="fill:none;stroke:#000000;stroke-width:1.5;"/>
    <path clip-path="url(#p2c6ddc17db)" d="M 207.139952 87.962338 
L 207.139952 87.962338 
" style="fill:none;stroke:#000000;stroke-width:1.5;"/>
    <path clip-path="url(#p2c6ddc17db)" d="M 273.886364 67.371429 
L 273.886364 67.371429 
" style="fill:none;stroke:#000000;stroke-width:1.5;"/>
    <path clip-path="url(#p2c6ddc17db)" d="M 340.632775 102.056239 
L 340.632775 102.056239 
" style="fill:none;stroke:#000000;stroke-width:1.5;"/>
    <path clip-path="url(#p2c6ddc17db)" d="M 407.379187 196.015584 
L 407.379187 196.015584 
" style="fill:none;stroke:#000000;stroke-width:1.5;"/>
    <path clip-path="url(#p2c6ddc17db)" d="M 474.125598 246.971221 
L 474.125598 246.971221 
" style="fill:none;stroke:#000000;stroke-width:1.5;"/>
    <path clip-path="url(#p2c6ddc17db)" d="M 540.87201 214.214026 
L 540.87201 214.214026 
" style="fill:none;stroke:#000000;stroke-width:1.5;"/>
    <path clip-path="url(#p2c6ddc17db)" d="M 607.618421 218.763636 
L 607.618421 218.763636 
" style="fill:none;stroke:#000000;stroke-width:1.5;"/>
   </g>
   <g id="LineCollection_4">
    <path clip-path="url(#p2c6ddc17db)" d="M 150.405502 132.321039 
L 150.405502 132.321039 
" style="fill:none;stroke:#000000;stroke-width:1.5;"/>
    <path clip-path="url(#p2c6ddc17db)" d="M 217.151914 105.023377 
L 217.151914 105.023377 
" style="fill:none;stroke:#000000;stroke-width:1.5;"/>
    <path clip-path="url(#p2c6ddc17db)" d="M 283.898325 95.61039 
L 283.898325 95.61039 
" style="fill:none;stroke:#000000;stroke-width:1.5;"/>
    <path clip-path="url(#p2c6ddc17db)" d="M 350.644737 155.464709 
L 350.644737 155.464709 
" style="fill:none;stroke:#000000;stroke-width:1.5;"/>
    <path clip-path="url(#p2c6ddc17db)" d="M 417.391148 150.519481 
L 417.391148 150.519481 
" style="fill:none;stroke:#000000;stroke-width:1.5;"/>
    <path clip-path="url(#p2c6ddc17db)" d="M 484.13756 246.971221 
L 484.13756 246.971221 
" style="fill:none;stroke:#000000;stroke-width:1.5;"/>
    <path clip-path="url(#p2c6ddc17db)" d="M 550.883971 214.214026 
L 550.883971 214.214026 
" style="fill:none;stroke:#000000;stroke-width:1.5;"/>
    <path clip-path="url(#p2c6ddc17db)" d="M 617.630383 218.763636 
L 617.630383 218.763636 
" style="fill:none;stroke:#000000;stroke-width:1.5;"/>
   </g>
   <g id="line2d_17">
    <defs>
     <path d="M 5 0 
L -5 -0 
" id="m9ea1ea625d" style="stroke:#000000;"/>
    </defs>
    <g clip-path="url(#p2c6ddc17db)">
     <use style="stroke:#000000;" x="120.369617" xlink:href="#m9ea1ea625d" y="217.14268"/>
     <use style="stroke:#000000;" x="187.116029" xlink:href="#m9ea1ea625d" y="145.27825"/>
     <use style="stroke:#000000;" x="253.86244" xlink:href="#m9ea1ea625d" y="138.744917"/>
     <use style="stroke:#000000;" x="320.608852" xlink:href="#m9ea1ea625d" y="124.627158"/>
     <use style="stroke:#000000;" x="387.355263" xlink:href="#m9ea1ea625d" y="216.551119"/>
     <use style="stroke:#000000;" x="454.101675" xlink:href="#m9ea1ea625d" y="230.615696"/>
     <use style="stroke:#000000;" x="520.848086" xlink:href="#m9ea1ea625d" y="228.237866"/>
     <use style="stroke:#000000;" x="587.594498" xlink:href="#m9ea1ea625d" y="253.822441"/>
    </g>
   </g>
   <g id="line2d_18">
    <g clip-path="url(#p2c6ddc17db)">
     <use style="stroke:#000000;" x="120.369617" xlink:href="#m9ea1ea625d" y="178.528177"/>
     <use style="stroke:#000000;" x="187.116029" xlink:href="#m9ea1ea625d" y="98.890581"/>
     <use style="stroke:#000000;" x="253.86244" xlink:href="#m9ea1ea625d" y="80.714823"/>
     <use style="stroke:#000000;" x="320.608852" xlink:href="#m9ea1ea625d" y="97.288144"/>
     <use style="stroke:#000000;" x="387.355263" xlink:href="#m9ea1ea625d" y="175.480049"/>
     <use style="stroke:#000000;" x="454.101675" xlink:href="#m9ea1ea625d" y="197.812356"/>
     <use style="stroke:#000000;" x="520.848086" xlink:href="#m9ea1ea625d" y="200.190186"/>
     <use style="stroke:#000000;" x="587.594498" xlink:href="#m9ea1ea625d" y="229.200936"/>
    </g>
   </g>
   <g id="line2d_19">
    <g clip-path="url(#p2c6ddc17db)">
     <use style="stroke:#000000;" x="130.381579" xlink:href="#m9ea1ea625d" y="115.942442"/>
     <use style="stroke:#000000;" x="197.12799" xlink:href="#m9ea1ea625d" y="122.084416"/>
     <use style="stroke:#000000;" x="263.874402" xlink:href="#m9ea1ea625d" y="123.849351"/>
     <use style="stroke:#000000;" x="330.620813" xlink:href="#m9ea1ea625d" y="84.253416"/>
     <use style="stroke:#000000;" x="397.367225" xlink:href="#m9ea1ea625d" y="287.007792"/>
     <use style="stroke:#000000;" x="464.113636" xlink:href="#m9ea1ea625d" y="230.592623"/>
     <use style="stroke:#000000;" x="530.860048" xlink:href="#m9ea1ea625d" y="132.321039"/>
     <use style="stroke:#000000;" x="597.606459" xlink:href="#m9ea1ea625d" y="241.511688"/>
    </g>
   </g>
   <g id="line2d_20">
    <g clip-path="url(#p2c6ddc17db)">
     <use style="stroke:#000000;" x="130.381579" xlink:href="#m9ea1ea625d" y="115.942442"/>
     <use style="stroke:#000000;" x="197.12799" xlink:href="#m9ea1ea625d" y="122.084416"/>
     <use style="stroke:#000000;" x="263.874402" xlink:href="#m9ea1ea625d" y="123.849351"/>
     <use style="stroke:#000000;" x="330.620813" xlink:href="#m9ea1ea625d" y="84.253416"/>
     <use style="stroke:#000000;" x="397.367225" xlink:href="#m9ea1ea625d" y="287.007792"/>
     <use style="stroke:#000000;" x="464.113636" xlink:href="#m9ea1ea625d" y="230.592623"/>
     <use style="stroke:#000000;" x="530.860048" xlink:href="#m9ea1ea625d" y="132.321039"/>
     <use style="stroke:#000000;" x="597.606459" xlink:href="#m9ea1ea625d" y="241.511688"/>
    </g>
   </g>
   <g id="line2d_21">
    <g clip-path="url(#p2c6ddc17db)">
     <use style="stroke:#000000;" x="140.393541" xlink:href="#m9ea1ea625d" y="115.942442"/>
     <use style="stroke:#000000;" x="207.139952" xlink:href="#m9ea1ea625d" y="87.962338"/>
     <use style="stroke:#000000;" x="273.886364" xlink:href="#m9ea1ea625d" y="67.371429"/>
     <use style="stroke:#000000;" x="340.632775" xlink:href="#m9ea1ea625d" y="102.056239"/>
     <use style="stroke:#000000;" x="407.379187" xlink:href="#m9ea1ea625d" y="196.015584"/>
     <use style="stroke:#000000;" x="474.125598" xlink:href="#m9ea1ea625d" y="246.971221"/>
     <use style="stroke:#000000;" x="540.87201" xlink:href="#m9ea1ea625d" y="214.214026"/>
     <use style="stroke:#000000;" x="607.618421" xlink:href="#m9ea1ea625d" y="218.763636"/>
    </g>
   </g>
   <g id="line2d_22">
    <g clip-path="url(#p2c6ddc17db)">
     <use style="stroke:#000000;" x="140.393541" xlink:href="#m9ea1ea625d" y="115.942442"/>
     <use style="stroke:#000000;" x="207.139952" xlink:href="#m9ea1ea625d" y="87.962338"/>
     <use style="stroke:#000000;" x="273.886364" xlink:href="#m9ea1ea625d" y="67.371429"/>
     <use style="stroke:#000000;" x="340.632775" xlink:href="#m9ea1ea625d" y="102.056239"/>
     <use style="stroke:#000000;" x="407.379187" xlink:href="#m9ea1ea625d" y="196.015584"/>
     <use style="stroke:#000000;" x="474.125598" xlink:href="#m9ea1ea625d" y="246.971221"/>
     <use style="stroke:#000000;" x="540.87201" xlink:href="#m9ea1ea625d" y="214.214026"/>
     <use style="stroke:#000000;" x="607.618421" xlink:href="#m9ea1ea625d" y="218.763636"/>
    </g>
   </g>
   <g id="line2d_23">
    <g clip-path="url(#p2c6ddc17db)">
     <use style="stroke:#000000;" x="150.405502" xlink:href="#m9ea1ea625d" y="132.321039"/>
     <use style="stroke:#000000;" x="217.151914" xlink:href="#m9ea1ea625d" y="105.023377"/>
     <use style="stroke:#000000;" x="283.898325" xlink:href="#m9ea1ea625d" y="95.61039"/>
     <use style="stroke:#000000;" x="350.644737" xlink:href="#m9ea1ea625d" y="155.464709"/>
     <use style="stroke:#000000;" x="417.391148" xlink:href="#m9ea1ea625d" y="150.519481"/>
     <use style="stroke:#000000;" x="484.13756" xlink:href="#m9ea1ea625d" y="246.971221"/>
     <use style="stroke:#000000;" x="550.883971" xlink:href="#m9ea1ea625d" y="214.214026"/>
     <use style="stroke:#000000;" x="617.630383" xlink:href="#m9ea1ea625d" y="218.763636"/>
    </g>
   </g>
   <g id="line2d_24">
    <g clip-path="url(#p2c6ddc17db)">
     <use style="stroke:#000000;" x="150.405502" xlink:href="#m9ea1ea625d" y="132.321039"/>
     <use style="stroke:#000000;" x="217.151914" xlink:href="#m9ea1ea625d" y="105.023377"/>
     <use style="stroke:#000000;" x="283.898325" xlink:href="#m9ea1ea625d" y="95.61039"/>
     <use style="stroke:#000000;" x="350.644737" xlink:href="#m9ea1ea625d" y="155.464709"/>
     <use style="stroke:#000000;" x="417.391148" xlink:href="#m9ea1ea625d" y="150.519481"/>
     <use style="stroke:#000000;" x="484.13756" xlink:href="#m9ea1ea625d" y="246.971221"/>
     <use style="stroke:#000000;" x="550.883971" xlink:href="#m9ea1ea625d" y="214.214026"/>
     <use style="stroke:#000000;" x="617.630383" xlink:href="#m9ea1ea625d" y="218.763636"/>
    </g>
   </g>
   <g id="line2d_25">
    <defs>
     <path d="M 0 2.5 
C 0.663008 2.5 1.29895 2.236584 1.767767 1.767767 
C 2.236584 1.29895 2.5 0.663008 2.5 0 
C 2.5 -0.663008 2.236584 -1.29895 1.767767 -1.767767 
C 1.29895 -2.236584 0.663008 -2.5 0 -2.5 
C -0.663008 -2.5 -1.29895 -2.236584 -1.767767 -1.767767 
C -2.236584 -1.29895 -2.5 -0.663008 -2.5 0 
C -2.5 0.663008 -2.236584 1.29895 -1.767767 1.767767 
C -1.29895 2.236584 -0.663008 2.5 0 2.5 
z
" id="m91e292480b" style="stroke:#000000;"/>
    </defs>
    <g clip-path="url(#p2c6ddc17db)">
     <use style="stroke:#000000;" x="120.369617" xlink:href="#m91e292480b" y="197.835429"/>
     <use style="stroke:#000000;" x="187.116029" xlink:href="#m91e292480b" y="122.084416"/>
     <use style="stroke:#000000;" x="253.86244" xlink:href="#m91e292480b" y="109.72987"/>
     <use style="stroke:#000000;" x="320.608852" xlink:href="#m91e292480b" y="110.957651"/>
     <use style="stroke:#000000;" x="387.355263" xlink:href="#m91e292480b" y="196.015584"/>
     <use style="stroke:#000000;" x="454.101675" xlink:href="#m91e292480b" y="214.214026"/>
     <use style="stroke:#000000;" x="520.848086" xlink:href="#m91e292480b" y="214.214026"/>
     <use style="stroke:#000000;" x="587.594498" xlink:href="#m91e292480b" y="241.511688"/>
    </g>
   </g>
   <g id="line2d_26">
    <g clip-path="url(#p2c6ddc17db)">
     <use style="stroke:#000000;" x="130.381579" xlink:href="#m91e292480b" y="115.942442"/>
     <use style="stroke:#000000;" x="197.12799" xlink:href="#m91e292480b" y="122.084416"/>
     <use style="stroke:#000000;" x="263.874402" xlink:href="#m91e292480b" y="123.849351"/>
     <use style="stroke:#000000;" x="330.620813" xlink:href="#m91e292480b" y="84.253416"/>
     <use style="stroke:#000000;" x="397.367225" xlink:href="#m91e292480b" y="287.007792"/>
     <use style="stroke:#000000;" x="464.113636" xlink:href="#m91e292480b" y="230.592623"/>
     <use style="stroke:#000000;" x="530.860048" xlink:href="#m91e292480b" y="132.321039"/>
     <use style="stroke:#000000;" x="597.606459" xlink:href="#m91e292480b" y="241.511688"/>
    </g>
   </g>
   <g id="line2d_27">
    <g clip-path="url(#p2c6ddc17db)">
     <use style="stroke:#000000;" x="140.393541" xlink:href="#m91e292480b" y="115.942442"/>
     <use style="stroke:#000000;" x="207.139952" xlink:href="#m91e292480b" y="87.962338"/>
     <use style="stroke:#000000;" x="273.886364" xlink:href="#m91e292480b" y="67.371429"/>
     <use style="stroke:#000000;" x="340.632775" xlink:href="#m91e292480b" y="102.056239"/>
     <use style="stroke:#000000;" x="407.379187" xlink:href="#m91e292480b" y="196.015584"/>
     <use style="stroke:#000000;" x="474.125598" xlink:href="#m91e292480b" y="246.971221"/>
     <use style="stroke:#000000;" x="540.87201" xlink:href="#m91e292480b" y="214.214026"/>
     <use style="stroke:#000000;" x="607.618421" xlink:href="#m91e292480b" y="218.763636"/>
    </g>
   </g>
   <g id="line2d_28">
    <g clip-path="url(#p2c6ddc17db)">
     <use style="stroke:#000000;" x="150.405502" xlink:href="#m91e292480b" y="132.321039"/>
     <use style="stroke:#000000;" x="217.151914" xlink:href="#m91e292480b" y="105.023377"/>
     <use style="stroke:#000000;" x="283.898325" xlink:href="#m91e292480b" y="95.61039"/>
     <use style="stroke:#000000;" x="350.644737" xlink:href="#m91e292480b" y="155.464709"/>
     <use style="stroke:#000000;" x="417.391148" xlink:href="#m91e292480b" y="150.519481"/>
     <use style="stroke:#000000;" x="484.13756" xlink:href="#m91e292480b" y="246.971221"/>
     <use style="stroke:#000000;" x="550.883971" xlink:href="#m91e292480b" y="214.214026"/>
     <use style="stroke:#000000;" x="617.630383" xlink:href="#m91e292480b" y="218.763636"/>
    </g>
   </g>
   <g id="patch_35">
    <path d="M 90 378 
L 90 51.84 
" style="fill:none;stroke:#000000;stroke-linecap:square;stroke-linejoin:miter;stroke-width:0.8;"/>
   </g>
   <g id="patch_36">
    <path d="M 648 378 
L 648 51.84 
" style="fill:none;stroke:#000000;stroke-linecap:square;stroke-linejoin:miter;stroke-width:0.8;"/>
   </g>
   <g id="patch_37">
    <path d="M 90 378 
L 648 378 
" style="fill:none;stroke:#000000;stroke-linecap:square;stroke-linejoin:miter;stroke-width:0.8;"/>
   </g>
   <g id="patch_38">
    <path d="M 90 51.84 
L 648 51.84 
" style="fill:none;stroke:#000000;stroke-linecap:square;stroke-linejoin:miter;stroke-width:0.8;"/>
   </g>
   <g id="legend_1">
    <g id="patch_39">
     <path d="M 821.382099 116.5499 
L 883.1497 116.5499 
Q 885.3155 116.5499 885.3155 114.3841 
L 885.3155 51.887234 
Q 885.3155 49.721434 883.1497 49.721434 
L 821.382099 49.721434 
Q 819.216299 49.721434 819.216299 51.887234 
L 819.216299 114.3841 
Q 819.216299 116.5499 821.382099 116.5499 
z
" style="fill:#ffffff;opacity:0.8;stroke:#cccccc;stroke-linejoin:miter;"/>
    </g>
    <g id="patch_40">
     <path d="M 823.547899 62.281382 
L 845.205899 62.281382 
L 845.205899 54.701082 
L 823.547899 54.701082 
z
" style="fill:#1f77b4;"/>
    </g>
    <g id="text_19">
     <!-- DNN -->
     <g transform="translate(853.869099 62.281382)scale(0.10829 -0.10829)">
      <defs>
       <path d="M 27.984375 58.6875 
L 27.984375 14.203125 
L 34.71875 14.203125 
Q 46.234375 14.203125 52.3125 19.921875 
Q 58.40625 25.640625 58.40625 36.53125 
Q 58.40625 47.359375 52.34375 53.015625 
Q 46.296875 58.6875 34.71875 58.6875 
z
M 9.1875 72.90625 
L 29 72.90625 
Q 45.609375 72.90625 53.734375 70.53125 
Q 61.859375 68.171875 67.671875 62.5 
Q 72.796875 57.5625 75.28125 51.109375 
Q 77.78125 44.671875 77.78125 36.53125 
Q 77.78125 28.265625 75.28125 21.796875 
Q 72.796875 15.328125 67.671875 10.40625 
Q 61.8125 4.734375 53.609375 2.359375 
Q 45.40625 0 29 0 
L 9.1875 0 
z
" id="DejaVuSans-Bold-68"/>
       <path d="M 9.1875 72.90625 
L 30.171875 72.90625 
L 56.6875 22.90625 
L 56.6875 72.90625 
L 74.515625 72.90625 
L 74.515625 0 
L 53.515625 0 
L 27 50 
L 27 0 
L 9.1875 0 
z
" id="DejaVuSans-Bold-78"/>
      </defs>
      <use xlink:href="#DejaVuSans-Bold-68"/>
      <use x="83.007812" xlink:href="#DejaVuSans-Bold-78"/>
      <use x="166.699219" xlink:href="#DejaVuSans-Bold-78"/>
     </g>
    </g>
    <g id="patch_41">
     <path d="M 823.547899 78.176323 
L 845.205899 78.176323 
L 845.205899 70.596023 
L 823.547899 70.596023 
z
" style="fill:#ff7f0e;"/>
    </g>
    <g id="text_20">
     <!-- RF -->
     <g transform="translate(853.869099 78.176323)scale(0.10829 -0.10829)">
      <defs>
       <path d="M 35.890625 40.578125 
Q 41.796875 40.578125 44.359375 42.765625 
Q 46.921875 44.96875 46.921875 50 
Q 46.921875 54.984375 44.359375 57.125 
Q 41.796875 59.28125 35.890625 59.28125 
L 27.984375 59.28125 
L 27.984375 40.578125 
z
M 27.984375 27.59375 
L 27.984375 0 
L 9.1875 0 
L 9.1875 72.90625 
L 37.890625 72.90625 
Q 52.296875 72.90625 59 68.0625 
Q 65.71875 63.234375 65.71875 52.78125 
Q 65.71875 45.5625 62.21875 40.921875 
Q 58.734375 36.28125 51.703125 34.078125 
Q 55.5625 33.203125 58.609375 30.09375 
Q 61.671875 27 64.796875 20.703125 
L 75 0 
L 54.984375 0 
L 46.09375 18.109375 
Q 43.40625 23.578125 40.640625 25.578125 
Q 37.890625 27.59375 33.296875 27.59375 
z
" id="DejaVuSans-Bold-82"/>
       <path d="M 9.1875 72.90625 
L 59.90625 72.90625 
L 59.90625 58.6875 
L 27.984375 58.6875 
L 27.984375 45.125 
L 58.015625 45.125 
L 58.015625 30.90625 
L 27.984375 30.90625 
L 27.984375 0 
L 9.1875 0 
z
" id="DejaVuSans-Bold-70"/>
      </defs>
      <use xlink:href="#DejaVuSans-Bold-82"/>
      <use x="77.001953" xlink:href="#DejaVuSans-Bold-70"/>
     </g>
    </g>
    <g id="patch_42">
     <path d="M 823.547899 94.071265 
L 845.205899 94.071265 
L 845.205899 86.490965 
L 823.547899 86.490965 
z
" style="fill:#2ca02c;"/>
    </g>
    <g id="text_21">
     <!-- SVM -->
     <g transform="translate(853.869099 94.071265)scale(0.10829 -0.10829)">
      <defs>
       <path d="M 59.90625 70.609375 
L 59.90625 55.171875 
Q 53.90625 57.859375 48.1875 59.21875 
Q 42.484375 60.59375 37.40625 60.59375 
Q 30.671875 60.59375 27.4375 58.734375 
Q 24.21875 56.890625 24.21875 52.984375 
Q 24.21875 50.046875 26.390625 48.40625 
Q 28.5625 46.78125 34.28125 45.609375 
L 42.28125 44 
Q 54.4375 41.546875 59.5625 36.5625 
Q 64.703125 31.59375 64.703125 22.40625 
Q 64.703125 10.359375 57.546875 4.46875 
Q 50.390625 -1.421875 35.6875 -1.421875 
Q 28.765625 -1.421875 21.78125 -0.09375 
Q 14.796875 1.21875 7.8125 3.8125 
L 7.8125 19.671875 
Q 14.796875 15.96875 21.3125 14.078125 
Q 27.828125 12.203125 33.890625 12.203125 
Q 40.046875 12.203125 43.3125 14.25 
Q 46.578125 16.3125 46.578125 20.125 
Q 46.578125 23.53125 44.359375 25.390625 
Q 42.140625 27.25 35.5 28.71875 
L 28.21875 30.328125 
Q 17.28125 32.671875 12.21875 37.796875 
Q 7.171875 42.921875 7.171875 51.609375 
Q 7.171875 62.5 14.203125 68.359375 
Q 21.234375 74.21875 34.421875 74.21875 
Q 40.4375 74.21875 46.78125 73.3125 
Q 53.125 72.40625 59.90625 70.609375 
z
" id="DejaVuSans-Bold-83"/>
       <path d="M 0.484375 72.90625 
L 19.390625 72.90625 
L 38.71875 19.09375 
L 58.015625 72.90625 
L 76.90625 72.90625 
L 49.90625 0 
L 27.484375 0 
z
" id="DejaVuSans-Bold-86"/>
      </defs>
      <use xlink:href="#DejaVuSans-Bold-83"/>
      <use x="72.021484" xlink:href="#DejaVuSans-Bold-86"/>
      <use x="149.414062" xlink:href="#DejaVuSans-Bold-77"/>
     </g>
    </g>
    <g id="patch_43">
     <path d="M 823.547899 109.966206 
L 845.205899 109.966206 
L 845.205899 102.385906 
L 823.547899 102.385906 
z
" style="fill:#d62728;"/>
    </g>
    <g id="text_22">
     <!-- RLR -->
     <g transform="translate(853.869099 109.966206)scale(0.10829 -0.10829)">
      <use xlink:href="#DejaVuSans-Bold-82"/>
      <use x="77.001953" xlink:href="#DejaVuSans-Bold-76"/>
      <use x="140.722656" xlink:href="#DejaVuSans-Bold-82"/>
     </g>
    </g>
   </g>
  </g>
 </g>
 <defs>
  <clipPath id="p2c6ddc17db">
   <rect height="326.16" width="558" x="90" y="51.84"/>
  </clipPath>
 </defs>
</svg>
