<?xml version="1.0" encoding="utf-8" standalone="no"?>
<!DOCTYPE svg PUBLIC "-//W3C//DTD SVG 1.1//EN"
  "http://www.w3.org/Graphics/SVG/1.1/DTD/svg11.dtd">
<!-- Created with matplotlib (https://matplotlib.org/) -->
<svg height="648pt" version="1.1" viewBox="0 0 648 648" width="648pt" xmlns="http://www.w3.org/2000/svg" xmlns:xlink="http://www.w3.org/1999/xlink">
 <metadata>
  <rdf:RDF xmlns:cc="http://creativecommons.org/ns#" xmlns:dc="http://purl.org/dc/elements/1.1/" xmlns:rdf="http://www.w3.org/1999/02/22-rdf-syntax-ns#">
   <cc:Work>
    <dc:type rdf:resource="http://purl.org/dc/dcmitype/StillImage"/>
    <dc:date>2022-03-29T09:03:03.884372</dc:date>
    <dc:format>image/svg+xml</dc:format>
    <dc:creator>
     <cc:Agent>
      <dc:title>Matplotlib v3.3.4, https://matplotlib.org/</dc:title>
     </cc:Agent>
    </dc:creator>
   </cc:Work>
  </rdf:RDF>
 </metadata>
 <defs>
  <style type="text/css">*{stroke-linecap:butt;stroke-linejoin:round;}</style>
 </defs>
 <g id="figure_1">
  <g id="patch_1">
   <path d="M 0 648 
L 648 648 
L 648 0 
L 0 0 
z
" style="fill:none;"/>
  </g>
  <g id="axes_1">
   <g id="patch_2">
    <path d="M 81 567 
L 583.2 567 
L 583.2 77.76 
L 81 77.76 
z
" style="fill:#ffffff;"/>
   </g>
   <g id="matplotlib.axis_1">
    <g id="xtick_1">
     <g id="line2d_1">
      <path clip-path="url(#p02f74117c8)" d="M 103.827273 567 
L 103.827273 77.76 
" style="fill:none;stroke:#b0b0b0;stroke-linecap:square;stroke-width:0.8;"/>
     </g>
     <g id="line2d_2">
      <defs>
       <path d="M 0 0 
L 0 3.5 
" id="m5c94ea6957" style="stroke:#000000;stroke-width:0.8;"/>
      </defs>
      <g>
       <use style="stroke:#000000;stroke-width:0.8;" x="103.827273" xlink:href="#m5c94ea6957" y="567"/>
      </g>
     </g>
     <g id="text_1">
      <!-- -1 -->
      <g transform="translate(98.842116 581.598438)scale(0.1 -0.1)">
       <defs>
        <path d="M 4.890625 31.390625 
L 31.203125 31.390625 
L 31.203125 23.390625 
L 4.890625 23.390625 
z
" id="DejaVuSans-45"/>
        <path d="M 12.40625 8.296875 
L 28.515625 8.296875 
L 28.515625 63.921875 
L 10.984375 60.40625 
L 10.984375 69.390625 
L 28.421875 72.90625 
L 38.28125 72.90625 
L 38.28125 8.296875 
L 54.390625 8.296875 
L 54.390625 0 
L 12.40625 0 
z
" id="DejaVuSans-49"/>
       </defs>
       <use xlink:href="#DejaVuSans-45"/>
       <use x="36.083984" xlink:href="#DejaVuSans-49"/>
      </g>
     </g>
    </g>
    <g id="xtick_2">
     <g id="line2d_3">
      <path clip-path="url(#p02f74117c8)" d="M 160.895455 567 
L 160.895455 77.76 
" style="fill:none;stroke:#b0b0b0;stroke-linecap:square;stroke-width:0.8;"/>
     </g>
     <g id="line2d_4">
      <g>
       <use style="stroke:#000000;stroke-width:0.8;" x="160.895455" xlink:href="#m5c94ea6957" y="567"/>
      </g>
     </g>
     <g id="text_2">
      <!-- -0.75 -->
      <g transform="translate(147.958736 581.598438)scale(0.1 -0.1)">
       <defs>
        <path d="M 31.78125 66.40625 
Q 24.171875 66.40625 20.328125 58.90625 
Q 16.5 51.421875 16.5 36.375 
Q 16.5 21.390625 20.328125 13.890625 
Q 24.171875 6.390625 31.78125 6.390625 
Q 39.453125 6.390625 43.28125 13.890625 
Q 47.125 21.390625 47.125 36.375 
Q 47.125 51.421875 43.28125 58.90625 
Q 39.453125 66.40625 31.78125 66.40625 
z
M 31.78125 74.21875 
Q 44.046875 74.21875 50.515625 64.515625 
Q 56.984375 54.828125 56.984375 36.375 
Q 56.984375 17.96875 50.515625 8.265625 
Q 44.046875 -1.421875 31.78125 -1.421875 
Q 19.53125 -1.421875 13.0625 8.265625 
Q 6.59375 17.96875 6.59375 36.375 
Q 6.59375 54.828125 13.0625 64.515625 
Q 19.53125 74.21875 31.78125 74.21875 
z
" id="DejaVuSans-48"/>
        <path d="M 10.6875 12.40625 
L 21 12.40625 
L 21 0 
L 10.6875 0 
z
" id="DejaVuSans-46"/>
        <path d="M 8.203125 72.90625 
L 55.078125 72.90625 
L 55.078125 68.703125 
L 28.609375 0 
L 18.3125 0 
L 43.21875 64.59375 
L 8.203125 64.59375 
z
" id="DejaVuSans-55"/>
        <path d="M 10.796875 72.90625 
L 49.515625 72.90625 
L 49.515625 64.59375 
L 19.828125 64.59375 
L 19.828125 46.734375 
Q 21.96875 47.46875 24.109375 47.828125 
Q 26.265625 48.1875 28.421875 48.1875 
Q 40.625 48.1875 47.75 41.5 
Q 54.890625 34.8125 54.890625 23.390625 
Q 54.890625 11.625 47.5625 5.09375 
Q 40.234375 -1.421875 26.90625 -1.421875 
Q 22.3125 -1.421875 17.546875 -0.640625 
Q 12.796875 0.140625 7.71875 1.703125 
L 7.71875 11.625 
Q 12.109375 9.234375 16.796875 8.0625 
Q 21.484375 6.890625 26.703125 6.890625 
Q 35.15625 6.890625 40.078125 11.328125 
Q 45.015625 15.765625 45.015625 23.390625 
Q 45.015625 31 40.078125 35.4375 
Q 35.15625 39.890625 26.703125 39.890625 
Q 22.75 39.890625 18.8125 39.015625 
Q 14.890625 38.140625 10.796875 36.28125 
z
" id="DejaVuSans-53"/>
       </defs>
       <use xlink:href="#DejaVuSans-45"/>
       <use x="36.083984" xlink:href="#DejaVuSans-48"/>
       <use x="99.707031" xlink:href="#DejaVuSans-46"/>
       <use x="131.494141" xlink:href="#DejaVuSans-55"/>
       <use x="195.117188" xlink:href="#DejaVuSans-53"/>
      </g>
     </g>
    </g>
    <g id="xtick_3">
     <g id="line2d_5">
      <path clip-path="url(#p02f74117c8)" d="M 217.963636 567 
L 217.963636 77.76 
" style="fill:none;stroke:#b0b0b0;stroke-linecap:square;stroke-width:0.8;"/>
     </g>
     <g id="line2d_6">
      <g>
       <use style="stroke:#000000;stroke-width:0.8;" x="217.963636" xlink:href="#m5c94ea6957" y="567"/>
      </g>
     </g>
     <g id="text_3">
      <!-- -0.5 -->
      <g transform="translate(208.208168 581.598438)scale(0.1 -0.1)">
       <use xlink:href="#DejaVuSans-45"/>
       <use x="36.083984" xlink:href="#DejaVuSans-48"/>
       <use x="99.707031" xlink:href="#DejaVuSans-46"/>
       <use x="131.494141" xlink:href="#DejaVuSans-53"/>
      </g>
     </g>
    </g>
    <g id="xtick_4">
     <g id="line2d_7">
      <path clip-path="url(#p02f74117c8)" d="M 275.031818 567 
L 275.031818 77.76 
" style="fill:none;stroke:#b0b0b0;stroke-linecap:square;stroke-width:0.8;"/>
     </g>
     <g id="line2d_8">
      <g>
       <use style="stroke:#000000;stroke-width:0.8;" x="275.031818" xlink:href="#m5c94ea6957" y="567"/>
      </g>
     </g>
     <g id="text_4">
      <!-- -0.25 -->
      <g transform="translate(262.095099 581.598438)scale(0.1 -0.1)">
       <defs>
        <path d="M 19.1875 8.296875 
L 53.609375 8.296875 
L 53.609375 0 
L 7.328125 0 
L 7.328125 8.296875 
Q 12.9375 14.109375 22.625 23.890625 
Q 32.328125 33.6875 34.8125 36.53125 
Q 39.546875 41.84375 41.421875 45.53125 
Q 43.3125 49.21875 43.3125 52.78125 
Q 43.3125 58.59375 39.234375 62.25 
Q 35.15625 65.921875 28.609375 65.921875 
Q 23.96875 65.921875 18.8125 64.3125 
Q 13.671875 62.703125 7.8125 59.421875 
L 7.8125 69.390625 
Q 13.765625 71.78125 18.9375 73 
Q 24.125 74.21875 28.421875 74.21875 
Q 39.75 74.21875 46.484375 68.546875 
Q 53.21875 62.890625 53.21875 53.421875 
Q 53.21875 48.921875 51.53125 44.890625 
Q 49.859375 40.875 45.40625 35.40625 
Q 44.1875 33.984375 37.640625 27.21875 
Q 31.109375 20.453125 19.1875 8.296875 
z
" id="DejaVuSans-50"/>
       </defs>
       <use xlink:href="#DejaVuSans-45"/>
       <use x="36.083984" xlink:href="#DejaVuSans-48"/>
       <use x="99.707031" xlink:href="#DejaVuSans-46"/>
       <use x="131.494141" xlink:href="#DejaVuSans-50"/>
       <use x="195.117188" xlink:href="#DejaVuSans-53"/>
      </g>
     </g>
    </g>
    <g id="xtick_5">
     <g id="line2d_9">
      <path clip-path="url(#p02f74117c8)" d="M 332.1 567 
L 332.1 77.76 
" style="fill:none;stroke:#b0b0b0;stroke-linecap:square;stroke-width:0.8;"/>
     </g>
     <g id="line2d_10">
      <g>
       <use style="stroke:#000000;stroke-width:0.8;" x="332.1" xlink:href="#m5c94ea6957" y="567"/>
      </g>
     </g>
     <g id="text_5">
      <!-- 0.0 -->
      <g transform="translate(324.148438 581.598438)scale(0.1 -0.1)">
       <use xlink:href="#DejaVuSans-48"/>
       <use x="63.623047" xlink:href="#DejaVuSans-46"/>
       <use x="95.410156" xlink:href="#DejaVuSans-48"/>
      </g>
     </g>
    </g>
    <g id="xtick_6">
     <g id="line2d_11">
      <path clip-path="url(#p02f74117c8)" d="M 389.168182 567 
L 389.168182 77.76 
" style="fill:none;stroke:#b0b0b0;stroke-linecap:square;stroke-width:0.8;"/>
     </g>
     <g id="line2d_12">
      <g>
       <use style="stroke:#000000;stroke-width:0.8;" x="389.168182" xlink:href="#m5c94ea6957" y="567"/>
      </g>
     </g>
     <g id="text_6">
      <!-- 0.25 -->
      <g transform="translate(378.035369 581.598438)scale(0.1 -0.1)">
       <use xlink:href="#DejaVuSans-48"/>
       <use x="63.623047" xlink:href="#DejaVuSans-46"/>
       <use x="95.410156" xlink:href="#DejaVuSans-50"/>
       <use x="159.033203" xlink:href="#DejaVuSans-53"/>
      </g>
     </g>
    </g>
    <g id="xtick_7">
     <g id="line2d_13">
      <path clip-path="url(#p02f74117c8)" d="M 446.236364 567 
L 446.236364 77.76 
" style="fill:none;stroke:#b0b0b0;stroke-linecap:square;stroke-width:0.8;"/>
     </g>
     <g id="line2d_14">
      <g>
       <use style="stroke:#000000;stroke-width:0.8;" x="446.236364" xlink:href="#m5c94ea6957" y="567"/>
      </g>
     </g>
     <g id="text_7">
      <!-- 0.5 -->
      <g transform="translate(438.284801 581.598438)scale(0.1 -0.1)">
       <use xlink:href="#DejaVuSans-48"/>
       <use x="63.623047" xlink:href="#DejaVuSans-46"/>
       <use x="95.410156" xlink:href="#DejaVuSans-53"/>
      </g>
     </g>
    </g>
    <g id="xtick_8">
     <g id="line2d_15">
      <path clip-path="url(#p02f74117c8)" d="M 503.304545 567 
L 503.304545 77.76 
" style="fill:none;stroke:#b0b0b0;stroke-linecap:square;stroke-width:0.8;"/>
     </g>
     <g id="line2d_16">
      <g>
       <use style="stroke:#000000;stroke-width:0.8;" x="503.304545" xlink:href="#m5c94ea6957" y="567"/>
      </g>
     </g>
     <g id="text_8">
      <!-- 0.75 -->
      <g transform="translate(492.171733 581.598438)scale(0.1 -0.1)">
       <use xlink:href="#DejaVuSans-48"/>
       <use x="63.623047" xlink:href="#DejaVuSans-46"/>
       <use x="95.410156" xlink:href="#DejaVuSans-55"/>
       <use x="159.033203" xlink:href="#DejaVuSans-53"/>
      </g>
     </g>
    </g>
    <g id="xtick_9">
     <g id="line2d_17">
      <path clip-path="url(#p02f74117c8)" d="M 560.372727 567 
L 560.372727 77.76 
" style="fill:none;stroke:#b0b0b0;stroke-linecap:square;stroke-width:0.8;"/>
     </g>
     <g id="line2d_18">
      <g>
       <use style="stroke:#000000;stroke-width:0.8;" x="560.372727" xlink:href="#m5c94ea6957" y="567"/>
      </g>
     </g>
     <g id="text_9">
      <!-- 1 -->
      <g transform="translate(557.191477 581.598438)scale(0.1 -0.1)">
       <use xlink:href="#DejaVuSans-49"/>
      </g>
     </g>
    </g>
    <g id="text_10">
     <!-- RSS One Block Away -->
     <g transform="translate(280.472656 595.276562)scale(0.1 -0.1)">
      <defs>
       <path d="M 44.390625 34.1875 
Q 47.5625 33.109375 50.5625 29.59375 
Q 53.5625 26.078125 56.59375 19.921875 
L 66.609375 0 
L 56 0 
L 46.6875 18.703125 
Q 43.0625 26.03125 39.671875 28.421875 
Q 36.28125 30.8125 30.421875 30.8125 
L 19.671875 30.8125 
L 19.671875 0 
L 9.8125 0 
L 9.8125 72.90625 
L 32.078125 72.90625 
Q 44.578125 72.90625 50.734375 67.671875 
Q 56.890625 62.453125 56.890625 51.90625 
Q 56.890625 45.015625 53.6875 40.46875 
Q 50.484375 35.9375 44.390625 34.1875 
z
M 19.671875 64.796875 
L 19.671875 38.921875 
L 32.078125 38.921875 
Q 39.203125 38.921875 42.84375 42.21875 
Q 46.484375 45.515625 46.484375 51.90625 
Q 46.484375 58.296875 42.84375 61.546875 
Q 39.203125 64.796875 32.078125 64.796875 
z
" id="DejaVuSans-82"/>
       <path d="M 53.515625 70.515625 
L 53.515625 60.890625 
Q 47.90625 63.578125 42.921875 64.890625 
Q 37.9375 66.21875 33.296875 66.21875 
Q 25.25 66.21875 20.875 63.09375 
Q 16.5 59.96875 16.5 54.203125 
Q 16.5 49.359375 19.40625 46.890625 
Q 22.3125 44.4375 30.421875 42.921875 
L 36.375 41.703125 
Q 47.40625 39.59375 52.65625 34.296875 
Q 57.90625 29 57.90625 20.125 
Q 57.90625 9.515625 50.796875 4.046875 
Q 43.703125 -1.421875 29.984375 -1.421875 
Q 24.8125 -1.421875 18.96875 -0.25 
Q 13.140625 0.921875 6.890625 3.21875 
L 6.890625 13.375 
Q 12.890625 10.015625 18.65625 8.296875 
Q 24.421875 6.59375 29.984375 6.59375 
Q 38.421875 6.59375 43.015625 9.90625 
Q 47.609375 13.234375 47.609375 19.390625 
Q 47.609375 24.75 44.3125 27.78125 
Q 41.015625 30.8125 33.5 32.328125 
L 27.484375 33.5 
Q 16.453125 35.6875 11.515625 40.375 
Q 6.59375 45.0625 6.59375 53.421875 
Q 6.59375 63.09375 13.40625 68.65625 
Q 20.21875 74.21875 32.171875 74.21875 
Q 37.3125 74.21875 42.625 73.28125 
Q 47.953125 72.359375 53.515625 70.515625 
z
" id="DejaVuSans-83"/>
       <path id="DejaVuSans-32"/>
       <path d="M 39.40625 66.21875 
Q 28.65625 66.21875 22.328125 58.203125 
Q 16.015625 50.203125 16.015625 36.375 
Q 16.015625 22.609375 22.328125 14.59375 
Q 28.65625 6.59375 39.40625 6.59375 
Q 50.140625 6.59375 56.421875 14.59375 
Q 62.703125 22.609375 62.703125 36.375 
Q 62.703125 50.203125 56.421875 58.203125 
Q 50.140625 66.21875 39.40625 66.21875 
z
M 39.40625 74.21875 
Q 54.734375 74.21875 63.90625 63.9375 
Q 73.09375 53.65625 73.09375 36.375 
Q 73.09375 19.140625 63.90625 8.859375 
Q 54.734375 -1.421875 39.40625 -1.421875 
Q 24.03125 -1.421875 14.8125 8.828125 
Q 5.609375 19.09375 5.609375 36.375 
Q 5.609375 53.65625 14.8125 63.9375 
Q 24.03125 74.21875 39.40625 74.21875 
z
" id="DejaVuSans-79"/>
       <path d="M 54.890625 33.015625 
L 54.890625 0 
L 45.90625 0 
L 45.90625 32.71875 
Q 45.90625 40.484375 42.875 44.328125 
Q 39.84375 48.1875 33.796875 48.1875 
Q 26.515625 48.1875 22.3125 43.546875 
Q 18.109375 38.921875 18.109375 30.90625 
L 18.109375 0 
L 9.078125 0 
L 9.078125 54.6875 
L 18.109375 54.6875 
L 18.109375 46.1875 
Q 21.34375 51.125 25.703125 53.5625 
Q 30.078125 56 35.796875 56 
Q 45.21875 56 50.046875 50.171875 
Q 54.890625 44.34375 54.890625 33.015625 
z
" id="DejaVuSans-110"/>
       <path d="M 56.203125 29.59375 
L 56.203125 25.203125 
L 14.890625 25.203125 
Q 15.484375 15.921875 20.484375 11.0625 
Q 25.484375 6.203125 34.421875 6.203125 
Q 39.59375 6.203125 44.453125 7.46875 
Q 49.3125 8.734375 54.109375 11.28125 
L 54.109375 2.78125 
Q 49.265625 0.734375 44.1875 -0.34375 
Q 39.109375 -1.421875 33.890625 -1.421875 
Q 20.796875 -1.421875 13.15625 6.1875 
Q 5.515625 13.8125 5.515625 26.8125 
Q 5.515625 40.234375 12.765625 48.109375 
Q 20.015625 56 32.328125 56 
Q 43.359375 56 49.78125 48.890625 
Q 56.203125 41.796875 56.203125 29.59375 
z
M 47.21875 32.234375 
Q 47.125 39.59375 43.09375 43.984375 
Q 39.0625 48.390625 32.421875 48.390625 
Q 24.90625 48.390625 20.390625 44.140625 
Q 15.875 39.890625 15.1875 32.171875 
z
" id="DejaVuSans-101"/>
       <path d="M 19.671875 34.8125 
L 19.671875 8.109375 
L 35.5 8.109375 
Q 43.453125 8.109375 47.28125 11.40625 
Q 51.125 14.703125 51.125 21.484375 
Q 51.125 28.328125 47.28125 31.5625 
Q 43.453125 34.8125 35.5 34.8125 
z
M 19.671875 64.796875 
L 19.671875 42.828125 
L 34.28125 42.828125 
Q 41.5 42.828125 45.03125 45.53125 
Q 48.578125 48.25 48.578125 53.8125 
Q 48.578125 59.328125 45.03125 62.0625 
Q 41.5 64.796875 34.28125 64.796875 
z
M 9.8125 72.90625 
L 35.015625 72.90625 
Q 46.296875 72.90625 52.390625 68.21875 
Q 58.5 63.53125 58.5 54.890625 
Q 58.5 48.1875 55.375 44.234375 
Q 52.25 40.28125 46.1875 39.3125 
Q 53.46875 37.75 57.5 32.78125 
Q 61.53125 27.828125 61.53125 20.40625 
Q 61.53125 10.640625 54.890625 5.3125 
Q 48.25 0 35.984375 0 
L 9.8125 0 
z
" id="DejaVuSans-66"/>
       <path d="M 9.421875 75.984375 
L 18.40625 75.984375 
L 18.40625 0 
L 9.421875 0 
z
" id="DejaVuSans-108"/>
       <path d="M 30.609375 48.390625 
Q 23.390625 48.390625 19.1875 42.75 
Q 14.984375 37.109375 14.984375 27.296875 
Q 14.984375 17.484375 19.15625 11.84375 
Q 23.34375 6.203125 30.609375 6.203125 
Q 37.796875 6.203125 41.984375 11.859375 
Q 46.1875 17.53125 46.1875 27.296875 
Q 46.1875 37.015625 41.984375 42.703125 
Q 37.796875 48.390625 30.609375 48.390625 
z
M 30.609375 56 
Q 42.328125 56 49.015625 48.375 
Q 55.71875 40.765625 55.71875 27.296875 
Q 55.71875 13.875 49.015625 6.21875 
Q 42.328125 -1.421875 30.609375 -1.421875 
Q 18.84375 -1.421875 12.171875 6.21875 
Q 5.515625 13.875 5.515625 27.296875 
Q 5.515625 40.765625 12.171875 48.375 
Q 18.84375 56 30.609375 56 
z
" id="DejaVuSans-111"/>
       <path d="M 48.78125 52.59375 
L 48.78125 44.1875 
Q 44.96875 46.296875 41.140625 47.34375 
Q 37.3125 48.390625 33.40625 48.390625 
Q 24.65625 48.390625 19.8125 42.84375 
Q 14.984375 37.3125 14.984375 27.296875 
Q 14.984375 17.28125 19.8125 11.734375 
Q 24.65625 6.203125 33.40625 6.203125 
Q 37.3125 6.203125 41.140625 7.25 
Q 44.96875 8.296875 48.78125 10.40625 
L 48.78125 2.09375 
Q 45.015625 0.34375 40.984375 -0.53125 
Q 36.96875 -1.421875 32.421875 -1.421875 
Q 20.0625 -1.421875 12.78125 6.34375 
Q 5.515625 14.109375 5.515625 27.296875 
Q 5.515625 40.671875 12.859375 48.328125 
Q 20.21875 56 33.015625 56 
Q 37.15625 56 41.109375 55.140625 
Q 45.0625 54.296875 48.78125 52.59375 
z
" id="DejaVuSans-99"/>
       <path d="M 9.078125 75.984375 
L 18.109375 75.984375 
L 18.109375 31.109375 
L 44.921875 54.6875 
L 56.390625 54.6875 
L 27.390625 29.109375 
L 57.625 0 
L 45.90625 0 
L 18.109375 26.703125 
L 18.109375 0 
L 9.078125 0 
z
" id="DejaVuSans-107"/>
       <path d="M 34.1875 63.1875 
L 20.796875 26.90625 
L 47.609375 26.90625 
z
M 28.609375 72.90625 
L 39.796875 72.90625 
L 67.578125 0 
L 57.328125 0 
L 50.6875 18.703125 
L 17.828125 18.703125 
L 11.1875 0 
L 0.78125 0 
z
" id="DejaVuSans-65"/>
       <path d="M 4.203125 54.6875 
L 13.1875 54.6875 
L 24.421875 12.015625 
L 35.59375 54.6875 
L 46.1875 54.6875 
L 57.421875 12.015625 
L 68.609375 54.6875 
L 77.59375 54.6875 
L 63.28125 0 
L 52.6875 0 
L 40.921875 44.828125 
L 29.109375 0 
L 18.5 0 
z
" id="DejaVuSans-119"/>
       <path d="M 34.28125 27.484375 
Q 23.390625 27.484375 19.1875 25 
Q 14.984375 22.515625 14.984375 16.5 
Q 14.984375 11.71875 18.140625 8.90625 
Q 21.296875 6.109375 26.703125 6.109375 
Q 34.1875 6.109375 38.703125 11.40625 
Q 43.21875 16.703125 43.21875 25.484375 
L 43.21875 27.484375 
z
M 52.203125 31.203125 
L 52.203125 0 
L 43.21875 0 
L 43.21875 8.296875 
Q 40.140625 3.328125 35.546875 0.953125 
Q 30.953125 -1.421875 24.3125 -1.421875 
Q 15.921875 -1.421875 10.953125 3.296875 
Q 6 8.015625 6 15.921875 
Q 6 25.140625 12.171875 29.828125 
Q 18.359375 34.515625 30.609375 34.515625 
L 43.21875 34.515625 
L 43.21875 35.40625 
Q 43.21875 41.609375 39.140625 45 
Q 35.0625 48.390625 27.6875 48.390625 
Q 23 48.390625 18.546875 47.265625 
Q 14.109375 46.140625 10.015625 43.890625 
L 10.015625 52.203125 
Q 14.9375 54.109375 19.578125 55.046875 
Q 24.21875 56 28.609375 56 
Q 40.484375 56 46.34375 49.84375 
Q 52.203125 43.703125 52.203125 31.203125 
z
" id="DejaVuSans-97"/>
       <path d="M 32.171875 -5.078125 
Q 28.375 -14.84375 24.75 -17.8125 
Q 21.140625 -20.796875 15.09375 -20.796875 
L 7.90625 -20.796875 
L 7.90625 -13.28125 
L 13.1875 -13.28125 
Q 16.890625 -13.28125 18.9375 -11.515625 
Q 21 -9.765625 23.484375 -3.21875 
L 25.09375 0.875 
L 2.984375 54.6875 
L 12.5 54.6875 
L 29.59375 11.921875 
L 46.6875 54.6875 
L 56.203125 54.6875 
z
" id="DejaVuSans-121"/>
      </defs>
      <use xlink:href="#DejaVuSans-82"/>
      <use x="69.482422" xlink:href="#DejaVuSans-83"/>
      <use x="132.958984" xlink:href="#DejaVuSans-83"/>
      <use x="196.435547" xlink:href="#DejaVuSans-32"/>
      <use x="228.222656" xlink:href="#DejaVuSans-79"/>
      <use x="306.933594" xlink:href="#DejaVuSans-110"/>
      <use x="370.3125" xlink:href="#DejaVuSans-101"/>
      <use x="431.835938" xlink:href="#DejaVuSans-32"/>
      <use x="463.623047" xlink:href="#DejaVuSans-66"/>
      <use x="532.226562" xlink:href="#DejaVuSans-108"/>
      <use x="560.009766" xlink:href="#DejaVuSans-111"/>
      <use x="621.191406" xlink:href="#DejaVuSans-99"/>
      <use x="676.171875" xlink:href="#DejaVuSans-107"/>
      <use x="734.082031" xlink:href="#DejaVuSans-32"/>
      <use x="765.869141" xlink:href="#DejaVuSans-65"/>
      <use x="830.277344" xlink:href="#DejaVuSans-119"/>
      <use x="912.064453" xlink:href="#DejaVuSans-97"/>
      <use x="973.34375" xlink:href="#DejaVuSans-121"/>
     </g>
    </g>
   </g>
   <g id="matplotlib.axis_2">
    <g id="ytick_1">
     <g id="line2d_19">
      <path clip-path="url(#p02f74117c8)" d="M 81 544.761818 
L 583.2 544.761818 
" style="fill:none;stroke:#b0b0b0;stroke-linecap:square;stroke-width:0.8;"/>
     </g>
     <g id="line2d_20">
      <defs>
       <path d="M 0 0 
L -3.5 0 
" id="me898153120" style="stroke:#000000;stroke-width:0.8;"/>
      </defs>
      <g>
       <use style="stroke:#000000;stroke-width:0.8;" x="81" xlink:href="#me898153120" y="544.761818"/>
      </g>
     </g>
     <g id="text_11">
      <!-- -1 -->
      <g transform="translate(64.029687 548.561037)scale(0.1 -0.1)">
       <use xlink:href="#DejaVuSans-45"/>
       <use x="36.083984" xlink:href="#DejaVuSans-49"/>
      </g>
     </g>
    </g>
    <g id="ytick_2">
     <g id="line2d_21">
      <path clip-path="url(#p02f74117c8)" d="M 81 489.166364 
L 583.2 489.166364 
" style="fill:none;stroke:#b0b0b0;stroke-linecap:square;stroke-width:0.8;"/>
     </g>
     <g id="line2d_22">
      <g>
       <use style="stroke:#000000;stroke-width:0.8;" x="81" xlink:href="#me898153120" y="489.166364"/>
      </g>
     </g>
     <g id="text_12">
      <!-- -0.75 -->
      <g transform="translate(48.126562 492.965582)scale(0.1 -0.1)">
       <use xlink:href="#DejaVuSans-45"/>
       <use x="36.083984" xlink:href="#DejaVuSans-48"/>
       <use x="99.707031" xlink:href="#DejaVuSans-46"/>
       <use x="131.494141" xlink:href="#DejaVuSans-55"/>
       <use x="195.117188" xlink:href="#DejaVuSans-53"/>
      </g>
     </g>
    </g>
    <g id="ytick_3">
     <g id="line2d_23">
      <path clip-path="url(#p02f74117c8)" d="M 81 433.570909 
L 583.2 433.570909 
" style="fill:none;stroke:#b0b0b0;stroke-linecap:square;stroke-width:0.8;"/>
     </g>
     <g id="line2d_24">
      <g>
       <use style="stroke:#000000;stroke-width:0.8;" x="81" xlink:href="#me898153120" y="433.570909"/>
      </g>
     </g>
     <g id="text_13">
      <!-- -0.5 -->
      <g transform="translate(54.489063 437.370128)scale(0.1 -0.1)">
       <use xlink:href="#DejaVuSans-45"/>
       <use x="36.083984" xlink:href="#DejaVuSans-48"/>
       <use x="99.707031" xlink:href="#DejaVuSans-46"/>
       <use x="131.494141" xlink:href="#DejaVuSans-53"/>
      </g>
     </g>
    </g>
    <g id="ytick_4">
     <g id="line2d_25">
      <path clip-path="url(#p02f74117c8)" d="M 81 377.975455 
L 583.2 377.975455 
" style="fill:none;stroke:#b0b0b0;stroke-linecap:square;stroke-width:0.8;"/>
     </g>
     <g id="line2d_26">
      <g>
       <use style="stroke:#000000;stroke-width:0.8;" x="81" xlink:href="#me898153120" y="377.975455"/>
      </g>
     </g>
     <g id="text_14">
      <!-- -0.25 -->
      <g transform="translate(48.126562 381.774673)scale(0.1 -0.1)">
       <use xlink:href="#DejaVuSans-45"/>
       <use x="36.083984" xlink:href="#DejaVuSans-48"/>
       <use x="99.707031" xlink:href="#DejaVuSans-46"/>
       <use x="131.494141" xlink:href="#DejaVuSans-50"/>
       <use x="195.117188" xlink:href="#DejaVuSans-53"/>
      </g>
     </g>
    </g>
    <g id="ytick_5">
     <g id="line2d_27">
      <path clip-path="url(#p02f74117c8)" d="M 81 322.38 
L 583.2 322.38 
" style="fill:none;stroke:#b0b0b0;stroke-linecap:square;stroke-width:0.8;"/>
     </g>
     <g id="line2d_28">
      <g>
       <use style="stroke:#000000;stroke-width:0.8;" x="81" xlink:href="#me898153120" y="322.38"/>
      </g>
     </g>
     <g id="text_15">
      <!-- 0.0 -->
      <g transform="translate(58.096875 326.179219)scale(0.1 -0.1)">
       <use xlink:href="#DejaVuSans-48"/>
       <use x="63.623047" xlink:href="#DejaVuSans-46"/>
       <use x="95.410156" xlink:href="#DejaVuSans-48"/>
      </g>
     </g>
    </g>
    <g id="ytick_6">
     <g id="line2d_29">
      <path clip-path="url(#p02f74117c8)" d="M 81 266.784545 
L 583.2 266.784545 
" style="fill:none;stroke:#b0b0b0;stroke-linecap:square;stroke-width:0.8;"/>
     </g>
     <g id="line2d_30">
      <g>
       <use style="stroke:#000000;stroke-width:0.8;" x="81" xlink:href="#me898153120" y="266.784545"/>
      </g>
     </g>
     <g id="text_16">
      <!-- 0.25 -->
      <g transform="translate(51.734375 270.583764)scale(0.1 -0.1)">
       <use xlink:href="#DejaVuSans-48"/>
       <use x="63.623047" xlink:href="#DejaVuSans-46"/>
       <use x="95.410156" xlink:href="#DejaVuSans-50"/>
       <use x="159.033203" xlink:href="#DejaVuSans-53"/>
      </g>
     </g>
    </g>
    <g id="ytick_7">
     <g id="line2d_31">
      <path clip-path="url(#p02f74117c8)" d="M 81 211.189091 
L 583.2 211.189091 
" style="fill:none;stroke:#b0b0b0;stroke-linecap:square;stroke-width:0.8;"/>
     </g>
     <g id="line2d_32">
      <g>
       <use style="stroke:#000000;stroke-width:0.8;" x="81" xlink:href="#me898153120" y="211.189091"/>
      </g>
     </g>
     <g id="text_17">
      <!-- 0.5 -->
      <g transform="translate(58.096875 214.98831)scale(0.1 -0.1)">
       <use xlink:href="#DejaVuSans-48"/>
       <use x="63.623047" xlink:href="#DejaVuSans-46"/>
       <use x="95.410156" xlink:href="#DejaVuSans-53"/>
      </g>
     </g>
    </g>
    <g id="ytick_8">
     <g id="line2d_33">
      <path clip-path="url(#p02f74117c8)" d="M 81 155.593636 
L 583.2 155.593636 
" style="fill:none;stroke:#b0b0b0;stroke-linecap:square;stroke-width:0.8;"/>
     </g>
     <g id="line2d_34">
      <g>
       <use style="stroke:#000000;stroke-width:0.8;" x="81" xlink:href="#me898153120" y="155.593636"/>
      </g>
     </g>
     <g id="text_18">
      <!-- 0.75 -->
      <g transform="translate(51.734375 159.392855)scale(0.1 -0.1)">
       <use xlink:href="#DejaVuSans-48"/>
       <use x="63.623047" xlink:href="#DejaVuSans-46"/>
       <use x="95.410156" xlink:href="#DejaVuSans-55"/>
       <use x="159.033203" xlink:href="#DejaVuSans-53"/>
      </g>
     </g>
    </g>
    <g id="ytick_9">
     <g id="line2d_35">
      <path clip-path="url(#p02f74117c8)" d="M 81 99.998182 
L 583.2 99.998182 
" style="fill:none;stroke:#b0b0b0;stroke-linecap:square;stroke-width:0.8;"/>
     </g>
     <g id="line2d_36">
      <g>
       <use style="stroke:#000000;stroke-width:0.8;" x="81" xlink:href="#me898153120" y="99.998182"/>
      </g>
     </g>
     <g id="text_19">
      <!-- 1 -->
      <g transform="translate(67.6375 103.797401)scale(0.1 -0.1)">
       <use xlink:href="#DejaVuSans-49"/>
      </g>
     </g>
    </g>
    <g id="text_20">
     <!-- RSS Two Blocks Away -->
     <g transform="translate(42.046875 375.808125)rotate(-90)scale(0.1 -0.1)">
      <defs>
       <path d="M -0.296875 72.90625 
L 61.375 72.90625 
L 61.375 64.59375 
L 35.5 64.59375 
L 35.5 0 
L 25.59375 0 
L 25.59375 64.59375 
L -0.296875 64.59375 
z
" id="DejaVuSans-84"/>
       <path d="M 44.28125 53.078125 
L 44.28125 44.578125 
Q 40.484375 46.53125 36.375 47.5 
Q 32.28125 48.484375 27.875 48.484375 
Q 21.1875 48.484375 17.84375 46.4375 
Q 14.5 44.390625 14.5 40.28125 
Q 14.5 37.15625 16.890625 35.375 
Q 19.28125 33.59375 26.515625 31.984375 
L 29.59375 31.296875 
Q 39.15625 29.25 43.1875 25.515625 
Q 47.21875 21.78125 47.21875 15.09375 
Q 47.21875 7.46875 41.1875 3.015625 
Q 35.15625 -1.421875 24.609375 -1.421875 
Q 20.21875 -1.421875 15.453125 -0.5625 
Q 10.6875 0.296875 5.421875 2 
L 5.421875 11.28125 
Q 10.40625 8.6875 15.234375 7.390625 
Q 20.0625 6.109375 24.8125 6.109375 
Q 31.15625 6.109375 34.5625 8.28125 
Q 37.984375 10.453125 37.984375 14.40625 
Q 37.984375 18.0625 35.515625 20.015625 
Q 33.0625 21.96875 24.703125 23.78125 
L 21.578125 24.515625 
Q 13.234375 26.265625 9.515625 29.90625 
Q 5.8125 33.546875 5.8125 39.890625 
Q 5.8125 47.609375 11.28125 51.796875 
Q 16.75 56 26.8125 56 
Q 31.78125 56 36.171875 55.265625 
Q 40.578125 54.546875 44.28125 53.078125 
z
" id="DejaVuSans-115"/>
      </defs>
      <use xlink:href="#DejaVuSans-82"/>
      <use x="69.482422" xlink:href="#DejaVuSans-83"/>
      <use x="132.958984" xlink:href="#DejaVuSans-83"/>
      <use x="196.435547" xlink:href="#DejaVuSans-32"/>
      <use x="228.222656" xlink:href="#DejaVuSans-84"/>
      <use x="272.806641" xlink:href="#DejaVuSans-119"/>
      <use x="354.59375" xlink:href="#DejaVuSans-111"/>
      <use x="415.775391" xlink:href="#DejaVuSans-32"/>
      <use x="447.5625" xlink:href="#DejaVuSans-66"/>
      <use x="516.166016" xlink:href="#DejaVuSans-108"/>
      <use x="543.949219" xlink:href="#DejaVuSans-111"/>
      <use x="605.130859" xlink:href="#DejaVuSans-99"/>
      <use x="660.111328" xlink:href="#DejaVuSans-107"/>
      <use x="718.021484" xlink:href="#DejaVuSans-115"/>
      <use x="770.121094" xlink:href="#DejaVuSans-32"/>
      <use x="801.908203" xlink:href="#DejaVuSans-65"/>
      <use x="866.316406" xlink:href="#DejaVuSans-119"/>
      <use x="948.103516" xlink:href="#DejaVuSans-97"/>
      <use x="1009.382812" xlink:href="#DejaVuSans-121"/>
     </g>
    </g>
   </g>
   <g id="line2d_37">
    <path clip-path="url(#p02f74117c8)" d="M 160.895455 544.761818 
" style="fill:none;stroke:#1f77b4;stroke-linecap:square;stroke-opacity:0.7;stroke-width:1.5;"/>
   </g>
   <g id="line2d_38">
    <path clip-path="url(#p02f74117c8)" d="M 217.963636 544.761818 
" style="fill:none;stroke:#ff7f0e;stroke-linecap:square;stroke-opacity:0.7;stroke-width:1.5;"/>
   </g>
   <g id="line2d_39">
    <path clip-path="url(#p02f74117c8)" d="M 275.031818 544.761818 
" style="fill:none;stroke:#2ca02c;stroke-linecap:square;stroke-opacity:0.7;stroke-width:1.5;"/>
   </g>
   <g id="line2d_40">
    <path clip-path="url(#p02f74117c8)" d="M 332.1 544.761818 
" style="fill:none;stroke:#d62728;stroke-linecap:square;stroke-opacity:0.7;stroke-width:1.5;"/>
   </g>
   <g id="line2d_41">
    <path clip-path="url(#p02f74117c8)" d="M 389.168182 544.761818 
" style="fill:none;stroke:#9467bd;stroke-linecap:square;stroke-opacity:0.7;stroke-width:1.5;"/>
   </g>
   <g id="line2d_42">
    <path clip-path="url(#p02f74117c8)" d="M 446.236364 544.761818 
" style="fill:none;stroke:#8c564b;stroke-linecap:square;stroke-opacity:0.7;stroke-width:1.5;"/>
   </g>
   <g id="line2d_43">
    <path clip-path="url(#p02f74117c8)" d="M 503.304545 544.761818 
" style="fill:none;stroke:#e377c2;stroke-linecap:square;stroke-opacity:0.7;stroke-width:1.5;"/>
   </g>
   <g id="line2d_44">
    <path clip-path="url(#p02f74117c8)" d="M 560.372727 544.761818 
" style="fill:none;stroke:#7f7f7f;stroke-linecap:square;stroke-opacity:0.7;stroke-width:1.5;"/>
    <defs>
     <path d="M 0 5 
C 1.326016 5 2.597899 4.473168 3.535534 3.535534 
C 4.473168 2.597899 5 1.326016 5 0 
C 5 -1.326016 4.473168 -2.597899 3.535534 -3.535534 
C 2.597899 -4.473168 1.326016 -5 0 -5 
C -1.326016 -5 -2.597899 -4.473168 -3.535534 -3.535534 
C -4.473168 -2.597899 -5 -1.326016 -5 0 
C -5 1.326016 -4.473168 2.597899 -3.535534 3.535534 
C -2.597899 4.473168 -1.326016 5 0 5 
z
" id="m34a9728547" style="stroke:#7f7f7f;stroke-opacity:0.7;"/>
    </defs>
    <g clip-path="url(#p02f74117c8)">
     <use style="fill:#7f7f7f;fill-opacity:0.7;stroke:#7f7f7f;stroke-opacity:0.7;" x="560.372727" xlink:href="#m34a9728547" y="544.761818"/>
    </g>
   </g>
   <g id="line2d_45">
    <path clip-path="url(#p02f74117c8)" d="M 103.827273 489.166364 
" style="fill:none;stroke:#bcbd22;stroke-linecap:square;stroke-opacity:0.7;stroke-width:1.5;"/>
   </g>
   <g id="line2d_46">
    <path clip-path="url(#p02f74117c8)" d="M 217.963636 489.166364 
" style="fill:none;stroke:#17becf;stroke-linecap:square;stroke-opacity:0.7;stroke-width:1.5;"/>
   </g>
   <g id="line2d_47">
    <path clip-path="url(#p02f74117c8)" d="M 275.031818 489.166364 
" style="fill:none;stroke:#1f77b4;stroke-linecap:square;stroke-opacity:0.7;stroke-width:1.5;"/>
   </g>
   <g id="line2d_48">
    <path clip-path="url(#p02f74117c8)" d="M 332.1 489.166364 
" style="fill:none;stroke:#ff7f0e;stroke-linecap:square;stroke-opacity:0.7;stroke-width:1.5;"/>
    <defs>
     <path d="M 0 5 
C 1.326016 5 2.597899 4.473168 3.535534 3.535534 
C 4.473168 2.597899 5 1.326016 5 0 
C 5 -1.326016 4.473168 -2.597899 3.535534 -3.535534 
C 2.597899 -4.473168 1.326016 -5 0 -5 
C -1.326016 -5 -2.597899 -4.473168 -3.535534 -3.535534 
C -4.473168 -2.597899 -5 -1.326016 -5 0 
C -5 1.326016 -4.473168 2.597899 -3.535534 3.535534 
C -2.597899 4.473168 -1.326016 5 0 5 
z
" id="mc1aefaa4e6" style="stroke:#ff7f0e;stroke-opacity:0.7;"/>
    </defs>
    <g clip-path="url(#p02f74117c8)">
     <use style="fill:#ff7f0e;fill-opacity:0.7;stroke:#ff7f0e;stroke-opacity:0.7;" x="332.1" xlink:href="#mc1aefaa4e6" y="489.166364"/>
    </g>
   </g>
   <g id="line2d_49">
    <path clip-path="url(#p02f74117c8)" d="M 389.168182 489.166364 
" style="fill:none;stroke:#2ca02c;stroke-linecap:square;stroke-opacity:0.7;stroke-width:1.5;"/>
   </g>
   <g id="line2d_50">
    <path clip-path="url(#p02f74117c8)" d="M 446.236364 489.166364 
" style="fill:none;stroke:#d62728;stroke-linecap:square;stroke-opacity:0.7;stroke-width:1.5;"/>
   </g>
   <g id="line2d_51">
    <path clip-path="url(#p02f74117c8)" d="M 503.304545 489.166364 
" style="fill:none;stroke:#9467bd;stroke-linecap:square;stroke-opacity:0.7;stroke-width:1.5;"/>
   </g>
   <g id="line2d_52">
    <path clip-path="url(#p02f74117c8)" d="M 560.372727 489.166364 
" style="fill:none;stroke:#8c564b;stroke-linecap:square;stroke-opacity:0.7;stroke-width:1.5;"/>
   </g>
   <g id="line2d_53">
    <path clip-path="url(#p02f74117c8)" d="M 103.827273 433.570909 
" style="fill:none;stroke:#e377c2;stroke-linecap:square;stroke-opacity:0.7;stroke-width:1.5;"/>
   </g>
   <g id="line2d_54">
    <path clip-path="url(#p02f74117c8)" d="M 160.895455 433.570909 
" style="fill:none;stroke:#7f7f7f;stroke-linecap:square;stroke-opacity:0.7;stroke-width:1.5;"/>
   </g>
   <g id="line2d_55">
    <path clip-path="url(#p02f74117c8)" d="M 275.031818 433.570909 
" style="fill:none;stroke:#bcbd22;stroke-linecap:square;stroke-opacity:0.7;stroke-width:1.5;"/>
   </g>
   <g id="line2d_56">
    <path clip-path="url(#p02f74117c8)" d="M 332.1 433.570909 
" style="fill:none;stroke:#17becf;stroke-linecap:square;stroke-opacity:0.7;stroke-width:1.5;"/>
   </g>
   <g id="line2d_57">
    <path clip-path="url(#p02f74117c8)" d="M 389.168182 433.570909 
" style="fill:none;stroke:#1f77b4;stroke-linecap:square;stroke-opacity:0.7;stroke-width:1.5;"/>
   </g>
   <g id="line2d_58">
    <path clip-path="url(#p02f74117c8)" d="M 446.236364 433.570909 
" style="fill:none;stroke:#ff7f0e;stroke-linecap:square;stroke-opacity:0.7;stroke-width:1.5;"/>
   </g>
   <g id="line2d_59">
    <path clip-path="url(#p02f74117c8)" d="M 503.304545 433.570909 
" style="fill:none;stroke:#2ca02c;stroke-linecap:square;stroke-opacity:0.7;stroke-width:1.5;"/>
   </g>
   <g id="line2d_60">
    <path clip-path="url(#p02f74117c8)" d="M 560.372727 433.570909 
" style="fill:none;stroke:#d62728;stroke-linecap:square;stroke-opacity:0.7;stroke-width:1.5;"/>
   </g>
   <g id="line2d_61">
    <path clip-path="url(#p02f74117c8)" d="M 103.827273 377.975455 
" style="fill:none;stroke:#9467bd;stroke-linecap:square;stroke-opacity:0.7;stroke-width:1.5;"/>
   </g>
   <g id="line2d_62">
    <path clip-path="url(#p02f74117c8)" d="M 160.895455 377.975455 
" style="fill:none;stroke:#8c564b;stroke-linecap:square;stroke-opacity:0.7;stroke-width:1.5;"/>
   </g>
   <g id="line2d_63">
    <path clip-path="url(#p02f74117c8)" d="M 217.963636 377.975455 
" style="fill:none;stroke:#e377c2;stroke-linecap:square;stroke-opacity:0.7;stroke-width:1.5;"/>
   </g>
   <g id="line2d_64">
    <path clip-path="url(#p02f74117c8)" d="M 332.1 377.975455 
" style="fill:none;stroke:#7f7f7f;stroke-linecap:square;stroke-opacity:0.7;stroke-width:1.5;"/>
   </g>
   <g id="line2d_65">
    <path clip-path="url(#p02f74117c8)" d="M 389.168182 377.975455 
" style="fill:none;stroke:#bcbd22;stroke-linecap:square;stroke-opacity:0.7;stroke-width:1.5;"/>
   </g>
   <g id="line2d_66">
    <path clip-path="url(#p02f74117c8)" d="M 446.236364 377.975455 
" style="fill:none;stroke:#17becf;stroke-linecap:square;stroke-opacity:0.7;stroke-width:1.5;"/>
   </g>
   <g id="line2d_67">
    <path clip-path="url(#p02f74117c8)" d="M 503.304545 377.975455 
" style="fill:none;stroke:#1f77b4;stroke-linecap:square;stroke-opacity:0.7;stroke-width:1.5;"/>
   </g>
   <g id="line2d_68">
    <path clip-path="url(#p02f74117c8)" d="M 560.372727 377.975455 
" style="fill:none;stroke:#ff7f0e;stroke-linecap:square;stroke-opacity:0.7;stroke-width:1.5;"/>
   </g>
   <g id="line2d_69">
    <path clip-path="url(#p02f74117c8)" d="M 103.827273 322.38 
" style="fill:none;stroke:#2ca02c;stroke-linecap:square;stroke-opacity:0.7;stroke-width:1.5;"/>
    <defs>
     <path d="M 0 41 
C 10.873327 41 21.302775 36.679981 28.991378 28.991378 
C 36.679981 21.302775 41 10.873327 41 0 
C 41 -10.873327 36.679981 -21.302775 28.991378 -28.991378 
C 21.302775 -36.679981 10.873327 -41 0 -41 
C -10.873327 -41 -21.302775 -36.679981 -28.991378 -28.991378 
C -36.679981 -21.302775 -41 -10.873327 -41 0 
C -41 10.873327 -36.679981 21.302775 -28.991378 28.991378 
C -21.302775 36.679981 -10.873327 41 0 41 
z
" id="m5e5a903598" style="stroke:#2ca02c;stroke-opacity:0.7;"/>
    </defs>
    <g clip-path="url(#p02f74117c8)">
     <use style="fill:#2ca02c;fill-opacity:0.7;stroke:#2ca02c;stroke-opacity:0.7;" x="103.827273" xlink:href="#m5e5a903598" y="322.38"/>
    </g>
   </g>
   <g id="line2d_70">
    <path clip-path="url(#p02f74117c8)" d="M 160.895455 322.38 
" style="fill:none;stroke:#d62728;stroke-linecap:square;stroke-opacity:0.7;stroke-width:1.5;"/>
    <defs>
     <path d="M 0 23.5 
C 6.232273 23.5 12.210127 21.023892 16.617009 16.617009 
C 21.023892 12.210127 23.5 6.232273 23.5 0 
C 23.5 -6.232273 21.023892 -12.210127 16.617009 -16.617009 
C 12.210127 -21.023892 6.232273 -23.5 0 -23.5 
C -6.232273 -23.5 -12.210127 -21.023892 -16.617009 -16.617009 
C -21.023892 -12.210127 -23.5 -6.232273 -23.5 0 
C -23.5 6.232273 -21.023892 12.210127 -16.617009 16.617009 
C -12.210127 21.023892 -6.232273 23.5 0 23.5 
z
" id="m19b9dcb233" style="stroke:#d62728;stroke-opacity:0.7;"/>
    </defs>
    <g clip-path="url(#p02f74117c8)">
     <use style="fill:#d62728;fill-opacity:0.7;stroke:#d62728;stroke-opacity:0.7;" x="160.895455" xlink:href="#m19b9dcb233" y="322.38"/>
    </g>
   </g>
   <g id="line2d_71">
    <path clip-path="url(#p02f74117c8)" d="M 217.963636 322.38 
" style="fill:none;stroke:#9467bd;stroke-linecap:square;stroke-opacity:0.7;stroke-width:1.5;"/>
   </g>
   <g id="line2d_72">
    <path clip-path="url(#p02f74117c8)" d="M 275.031818 322.38 
" style="fill:none;stroke:#8c564b;stroke-linecap:square;stroke-opacity:0.7;stroke-width:1.5;"/>
   </g>
   <g id="line2d_73">
    <path clip-path="url(#p02f74117c8)" d="M 389.168182 322.38 
" style="fill:none;stroke:#e377c2;stroke-linecap:square;stroke-opacity:0.7;stroke-width:1.5;"/>
   </g>
   <g id="line2d_74">
    <path clip-path="url(#p02f74117c8)" d="M 446.236364 322.38 
" style="fill:none;stroke:#7f7f7f;stroke-linecap:square;stroke-opacity:0.7;stroke-width:1.5;"/>
    <defs>
     <path d="M 0 17.5 
C 4.641054 17.5 9.092648 15.65609 12.374369 12.374369 
C 15.65609 9.092648 17.5 4.641054 17.5 0 
C 17.5 -4.641054 15.65609 -9.092648 12.374369 -12.374369 
C 9.092648 -15.65609 4.641054 -17.5 0 -17.5 
C -4.641054 -17.5 -9.092648 -15.65609 -12.374369 -12.374369 
C -15.65609 -9.092648 -17.5 -4.641054 -17.5 0 
C -17.5 4.641054 -15.65609 9.092648 -12.374369 12.374369 
C -9.092648 15.65609 -4.641054 17.5 0 17.5 
z
" id="mf1197006ba" style="stroke:#7f7f7f;stroke-opacity:0.7;"/>
    </defs>
    <g clip-path="url(#p02f74117c8)">
     <use style="fill:#7f7f7f;fill-opacity:0.7;stroke:#7f7f7f;stroke-opacity:0.7;" x="446.236364" xlink:href="#mf1197006ba" y="322.38"/>
    </g>
   </g>
   <g id="line2d_75">
    <path clip-path="url(#p02f74117c8)" d="M 503.304545 322.38 
" style="fill:none;stroke:#bcbd22;stroke-linecap:square;stroke-opacity:0.7;stroke-width:1.5;"/>
   </g>
   <g id="line2d_76">
    <path clip-path="url(#p02f74117c8)" d="M 560.372727 322.38 
" style="fill:none;stroke:#17becf;stroke-linecap:square;stroke-opacity:0.7;stroke-width:1.5;"/>
    <defs>
     <path d="M 0 5 
C 1.326016 5 2.597899 4.473168 3.535534 3.535534 
C 4.473168 2.597899 5 1.326016 5 0 
C 5 -1.326016 4.473168 -2.597899 3.535534 -3.535534 
C 2.597899 -4.473168 1.326016 -5 0 -5 
C -1.326016 -5 -2.597899 -4.473168 -3.535534 -3.535534 
C -4.473168 -2.597899 -5 -1.326016 -5 0 
C -5 1.326016 -4.473168 2.597899 -3.535534 3.535534 
C -2.597899 4.473168 -1.326016 5 0 5 
z
" id="m6be097bb6e" style="stroke:#17becf;stroke-opacity:0.7;"/>
    </defs>
    <g clip-path="url(#p02f74117c8)">
     <use style="fill:#17becf;fill-opacity:0.7;stroke:#17becf;stroke-opacity:0.7;" x="560.372727" xlink:href="#m6be097bb6e" y="322.38"/>
    </g>
   </g>
   <g id="line2d_77">
    <path clip-path="url(#p02f74117c8)" d="M 103.827273 266.784545 
" style="fill:none;stroke:#1f77b4;stroke-linecap:square;stroke-opacity:0.7;stroke-width:1.5;"/>
   </g>
   <g id="line2d_78">
    <path clip-path="url(#p02f74117c8)" d="M 160.895455 266.784545 
" style="fill:none;stroke:#ff7f0e;stroke-linecap:square;stroke-opacity:0.7;stroke-width:1.5;"/>
    <defs>
     <path d="M 0 76 
C 20.155436 76 39.48807 67.992161 53.740115 53.740115 
C 67.992161 39.48807 76 20.155436 76 0 
C 76 -20.155436 67.992161 -39.48807 53.740115 -53.740115 
C 39.48807 -67.992161 20.155436 -76 0 -76 
C -20.155436 -76 -39.48807 -67.992161 -53.740115 -53.740115 
C -67.992161 -39.48807 -76 -20.155436 -76 0 
C -76 20.155436 -67.992161 39.48807 -53.740115 53.740115 
C -39.48807 67.992161 -20.155436 76 0 76 
z
" id="m3503fec3c6" style="stroke:#ff7f0e;stroke-opacity:0.7;"/>
    </defs>
    <g clip-path="url(#p02f74117c8)">
     <use style="fill:#ff7f0e;fill-opacity:0.7;stroke:#ff7f0e;stroke-opacity:0.7;" x="160.895455" xlink:href="#m3503fec3c6" y="266.784545"/>
    </g>
   </g>
   <g id="line2d_79">
    <path clip-path="url(#p02f74117c8)" d="M 217.963636 266.784545 
" style="fill:none;stroke:#2ca02c;stroke-linecap:square;stroke-opacity:0.7;stroke-width:1.5;"/>
   </g>
   <g id="line2d_80">
    <path clip-path="url(#p02f74117c8)" d="M 275.031818 266.784545 
" style="fill:none;stroke:#d62728;stroke-linecap:square;stroke-opacity:0.7;stroke-width:1.5;"/>
    <defs>
     <path d="M 0 41.5 
C 11.005929 41.5 21.562565 37.127298 29.344931 29.344931 
C 37.127298 21.562565 41.5 11.005929 41.5 0 
C 41.5 -11.005929 37.127298 -21.562565 29.344931 -29.344931 
C 21.562565 -37.127298 11.005929 -41.5 0 -41.5 
C -11.005929 -41.5 -21.562565 -37.127298 -29.344931 -29.344931 
C -37.127298 -21.562565 -41.5 -11.005929 -41.5 0 
C -41.5 11.005929 -37.127298 21.562565 -29.344931 29.344931 
C -21.562565 37.127298 -11.005929 41.5 0 41.5 
z
" id="m632c6f1298" style="stroke:#d62728;stroke-opacity:0.7;"/>
    </defs>
    <g clip-path="url(#p02f74117c8)">
     <use style="fill:#d62728;fill-opacity:0.7;stroke:#d62728;stroke-opacity:0.7;" x="275.031818" xlink:href="#m632c6f1298" y="266.784545"/>
    </g>
   </g>
   <g id="line2d_81">
    <path clip-path="url(#p02f74117c8)" d="M 332.1 266.784545 
" style="fill:none;stroke:#9467bd;stroke-linecap:square;stroke-opacity:0.7;stroke-width:1.5;"/>
   </g>
   <g id="line2d_82">
    <path clip-path="url(#p02f74117c8)" d="M 446.236364 266.784545 
" style="fill:none;stroke:#8c564b;stroke-linecap:square;stroke-opacity:0.7;stroke-width:1.5;"/>
   </g>
   <g id="line2d_83">
    <path clip-path="url(#p02f74117c8)" d="M 503.304545 266.784545 
" style="fill:none;stroke:#e377c2;stroke-linecap:square;stroke-opacity:0.7;stroke-width:1.5;"/>
   </g>
   <g id="line2d_84">
    <path clip-path="url(#p02f74117c8)" d="M 560.372727 266.784545 
" style="fill:none;stroke:#7f7f7f;stroke-linecap:square;stroke-opacity:0.7;stroke-width:1.5;"/>
   </g>
   <g id="line2d_85">
    <path clip-path="url(#p02f74117c8)" d="M 103.827273 211.189091 
" style="fill:none;stroke:#bcbd22;stroke-linecap:square;stroke-opacity:0.7;stroke-width:1.5;"/>
   </g>
   <g id="line2d_86">
    <path clip-path="url(#p02f74117c8)" d="M 160.895455 211.189091 
" style="fill:none;stroke:#17becf;stroke-linecap:square;stroke-opacity:0.7;stroke-width:1.5;"/>
   </g>
   <g id="line2d_87">
    <path clip-path="url(#p02f74117c8)" d="M 217.963636 211.189091 
" style="fill:none;stroke:#1f77b4;stroke-linecap:square;stroke-opacity:0.7;stroke-width:1.5;"/>
    <defs>
     <path d="M 0 45 
C 11.93414 45 23.381094 40.258516 31.819805 31.819805 
C 40.258516 23.381094 45 11.93414 45 0 
C 45 -11.93414 40.258516 -23.381094 31.819805 -31.819805 
C 23.381094 -40.258516 11.93414 -45 0 -45 
C -11.93414 -45 -23.381094 -40.258516 -31.819805 -31.819805 
C -40.258516 -23.381094 -45 -11.93414 -45 0 
C -45 11.93414 -40.258516 23.381094 -31.819805 31.819805 
C -23.381094 40.258516 -11.93414 45 0 45 
z
" id="m812848f3a5" style="stroke:#1f77b4;stroke-opacity:0.7;"/>
    </defs>
    <g clip-path="url(#p02f74117c8)">
     <use style="fill:#1f77b4;fill-opacity:0.7;stroke:#1f77b4;stroke-opacity:0.7;" x="217.963636" xlink:href="#m812848f3a5" y="211.189091"/>
    </g>
   </g>
   <g id="line2d_88">
    <path clip-path="url(#p02f74117c8)" d="M 275.031818 211.189091 
" style="fill:none;stroke:#ff7f0e;stroke-linecap:square;stroke-opacity:0.7;stroke-width:1.5;"/>
   </g>
   <g id="line2d_89">
    <path clip-path="url(#p02f74117c8)" d="M 332.1 211.189091 
" style="fill:none;stroke:#2ca02c;stroke-linecap:square;stroke-opacity:0.7;stroke-width:1.5;"/>
   </g>
   <g id="line2d_90">
    <path clip-path="url(#p02f74117c8)" d="M 389.168182 211.189091 
" style="fill:none;stroke:#d62728;stroke-linecap:square;stroke-opacity:0.7;stroke-width:1.5;"/>
   </g>
   <g id="line2d_91">
    <path clip-path="url(#p02f74117c8)" d="M 503.304545 211.189091 
" style="fill:none;stroke:#9467bd;stroke-linecap:square;stroke-opacity:0.7;stroke-width:1.5;"/>
   </g>
   <g id="line2d_92">
    <path clip-path="url(#p02f74117c8)" d="M 560.372727 211.189091 
" style="fill:none;stroke:#8c564b;stroke-linecap:square;stroke-opacity:0.7;stroke-width:1.5;"/>
    <defs>
     <path d="M 0 5 
C 1.326016 5 2.597899 4.473168 3.535534 3.535534 
C 4.473168 2.597899 5 1.326016 5 0 
C 5 -1.326016 4.473168 -2.597899 3.535534 -3.535534 
C 2.597899 -4.473168 1.326016 -5 0 -5 
C -1.326016 -5 -2.597899 -4.473168 -3.535534 -3.535534 
C -4.473168 -2.597899 -5 -1.326016 -5 0 
C -5 1.326016 -4.473168 2.597899 -3.535534 3.535534 
C -2.597899 4.473168 -1.326016 5 0 5 
z
" id="m6dfa435619" style="stroke:#8c564b;stroke-opacity:0.7;"/>
    </defs>
    <g clip-path="url(#p02f74117c8)">
     <use style="fill:#8c564b;fill-opacity:0.7;stroke:#8c564b;stroke-opacity:0.7;" x="560.372727" xlink:href="#m6dfa435619" y="211.189091"/>
    </g>
   </g>
   <g id="line2d_93">
    <path clip-path="url(#p02f74117c8)" d="M 103.827273 155.593636 
" style="fill:none;stroke:#e377c2;stroke-linecap:square;stroke-opacity:0.7;stroke-width:1.5;"/>
   </g>
   <g id="line2d_94">
    <path clip-path="url(#p02f74117c8)" d="M 160.895455 155.593636 
" style="fill:none;stroke:#7f7f7f;stroke-linecap:square;stroke-opacity:0.7;stroke-width:1.5;"/>
    <defs>
     <path d="M 0 31 
C 8.221296 31 16.106976 27.733644 21.92031 21.92031 
C 27.733644 16.106976 31 8.221296 31 0 
C 31 -8.221296 27.733644 -16.106976 21.92031 -21.92031 
C 16.106976 -27.733644 8.221296 -31 0 -31 
C -8.221296 -31 -16.106976 -27.733644 -21.92031 -21.92031 
C -27.733644 -16.106976 -31 -8.221296 -31 0 
C -31 8.221296 -27.733644 16.106976 -21.92031 21.92031 
C -16.106976 27.733644 -8.221296 31 0 31 
z
" id="me13057f787" style="stroke:#7f7f7f;stroke-opacity:0.7;"/>
    </defs>
    <g clip-path="url(#p02f74117c8)">
     <use style="fill:#7f7f7f;fill-opacity:0.7;stroke:#7f7f7f;stroke-opacity:0.7;" x="160.895455" xlink:href="#me13057f787" y="155.593636"/>
    </g>
   </g>
   <g id="line2d_95">
    <path clip-path="url(#p02f74117c8)" d="M 217.963636 155.593636 
" style="fill:none;stroke:#bcbd22;stroke-linecap:square;stroke-opacity:0.7;stroke-width:1.5;"/>
    <defs>
     <path d="M 0 31 
C 8.221296 31 16.106976 27.733644 21.92031 21.92031 
C 27.733644 16.106976 31 8.221296 31 0 
C 31 -8.221296 27.733644 -16.106976 21.92031 -21.92031 
C 16.106976 -27.733644 8.221296 -31 0 -31 
C -8.221296 -31 -16.106976 -27.733644 -21.92031 -21.92031 
C -27.733644 -16.106976 -31 -8.221296 -31 0 
C -31 8.221296 -27.733644 16.106976 -21.92031 21.92031 
C -16.106976 27.733644 -8.221296 31 0 31 
z
" id="m6079b3acc4" style="stroke:#bcbd22;stroke-opacity:0.7;"/>
    </defs>
    <g clip-path="url(#p02f74117c8)">
     <use style="fill:#bcbd22;fill-opacity:0.7;stroke:#bcbd22;stroke-opacity:0.7;" x="217.963636" xlink:href="#m6079b3acc4" y="155.593636"/>
    </g>
   </g>
   <g id="line2d_96">
    <path clip-path="url(#p02f74117c8)" d="M 275.031818 155.593636 
" style="fill:none;stroke:#17becf;stroke-linecap:square;stroke-opacity:0.7;stroke-width:1.5;"/>
   </g>
   <g id="line2d_97">
    <path clip-path="url(#p02f74117c8)" d="M 332.1 155.593636 
" style="fill:none;stroke:#1f77b4;stroke-linecap:square;stroke-opacity:0.7;stroke-width:1.5;"/>
   </g>
   <g id="line2d_98">
    <path clip-path="url(#p02f74117c8)" d="M 389.168182 155.593636 
" style="fill:none;stroke:#ff7f0e;stroke-linecap:square;stroke-opacity:0.7;stroke-width:1.5;"/>
   </g>
   <g id="line2d_99">
    <path clip-path="url(#p02f74117c8)" d="M 446.236364 155.593636 
" style="fill:none;stroke:#2ca02c;stroke-linecap:square;stroke-opacity:0.7;stroke-width:1.5;"/>
   </g>
   <g id="line2d_100">
    <path clip-path="url(#p02f74117c8)" d="M 560.372727 155.593636 
" style="fill:none;stroke:#d62728;stroke-linecap:square;stroke-opacity:0.7;stroke-width:1.5;"/>
   </g>
   <g id="line2d_101">
    <path clip-path="url(#p02f74117c8)" d="M 103.827273 99.998182 
" style="fill:none;stroke:#9467bd;stroke-linecap:square;stroke-opacity:0.7;stroke-width:1.5;"/>
   </g>
   <g id="line2d_102">
    <path clip-path="url(#p02f74117c8)" d="M 160.895455 99.998182 
" style="fill:none;stroke:#8c564b;stroke-linecap:square;stroke-opacity:0.7;stroke-width:1.5;"/>
   </g>
   <g id="line2d_103">
    <path clip-path="url(#p02f74117c8)" d="M 217.963636 99.998182 
" style="fill:none;stroke:#e377c2;stroke-linecap:square;stroke-opacity:0.7;stroke-width:1.5;"/>
   </g>
   <g id="line2d_104">
    <path clip-path="url(#p02f74117c8)" d="M 275.031818 99.998182 
" style="fill:none;stroke:#7f7f7f;stroke-linecap:square;stroke-opacity:0.7;stroke-width:1.5;"/>
   </g>
   <g id="line2d_105">
    <path clip-path="url(#p02f74117c8)" d="M 332.1 99.998182 
" style="fill:none;stroke:#bcbd22;stroke-linecap:square;stroke-opacity:0.7;stroke-width:1.5;"/>
   </g>
   <g id="line2d_106">
    <path clip-path="url(#p02f74117c8)" d="M 389.168182 99.998182 
" style="fill:none;stroke:#17becf;stroke-linecap:square;stroke-opacity:0.7;stroke-width:1.5;"/>
   </g>
   <g id="line2d_107">
    <path clip-path="url(#p02f74117c8)" d="M 446.236364 99.998182 
" style="fill:none;stroke:#1f77b4;stroke-linecap:square;stroke-opacity:0.7;stroke-width:1.5;"/>
   </g>
   <g id="line2d_108">
    <path clip-path="url(#p02f74117c8)" d="M 503.304545 99.998182 
" style="fill:none;stroke:#ff7f0e;stroke-linecap:square;stroke-opacity:0.7;stroke-width:1.5;"/>
   </g>
   <g id="line2d_109">
    <path clip-path="url(#p02f74117c8)" d="M 103.827273 544.761818 
L 560.372727 99.998182 
" style="fill:none;stroke:#2ca02c;stroke-linecap:square;stroke-width:1.5;"/>
   </g>
   <g id="patch_3">
    <path d="M 81 567 
L 81 77.76 
" style="fill:none;stroke:#000000;stroke-linecap:square;stroke-linejoin:miter;stroke-width:0.8;"/>
   </g>
   <g id="patch_4">
    <path d="M 583.2 567 
L 583.2 77.76 
" style="fill:none;stroke:#000000;stroke-linecap:square;stroke-linejoin:miter;stroke-width:0.8;"/>
   </g>
   <g id="patch_5">
    <path d="M 81 567 
L 583.2 567 
" style="fill:none;stroke:#000000;stroke-linecap:square;stroke-linejoin:miter;stroke-width:0.8;"/>
   </g>
   <g id="patch_6">
    <path d="M 81 77.76 
L 583.2 77.76 
" style="fill:none;stroke:#000000;stroke-linecap:square;stroke-linejoin:miter;stroke-width:0.8;"/>
   </g>
  </g>
 </g>
 <defs>
  <clipPath id="p02f74117c8">
   <rect height="489.24" width="502.2" x="81" y="77.76"/>
  </clipPath>
 </defs>
</svg>
