<?xml version="1.0" encoding="utf-8" standalone="no"?>
<!DOCTYPE svg PUBLIC "-//W3C//DTD SVG 1.1//EN"
  "http://www.w3.org/Graphics/SVG/1.1/DTD/svg11.dtd">
<!-- Created with matplotlib (https://matplotlib.org/) -->
<svg height="720pt" version="1.1" viewBox="0 0 720 720" width="720pt" xmlns="http://www.w3.org/2000/svg" xmlns:xlink="http://www.w3.org/1999/xlink">
 <metadata>
  <rdf:RDF xmlns:cc="http://creativecommons.org/ns#" xmlns:dc="http://purl.org/dc/elements/1.1/" xmlns:rdf="http://www.w3.org/1999/02/22-rdf-syntax-ns#">
   <cc:Work>
    <dc:type rdf:resource="http://purl.org/dc/dcmitype/StillImage"/>
    <dc:date>2021-07-26T16:50:21.991122</dc:date>
    <dc:format>image/svg+xml</dc:format>
    <dc:creator>
     <cc:Agent>
      <dc:title>Matplotlib v3.3.4, https://matplotlib.org/</dc:title>
     </cc:Agent>
    </dc:creator>
   </cc:Work>
  </rdf:RDF>
 </metadata>
 <defs>
  <style type="text/css">*{stroke-linecap:butt;stroke-linejoin:round;}</style>
 </defs>
 <g id="figure_1">
  <g id="patch_1">
   <path d="M 0 720 
L 720 720 
L 720 0 
L 0 0 
z
" style="fill:none;"/>
  </g>
  <g id="axes_1">
   <g id="patch_2">
    <path d="M 90 630 
L 648 630 
L 648 86.4 
L 90 86.4 
z
" style="fill:#ffffff;"/>
   </g>
   <g id="matplotlib.axis_1">
    <g id="xtick_1">
     <g id="line2d_1">
      <defs>
       <path d="M 0 0 
L 0 3.5 
" id="m5234db563b" style="stroke:#000000;stroke-width:0.8;"/>
      </defs>
      <g>
       <use style="stroke:#000000;stroke-width:0.8;" x="90" xlink:href="#m5234db563b" y="630"/>
      </g>
     </g>
     <g id="text_1">
      <!-- −400 -->
      <g transform="translate(76.266406 644.598438)scale(0.1 -0.1)">
       <defs>
        <path d="M 10.59375 35.5 
L 73.1875 35.5 
L 73.1875 27.203125 
L 10.59375 27.203125 
z
" id="DejaVuSans-8722"/>
        <path d="M 37.796875 64.3125 
L 12.890625 25.390625 
L 37.796875 25.390625 
z
M 35.203125 72.90625 
L 47.609375 72.90625 
L 47.609375 25.390625 
L 58.015625 25.390625 
L 58.015625 17.1875 
L 47.609375 17.1875 
L 47.609375 0 
L 37.796875 0 
L 37.796875 17.1875 
L 4.890625 17.1875 
L 4.890625 26.703125 
z
" id="DejaVuSans-52"/>
        <path d="M 31.78125 66.40625 
Q 24.171875 66.40625 20.328125 58.90625 
Q 16.5 51.421875 16.5 36.375 
Q 16.5 21.390625 20.328125 13.890625 
Q 24.171875 6.390625 31.78125 6.390625 
Q 39.453125 6.390625 43.28125 13.890625 
Q 47.125 21.390625 47.125 36.375 
Q 47.125 51.421875 43.28125 58.90625 
Q 39.453125 66.40625 31.78125 66.40625 
z
M 31.78125 74.21875 
Q 44.046875 74.21875 50.515625 64.515625 
Q 56.984375 54.828125 56.984375 36.375 
Q 56.984375 17.96875 50.515625 8.265625 
Q 44.046875 -1.421875 31.78125 -1.421875 
Q 19.53125 -1.421875 13.0625 8.265625 
Q 6.59375 17.96875 6.59375 36.375 
Q 6.59375 54.828125 13.0625 64.515625 
Q 19.53125 74.21875 31.78125 74.21875 
z
" id="DejaVuSans-48"/>
       </defs>
       <use xlink:href="#DejaVuSans-8722"/>
       <use x="83.789062" xlink:href="#DejaVuSans-52"/>
       <use x="147.412109" xlink:href="#DejaVuSans-48"/>
       <use x="211.035156" xlink:href="#DejaVuSans-48"/>
      </g>
     </g>
    </g>
    <g id="xtick_2">
     <g id="line2d_2">
      <g>
       <use style="stroke:#000000;stroke-width:0.8;" x="159.75" xlink:href="#m5234db563b" y="630"/>
      </g>
     </g>
     <g id="text_2">
      <!-- −300 -->
      <g transform="translate(146.016406 644.598438)scale(0.1 -0.1)">
       <defs>
        <path d="M 40.578125 39.3125 
Q 47.65625 37.796875 51.625 33 
Q 55.609375 28.21875 55.609375 21.1875 
Q 55.609375 10.40625 48.1875 4.484375 
Q 40.765625 -1.421875 27.09375 -1.421875 
Q 22.515625 -1.421875 17.65625 -0.515625 
Q 12.796875 0.390625 7.625 2.203125 
L 7.625 11.71875 
Q 11.71875 9.328125 16.59375 8.109375 
Q 21.484375 6.890625 26.8125 6.890625 
Q 36.078125 6.890625 40.9375 10.546875 
Q 45.796875 14.203125 45.796875 21.1875 
Q 45.796875 27.640625 41.28125 31.265625 
Q 36.765625 34.90625 28.71875 34.90625 
L 20.21875 34.90625 
L 20.21875 43.015625 
L 29.109375 43.015625 
Q 36.375 43.015625 40.234375 45.921875 
Q 44.09375 48.828125 44.09375 54.296875 
Q 44.09375 59.90625 40.109375 62.90625 
Q 36.140625 65.921875 28.71875 65.921875 
Q 24.65625 65.921875 20.015625 65.03125 
Q 15.375 64.15625 9.8125 62.3125 
L 9.8125 71.09375 
Q 15.4375 72.65625 20.34375 73.4375 
Q 25.25 74.21875 29.59375 74.21875 
Q 40.828125 74.21875 47.359375 69.109375 
Q 53.90625 64.015625 53.90625 55.328125 
Q 53.90625 49.265625 50.4375 45.09375 
Q 46.96875 40.921875 40.578125 39.3125 
z
" id="DejaVuSans-51"/>
       </defs>
       <use xlink:href="#DejaVuSans-8722"/>
       <use x="83.789062" xlink:href="#DejaVuSans-51"/>
       <use x="147.412109" xlink:href="#DejaVuSans-48"/>
       <use x="211.035156" xlink:href="#DejaVuSans-48"/>
      </g>
     </g>
    </g>
    <g id="xtick_3">
     <g id="line2d_3">
      <g>
       <use style="stroke:#000000;stroke-width:0.8;" x="229.5" xlink:href="#m5234db563b" y="630"/>
      </g>
     </g>
     <g id="text_3">
      <!-- −200 -->
      <g transform="translate(215.766406 644.598438)scale(0.1 -0.1)">
       <defs>
        <path d="M 19.1875 8.296875 
L 53.609375 8.296875 
L 53.609375 0 
L 7.328125 0 
L 7.328125 8.296875 
Q 12.9375 14.109375 22.625 23.890625 
Q 32.328125 33.6875 34.8125 36.53125 
Q 39.546875 41.84375 41.421875 45.53125 
Q 43.3125 49.21875 43.3125 52.78125 
Q 43.3125 58.59375 39.234375 62.25 
Q 35.15625 65.921875 28.609375 65.921875 
Q 23.96875 65.921875 18.8125 64.3125 
Q 13.671875 62.703125 7.8125 59.421875 
L 7.8125 69.390625 
Q 13.765625 71.78125 18.9375 73 
Q 24.125 74.21875 28.421875 74.21875 
Q 39.75 74.21875 46.484375 68.546875 
Q 53.21875 62.890625 53.21875 53.421875 
Q 53.21875 48.921875 51.53125 44.890625 
Q 49.859375 40.875 45.40625 35.40625 
Q 44.1875 33.984375 37.640625 27.21875 
Q 31.109375 20.453125 19.1875 8.296875 
z
" id="DejaVuSans-50"/>
       </defs>
       <use xlink:href="#DejaVuSans-8722"/>
       <use x="83.789062" xlink:href="#DejaVuSans-50"/>
       <use x="147.412109" xlink:href="#DejaVuSans-48"/>
       <use x="211.035156" xlink:href="#DejaVuSans-48"/>
      </g>
     </g>
    </g>
    <g id="xtick_4">
     <g id="line2d_4">
      <g>
       <use style="stroke:#000000;stroke-width:0.8;" x="299.25" xlink:href="#m5234db563b" y="630"/>
      </g>
     </g>
     <g id="text_4">
      <!-- −100 -->
      <g transform="translate(285.516406 644.598438)scale(0.1 -0.1)">
       <defs>
        <path d="M 12.40625 8.296875 
L 28.515625 8.296875 
L 28.515625 63.921875 
L 10.984375 60.40625 
L 10.984375 69.390625 
L 28.421875 72.90625 
L 38.28125 72.90625 
L 38.28125 8.296875 
L 54.390625 8.296875 
L 54.390625 0 
L 12.40625 0 
z
" id="DejaVuSans-49"/>
       </defs>
       <use xlink:href="#DejaVuSans-8722"/>
       <use x="83.789062" xlink:href="#DejaVuSans-49"/>
       <use x="147.412109" xlink:href="#DejaVuSans-48"/>
       <use x="211.035156" xlink:href="#DejaVuSans-48"/>
      </g>
     </g>
    </g>
    <g id="xtick_5">
     <g id="line2d_5">
      <g>
       <use style="stroke:#000000;stroke-width:0.8;" x="369" xlink:href="#m5234db563b" y="630"/>
      </g>
     </g>
     <g id="text_5">
      <!-- 0 -->
      <g transform="translate(365.81875 644.598438)scale(0.1 -0.1)">
       <use xlink:href="#DejaVuSans-48"/>
      </g>
     </g>
    </g>
    <g id="xtick_6">
     <g id="line2d_6">
      <g>
       <use style="stroke:#000000;stroke-width:0.8;" x="438.75" xlink:href="#m5234db563b" y="630"/>
      </g>
     </g>
     <g id="text_6">
      <!-- 100 -->
      <g transform="translate(429.20625 644.598438)scale(0.1 -0.1)">
       <use xlink:href="#DejaVuSans-49"/>
       <use x="63.623047" xlink:href="#DejaVuSans-48"/>
       <use x="127.246094" xlink:href="#DejaVuSans-48"/>
      </g>
     </g>
    </g>
    <g id="xtick_7">
     <g id="line2d_7">
      <g>
       <use style="stroke:#000000;stroke-width:0.8;" x="508.5" xlink:href="#m5234db563b" y="630"/>
      </g>
     </g>
     <g id="text_7">
      <!-- 200 -->
      <g transform="translate(498.95625 644.598438)scale(0.1 -0.1)">
       <use xlink:href="#DejaVuSans-50"/>
       <use x="63.623047" xlink:href="#DejaVuSans-48"/>
       <use x="127.246094" xlink:href="#DejaVuSans-48"/>
      </g>
     </g>
    </g>
    <g id="xtick_8">
     <g id="line2d_8">
      <g>
       <use style="stroke:#000000;stroke-width:0.8;" x="578.25" xlink:href="#m5234db563b" y="630"/>
      </g>
     </g>
     <g id="text_8">
      <!-- 300 -->
      <g transform="translate(568.70625 644.598438)scale(0.1 -0.1)">
       <use xlink:href="#DejaVuSans-51"/>
       <use x="63.623047" xlink:href="#DejaVuSans-48"/>
       <use x="127.246094" xlink:href="#DejaVuSans-48"/>
      </g>
     </g>
    </g>
    <g id="xtick_9">
     <g id="line2d_9">
      <g>
       <use style="stroke:#000000;stroke-width:0.8;" x="648" xlink:href="#m5234db563b" y="630"/>
      </g>
     </g>
     <g id="text_9">
      <!-- 400 -->
      <g transform="translate(638.45625 644.598438)scale(0.1 -0.1)">
       <use xlink:href="#DejaVuSans-52"/>
       <use x="63.623047" xlink:href="#DejaVuSans-48"/>
       <use x="127.246094" xlink:href="#DejaVuSans-48"/>
      </g>
     </g>
    </g>
    <g id="text_10">
     <!-- Latent 0 -->
     <g transform="translate(348.214063 658.276562)scale(0.1 -0.1)">
      <defs>
       <path d="M 9.8125 72.90625 
L 19.671875 72.90625 
L 19.671875 8.296875 
L 55.171875 8.296875 
L 55.171875 0 
L 9.8125 0 
z
" id="DejaVuSans-76"/>
       <path d="M 34.28125 27.484375 
Q 23.390625 27.484375 19.1875 25 
Q 14.984375 22.515625 14.984375 16.5 
Q 14.984375 11.71875 18.140625 8.90625 
Q 21.296875 6.109375 26.703125 6.109375 
Q 34.1875 6.109375 38.703125 11.40625 
Q 43.21875 16.703125 43.21875 25.484375 
L 43.21875 27.484375 
z
M 52.203125 31.203125 
L 52.203125 0 
L 43.21875 0 
L 43.21875 8.296875 
Q 40.140625 3.328125 35.546875 0.953125 
Q 30.953125 -1.421875 24.3125 -1.421875 
Q 15.921875 -1.421875 10.953125 3.296875 
Q 6 8.015625 6 15.921875 
Q 6 25.140625 12.171875 29.828125 
Q 18.359375 34.515625 30.609375 34.515625 
L 43.21875 34.515625 
L 43.21875 35.40625 
Q 43.21875 41.609375 39.140625 45 
Q 35.0625 48.390625 27.6875 48.390625 
Q 23 48.390625 18.546875 47.265625 
Q 14.109375 46.140625 10.015625 43.890625 
L 10.015625 52.203125 
Q 14.9375 54.109375 19.578125 55.046875 
Q 24.21875 56 28.609375 56 
Q 40.484375 56 46.34375 49.84375 
Q 52.203125 43.703125 52.203125 31.203125 
z
" id="DejaVuSans-97"/>
       <path d="M 18.3125 70.21875 
L 18.3125 54.6875 
L 36.8125 54.6875 
L 36.8125 47.703125 
L 18.3125 47.703125 
L 18.3125 18.015625 
Q 18.3125 11.328125 20.140625 9.421875 
Q 21.96875 7.515625 27.59375 7.515625 
L 36.8125 7.515625 
L 36.8125 0 
L 27.59375 0 
Q 17.1875 0 13.234375 3.875 
Q 9.28125 7.765625 9.28125 18.015625 
L 9.28125 47.703125 
L 2.6875 47.703125 
L 2.6875 54.6875 
L 9.28125 54.6875 
L 9.28125 70.21875 
z
" id="DejaVuSans-116"/>
       <path d="M 56.203125 29.59375 
L 56.203125 25.203125 
L 14.890625 25.203125 
Q 15.484375 15.921875 20.484375 11.0625 
Q 25.484375 6.203125 34.421875 6.203125 
Q 39.59375 6.203125 44.453125 7.46875 
Q 49.3125 8.734375 54.109375 11.28125 
L 54.109375 2.78125 
Q 49.265625 0.734375 44.1875 -0.34375 
Q 39.109375 -1.421875 33.890625 -1.421875 
Q 20.796875 -1.421875 13.15625 6.1875 
Q 5.515625 13.8125 5.515625 26.8125 
Q 5.515625 40.234375 12.765625 48.109375 
Q 20.015625 56 32.328125 56 
Q 43.359375 56 49.78125 48.890625 
Q 56.203125 41.796875 56.203125 29.59375 
z
M 47.21875 32.234375 
Q 47.125 39.59375 43.09375 43.984375 
Q 39.0625 48.390625 32.421875 48.390625 
Q 24.90625 48.390625 20.390625 44.140625 
Q 15.875 39.890625 15.1875 32.171875 
z
" id="DejaVuSans-101"/>
       <path d="M 54.890625 33.015625 
L 54.890625 0 
L 45.90625 0 
L 45.90625 32.71875 
Q 45.90625 40.484375 42.875 44.328125 
Q 39.84375 48.1875 33.796875 48.1875 
Q 26.515625 48.1875 22.3125 43.546875 
Q 18.109375 38.921875 18.109375 30.90625 
L 18.109375 0 
L 9.078125 0 
L 9.078125 54.6875 
L 18.109375 54.6875 
L 18.109375 46.1875 
Q 21.34375 51.125 25.703125 53.5625 
Q 30.078125 56 35.796875 56 
Q 45.21875 56 50.046875 50.171875 
Q 54.890625 44.34375 54.890625 33.015625 
z
" id="DejaVuSans-110"/>
       <path id="DejaVuSans-32"/>
      </defs>
      <use xlink:href="#DejaVuSans-76"/>
      <use x="55.712891" xlink:href="#DejaVuSans-97"/>
      <use x="116.992188" xlink:href="#DejaVuSans-116"/>
      <use x="156.201172" xlink:href="#DejaVuSans-101"/>
      <use x="217.724609" xlink:href="#DejaVuSans-110"/>
      <use x="281.103516" xlink:href="#DejaVuSans-116"/>
      <use x="320.3125" xlink:href="#DejaVuSans-32"/>
      <use x="352.099609" xlink:href="#DejaVuSans-48"/>
     </g>
    </g>
   </g>
   <g id="matplotlib.axis_2">
    <g id="ytick_1">
     <g id="line2d_10">
      <defs>
       <path d="M 0 0 
L -3.5 0 
" id="m8fa9426397" style="stroke:#000000;stroke-width:0.8;"/>
      </defs>
      <g>
       <use style="stroke:#000000;stroke-width:0.8;" x="90" xlink:href="#m8fa9426397" y="630"/>
      </g>
     </g>
     <g id="text_11">
      <!-- −400 -->
      <g transform="translate(55.532812 633.799219)scale(0.1 -0.1)">
       <use xlink:href="#DejaVuSans-8722"/>
       <use x="83.789062" xlink:href="#DejaVuSans-52"/>
       <use x="147.412109" xlink:href="#DejaVuSans-48"/>
       <use x="211.035156" xlink:href="#DejaVuSans-48"/>
      </g>
     </g>
    </g>
    <g id="ytick_2">
     <g id="line2d_11">
      <g>
       <use style="stroke:#000000;stroke-width:0.8;" x="90" xlink:href="#m8fa9426397" y="562.05"/>
      </g>
     </g>
     <g id="text_12">
      <!-- −300 -->
      <g transform="translate(55.532812 565.849219)scale(0.1 -0.1)">
       <use xlink:href="#DejaVuSans-8722"/>
       <use x="83.789062" xlink:href="#DejaVuSans-51"/>
       <use x="147.412109" xlink:href="#DejaVuSans-48"/>
       <use x="211.035156" xlink:href="#DejaVuSans-48"/>
      </g>
     </g>
    </g>
    <g id="ytick_3">
     <g id="line2d_12">
      <g>
       <use style="stroke:#000000;stroke-width:0.8;" x="90" xlink:href="#m8fa9426397" y="494.1"/>
      </g>
     </g>
     <g id="text_13">
      <!-- −200 -->
      <g transform="translate(55.532812 497.899219)scale(0.1 -0.1)">
       <use xlink:href="#DejaVuSans-8722"/>
       <use x="83.789062" xlink:href="#DejaVuSans-50"/>
       <use x="147.412109" xlink:href="#DejaVuSans-48"/>
       <use x="211.035156" xlink:href="#DejaVuSans-48"/>
      </g>
     </g>
    </g>
    <g id="ytick_4">
     <g id="line2d_13">
      <g>
       <use style="stroke:#000000;stroke-width:0.8;" x="90" xlink:href="#m8fa9426397" y="426.15"/>
      </g>
     </g>
     <g id="text_14">
      <!-- −100 -->
      <g transform="translate(55.532812 429.949219)scale(0.1 -0.1)">
       <use xlink:href="#DejaVuSans-8722"/>
       <use x="83.789062" xlink:href="#DejaVuSans-49"/>
       <use x="147.412109" xlink:href="#DejaVuSans-48"/>
       <use x="211.035156" xlink:href="#DejaVuSans-48"/>
      </g>
     </g>
    </g>
    <g id="ytick_5">
     <g id="line2d_14">
      <g>
       <use style="stroke:#000000;stroke-width:0.8;" x="90" xlink:href="#m8fa9426397" y="358.2"/>
      </g>
     </g>
     <g id="text_15">
      <!-- 0 -->
      <g transform="translate(76.6375 361.999219)scale(0.1 -0.1)">
       <use xlink:href="#DejaVuSans-48"/>
      </g>
     </g>
    </g>
    <g id="ytick_6">
     <g id="line2d_15">
      <g>
       <use style="stroke:#000000;stroke-width:0.8;" x="90" xlink:href="#m8fa9426397" y="290.25"/>
      </g>
     </g>
     <g id="text_16">
      <!-- 100 -->
      <g transform="translate(63.9125 294.049219)scale(0.1 -0.1)">
       <use xlink:href="#DejaVuSans-49"/>
       <use x="63.623047" xlink:href="#DejaVuSans-48"/>
       <use x="127.246094" xlink:href="#DejaVuSans-48"/>
      </g>
     </g>
    </g>
    <g id="ytick_7">
     <g id="line2d_16">
      <g>
       <use style="stroke:#000000;stroke-width:0.8;" x="90" xlink:href="#m8fa9426397" y="222.3"/>
      </g>
     </g>
     <g id="text_17">
      <!-- 200 -->
      <g transform="translate(63.9125 226.099219)scale(0.1 -0.1)">
       <use xlink:href="#DejaVuSans-50"/>
       <use x="63.623047" xlink:href="#DejaVuSans-48"/>
       <use x="127.246094" xlink:href="#DejaVuSans-48"/>
      </g>
     </g>
    </g>
    <g id="ytick_8">
     <g id="line2d_17">
      <g>
       <use style="stroke:#000000;stroke-width:0.8;" x="90" xlink:href="#m8fa9426397" y="154.35"/>
      </g>
     </g>
     <g id="text_18">
      <!-- 300 -->
      <g transform="translate(63.9125 158.149219)scale(0.1 -0.1)">
       <use xlink:href="#DejaVuSans-51"/>
       <use x="63.623047" xlink:href="#DejaVuSans-48"/>
       <use x="127.246094" xlink:href="#DejaVuSans-48"/>
      </g>
     </g>
    </g>
    <g id="ytick_9">
     <g id="line2d_18">
      <g>
       <use style="stroke:#000000;stroke-width:0.8;" x="90" xlink:href="#m8fa9426397" y="86.4"/>
      </g>
     </g>
     <g id="text_19">
      <!-- 400 -->
      <g transform="translate(63.9125 90.199219)scale(0.1 -0.1)">
       <use xlink:href="#DejaVuSans-52"/>
       <use x="63.623047" xlink:href="#DejaVuSans-48"/>
       <use x="127.246094" xlink:href="#DejaVuSans-48"/>
      </g>
     </g>
    </g>
    <g id="text_20">
     <!-- Latent 1 -->
     <g transform="translate(49.453125 378.985937)rotate(-90)scale(0.1 -0.1)">
      <use xlink:href="#DejaVuSans-76"/>
      <use x="55.712891" xlink:href="#DejaVuSans-97"/>
      <use x="116.992188" xlink:href="#DejaVuSans-116"/>
      <use x="156.201172" xlink:href="#DejaVuSans-101"/>
      <use x="217.724609" xlink:href="#DejaVuSans-110"/>
      <use x="281.103516" xlink:href="#DejaVuSans-116"/>
      <use x="320.3125" xlink:href="#DejaVuSans-32"/>
      <use x="352.099609" xlink:href="#DejaVuSans-49"/>
     </g>
    </g>
   </g>
   <g id="line2d_19">
    <path clip-path="url(#p570b66bfc2)" d="M 369 358.2 
L 384.167544 329.586641 
L 401.978355 320.9752 
L 370.537764 500.887524 
L 264.134362 316.501888 
L 357.289252 238.926661 
L 299.152781 459.040326 
L 411.062841 414.669648 
L 408.484957 418.497636 
L 425.541514 276.300897 
" style="fill:none;stroke:#808080;stroke-dasharray:3.2,0.8,0.5,0.8;stroke-dashoffset:0;stroke-width:0.5;"/>
   </g>
   <g id="line2d_20">
    <path clip-path="url(#p570b66bfc2)" d="M 425.541514 276.300897 
" style="fill:none;stroke:#d62728;stroke-linecap:square;stroke-width:1.5;"/>
    <defs>
     <path d="M 0 5 
C 1.326016 5 2.597899 4.473168 3.535534 3.535534 
C 4.473168 2.597899 5 1.326016 5 0 
C 5 -1.326016 4.473168 -2.597899 3.535534 -3.535534 
C 2.597899 -4.473168 1.326016 -5 0 -5 
C -1.326016 -5 -2.597899 -4.473168 -3.535534 -3.535534 
C -4.473168 -2.597899 -5 -1.326016 -5 0 
C -5 1.326016 -4.473168 2.597899 -3.535534 3.535534 
C -2.597899 4.473168 -1.326016 5 0 5 
z
" id="m39fddc780e" style="stroke:#d62728;"/>
    </defs>
    <g clip-path="url(#p570b66bfc2)">
     <use style="fill:#d62728;stroke:#d62728;" x="425.541514" xlink:href="#m39fddc780e" y="276.300897"/>
    </g>
   </g>
   <g id="line2d_21">
    <path clip-path="url(#p570b66bfc2)" d="M 369 358.2 
L 362.988404 328.84837 
L 421.910429 324.898714 
L 372.921128 529.517268 
L 262.468465 298.363377 
L 391.135472 246.199559 
L 234.461503 434.06332 
L 369.46186 420.138463 
L 369.00695 384.704831 
L 406.91953 338.117567 
" style="fill:none;stroke:#808080;stroke-dasharray:3.2,0.8,0.5,0.8;stroke-dashoffset:0;stroke-width:0.5;"/>
   </g>
   <g id="line2d_22">
    <path clip-path="url(#p570b66bfc2)" d="M 406.91953 338.117567 
" style="fill:none;stroke:#d62728;stroke-linecap:square;stroke-width:1.5;"/>
    <g clip-path="url(#p570b66bfc2)">
     <use style="fill:#d62728;stroke:#d62728;" x="406.91953" xlink:href="#m39fddc780e" y="338.117567"/>
    </g>
   </g>
   <g id="line2d_23">
    <path clip-path="url(#p570b66bfc2)" d="M 369 358.2 
L 380.470816 306.108667 
L 410.571004 333.661344 
L 296.021035 361.324318 
L 276.434919 312.982772 
L 376.887561 249.351547 
L 262.487995 442.049762 
L 364.437586 446.520308 
L 387.954247 410.046868 
L 422.245274 309.829094 
" style="fill:none;stroke:#808080;stroke-dasharray:3.2,0.8,0.5,0.8;stroke-dashoffset:0;stroke-width:0.5;"/>
   </g>
   <g id="line2d_24">
    <path clip-path="url(#p570b66bfc2)" d="M 422.245274 309.829094 
" style="fill:none;stroke:#d62728;stroke-linecap:square;stroke-width:1.5;"/>
    <g clip-path="url(#p570b66bfc2)">
     <use style="fill:#d62728;stroke:#d62728;" x="422.245274" xlink:href="#m39fddc780e" y="309.829094"/>
    </g>
   </g>
   <g id="line2d_25">
    <path clip-path="url(#p570b66bfc2)" d="M 369 358.2 
L 452.784463 351.989834 
L 430.391548 330.313104 
L 393.072179 558.183042 
L 247.279736 302.280984 
L 379.375965 227.876139 
L 319.810557 486.616697 
L 400.37177 426.281948 
L 394.815621 407.251583 
L 429.727855 301.225326 
" style="fill:none;stroke:#808080;stroke-dasharray:3.2,0.8,0.5,0.8;stroke-dashoffset:0;stroke-width:0.5;"/>
   </g>
   <g id="line2d_26">
    <path clip-path="url(#p570b66bfc2)" d="M 429.727855 301.225326 
" style="fill:none;stroke:#d62728;stroke-linecap:square;stroke-width:1.5;"/>
    <g clip-path="url(#p570b66bfc2)">
     <use style="fill:#d62728;stroke:#d62728;" x="429.727855" xlink:href="#m39fddc780e" y="301.225326"/>
    </g>
   </g>
   <g id="line2d_27">
    <path clip-path="url(#p570b66bfc2)" d="M 369 358.2 
L 352.121573 290.859488 
L 411.645386 343.320003 
L 298.654928 383.004894 
L 240.861908 353.106709 
L 345.320332 234.723281 
L 312.693276 469.458638 
L 404.508248 417.879973 
L 401.120093 417.58629 
L 420.928724 288.104006 
" style="fill:none;stroke:#808080;stroke-dasharray:3.2,0.8,0.5,0.8;stroke-dashoffset:0;stroke-width:0.5;"/>
   </g>
   <g id="line2d_28">
    <path clip-path="url(#p570b66bfc2)" d="M 420.928724 288.104006 
" style="fill:none;stroke:#d62728;stroke-linecap:square;stroke-width:1.5;"/>
    <g clip-path="url(#p570b66bfc2)">
     <use style="fill:#d62728;stroke:#d62728;" x="420.928724" xlink:href="#m39fddc780e" y="288.104006"/>
    </g>
   </g>
   <g id="line2d_29">
    <path clip-path="url(#p570b66bfc2)" d="M 369 358.2 
L 347.865837 281.917353 
L 411.211748 355.698598 
L 238.704603 426.051687 
L 246.946738 316.826705 
L 366.985744 221.513416 
L 327.716517 471.566596 
L 408.876404 423.212611 
L 394.20646 415.358977 
L 420.757478 296.523234 
" style="fill:none;stroke:#808080;stroke-dasharray:3.2,0.8,0.5,0.8;stroke-dashoffset:0;stroke-width:0.5;"/>
   </g>
   <g id="line2d_30">
    <path clip-path="url(#p570b66bfc2)" d="M 420.757478 296.523234 
" style="fill:none;stroke:#d62728;stroke-linecap:square;stroke-width:1.5;"/>
    <g clip-path="url(#p570b66bfc2)">
     <use style="fill:#d62728;stroke:#d62728;" x="420.757478" xlink:href="#m39fddc780e" y="296.523234"/>
    </g>
   </g>
   <g id="line2d_31">
    <path clip-path="url(#p570b66bfc2)" d="M 369 358.2 
L 436.890348 313.60858 
L 400.202147 308.421975 
L 346.860376 360.209793 
L 469.811611 326.831626 
L 417.364605 257.962334 
L 262.079229 458.008053 
L 367.706426 437.131884 
L 374.925264 374.818316 
L 411.471163 340.475714 
" style="fill:none;stroke:#808080;stroke-dasharray:3.2,0.8,0.5,0.8;stroke-dashoffset:0;stroke-width:0.5;"/>
   </g>
   <g id="line2d_32">
    <path clip-path="url(#p570b66bfc2)" d="M 411.471163 340.475714 
" style="fill:none;stroke:#d62728;stroke-linecap:square;stroke-width:1.5;"/>
    <g clip-path="url(#p570b66bfc2)">
     <use style="fill:#d62728;stroke:#d62728;" x="411.471163" xlink:href="#m39fddc780e" y="340.475714"/>
    </g>
   </g>
   <g id="line2d_33">
    <path clip-path="url(#p570b66bfc2)" d="M 369 358.2 
L 402.291741 380.634983 
L 426.095679 319.781334 
L 409.727373 541.488323 
L 248.708826 343.758401 
L 348.617937 224.140776 
L 315.183292 455.492174 
L 406.118915 409.927679 
L 397.739132 420.975656 
L 419.348317 281.83618 
" style="fill:none;stroke:#808080;stroke-dasharray:3.2,0.8,0.5,0.8;stroke-dashoffset:0;stroke-width:0.5;"/>
   </g>
   <g id="line2d_34">
    <path clip-path="url(#p570b66bfc2)" d="M 419.348317 281.83618 
" style="fill:none;stroke:#d62728;stroke-linecap:square;stroke-width:1.5;"/>
    <g clip-path="url(#p570b66bfc2)">
     <use style="fill:#d62728;stroke:#d62728;" x="419.348317" xlink:href="#m39fddc780e" y="281.83618"/>
    </g>
   </g>
   <g id="line2d_35">
    <path clip-path="url(#p570b66bfc2)" d="M 369 358.2 
L 461.601416 364.971864 
L 402.010918 329.239063 
L 329.979978 313.124585 
L 290.548077 320.493515 
L 387.836423 260.343726 
L 250.795707 430.701507 
L 364.412259 426.376688 
L 404.379489 403.465187 
L 439.707216 293.501187 
" style="fill:none;stroke:#808080;stroke-dasharray:3.2,0.8,0.5,0.8;stroke-dashoffset:0;stroke-width:0.5;"/>
   </g>
   <g id="line2d_36">
    <path clip-path="url(#p570b66bfc2)" d="M 439.707216 293.501187 
" style="fill:none;stroke:#d62728;stroke-linecap:square;stroke-width:1.5;"/>
    <g clip-path="url(#p570b66bfc2)">
     <use style="fill:#d62728;stroke:#d62728;" x="439.707216" xlink:href="#m39fddc780e" y="293.501187"/>
    </g>
   </g>
   <g id="line2d_37">
    <path clip-path="url(#p570b66bfc2)" d="M 369 358.2 
L 271.287185 326.606926 
L 409.810295 371.868479 
L 212.478184 436.188364 
L 286.05377 352.501955 
L 348.293396 278.018637 
L 294.365941 502.264234 
L 387.603453 416.485783 
L 409.092103 409.122411 
L 438.321859 285.482266 
" style="fill:none;stroke:#808080;stroke-dasharray:3.2,0.8,0.5,0.8;stroke-dashoffset:0;stroke-width:0.5;"/>
   </g>
   <g id="line2d_38">
    <path clip-path="url(#p570b66bfc2)" d="M 438.321859 285.482266 
" style="fill:none;stroke:#d62728;stroke-linecap:square;stroke-width:1.5;"/>
    <g clip-path="url(#p570b66bfc2)">
     <use style="fill:#d62728;stroke:#d62728;" x="438.321859" xlink:href="#m39fddc780e" y="285.482266"/>
    </g>
   </g>
   <g id="line2d_39">
    <path clip-path="url(#p570b66bfc2)" d="M 369 358.2 
L 268.561799 317.963296 
L 413.253691 379.487138 
L 188.800019 444.130985 
L 310.121798 385.29141 
L 343.971986 287.631391 
L 280.897606 502.069112 
L 393.805554 418.675479 
L 408.666553 398.044921 
L 436.670123 278.369912 
" style="fill:none;stroke:#808080;stroke-dasharray:3.2,0.8,0.5,0.8;stroke-dashoffset:0;stroke-width:0.5;"/>
   </g>
   <g id="line2d_40">
    <path clip-path="url(#p570b66bfc2)" d="M 436.670123 278.369912 
" style="fill:none;stroke:#d62728;stroke-linecap:square;stroke-width:1.5;"/>
    <g clip-path="url(#p570b66bfc2)">
     <use style="fill:#d62728;stroke:#d62728;" x="436.670123" xlink:href="#m39fddc780e" y="278.369912"/>
    </g>
   </g>
   <g id="line2d_41">
    <path clip-path="url(#p570b66bfc2)" d="M 369 358.2 
L 414.295833 328.932896 
L 359.526334 318.916676 
L 383.213743 345.733264 
L 447.473082 328.631734 
L 427.18025 267.480767 
L 280.035012 432.195229 
L 361.643557 437.553264 
L 398.795434 411.551129 
L 427.813993 294.257392 
" style="fill:none;stroke:#808080;stroke-dasharray:3.2,0.8,0.5,0.8;stroke-dashoffset:0;stroke-width:0.5;"/>
   </g>
   <g id="line2d_42">
    <path clip-path="url(#p570b66bfc2)" d="M 427.813993 294.257392 
" style="fill:none;stroke:#d62728;stroke-linecap:square;stroke-width:1.5;"/>
    <g clip-path="url(#p570b66bfc2)">
     <use style="fill:#d62728;stroke:#d62728;" x="427.813993" xlink:href="#m39fddc780e" y="294.257392"/>
    </g>
   </g>
   <g id="line2d_43">
    <path clip-path="url(#p570b66bfc2)" d="M 369 358.2 
L 372.961627 302.483203 
L 394.464657 323.749038 
L 374.429157 273.017444 
L 512.024165 353.70664 
L 376.657441 264.048513 
L 283.406067 452.692792 
L 388.740338 423.864936 
L 404.988128 412.542581 
L 429.232306 282.665653 
" style="fill:none;stroke:#808080;stroke-dasharray:3.2,0.8,0.5,0.8;stroke-dashoffset:0;stroke-width:0.5;"/>
   </g>
   <g id="line2d_44">
    <path clip-path="url(#p570b66bfc2)" d="M 429.232306 282.665653 
" style="fill:none;stroke:#d62728;stroke-linecap:square;stroke-width:1.5;"/>
    <g clip-path="url(#p570b66bfc2)">
     <use style="fill:#d62728;stroke:#d62728;" x="429.232306" xlink:href="#m39fddc780e" y="282.665653"/>
    </g>
   </g>
   <g id="line2d_45">
    <path clip-path="url(#p570b66bfc2)" d="M 369 358.2 
L 345.735465 370.231497 
L 362.397372 333.708673 
L 352.029312 401.297295 
L 441.099928 398.723718 
L 400.544056 326.062082 
L 236.478991 384.701182 
L 355.693375 411.515622 
L 414.911828 401.043006 
L 447.025027 295.247528 
" style="fill:none;stroke:#808080;stroke-dasharray:3.2,0.8,0.5,0.8;stroke-dashoffset:0;stroke-width:0.5;"/>
   </g>
   <g id="line2d_46">
    <path clip-path="url(#p570b66bfc2)" d="M 447.025027 295.247528 
" style="fill:none;stroke:#d62728;stroke-linecap:square;stroke-width:1.5;"/>
    <g clip-path="url(#p570b66bfc2)">
     <use style="fill:#d62728;stroke:#d62728;" x="447.025027" xlink:href="#m39fddc780e" y="295.247528"/>
    </g>
   </g>
   <g id="line2d_47">
    <path clip-path="url(#p570b66bfc2)" d="M 369 358.2 
L 431.066085 350.067216 
L 406.342975 315.47891 
L 393.914972 519.134716 
L 272.893502 329.653136 
L 362.270679 262.907269 
L 290.361201 489.745502 
L 395.317609 411.574271 
L 413.999398 408.507511 
L 444.185303 281.254635 
" style="fill:none;stroke:#808080;stroke-dasharray:3.2,0.8,0.5,0.8;stroke-dashoffset:0;stroke-width:0.5;"/>
   </g>
   <g id="line2d_48">
    <path clip-path="url(#p570b66bfc2)" d="M 444.185303 281.254635 
" style="fill:none;stroke:#d62728;stroke-linecap:square;stroke-width:1.5;"/>
    <g clip-path="url(#p570b66bfc2)">
     <use style="fill:#d62728;stroke:#d62728;" x="444.185303" xlink:href="#m39fddc780e" y="281.254635"/>
    </g>
   </g>
   <g id="line2d_49">
    <path clip-path="url(#p570b66bfc2)" d="M 369 358.2 
L 420.261264 337.55443 
L 350.022101 324.134412 
L 375.35709 403.803713 
L 450.215656 388.166597 
L 405.038102 309.772815 
L 250.324828 374.045421 
L 343.014251 412.53072 
L 366.40937 378.683087 
L 396.65466 342.705752 
" style="fill:none;stroke:#808080;stroke-dasharray:3.2,0.8,0.5,0.8;stroke-dashoffset:0;stroke-width:0.5;"/>
   </g>
   <g id="line2d_50">
    <path clip-path="url(#p570b66bfc2)" d="M 396.65466 342.705752 
" style="fill:none;stroke:#d62728;stroke-linecap:square;stroke-width:1.5;"/>
    <g clip-path="url(#p570b66bfc2)">
     <use style="fill:#d62728;stroke:#d62728;" x="396.65466" xlink:href="#m39fddc780e" y="342.705752"/>
    </g>
   </g>
   <g id="line2d_51">
    <path clip-path="url(#p570b66bfc2)" d="M 369 358.2 
L 442.738317 356.487106 
L 409.88953 324.386072 
L 392.45 322.879144 
L 478.192627 341.333357 
L 402.83384 259.161372 
L 246.955859 446.257035 
L 370.757791 427.864639 
L 397.918355 402.308032 
L 436.489266 301.88369 
" style="fill:none;stroke:#808080;stroke-dasharray:3.2,0.8,0.5,0.8;stroke-dashoffset:0;stroke-width:0.5;"/>
   </g>
   <g id="line2d_52">
    <path clip-path="url(#p570b66bfc2)" d="M 436.489266 301.88369 
" style="fill:none;stroke:#d62728;stroke-linecap:square;stroke-width:1.5;"/>
    <g clip-path="url(#p570b66bfc2)">
     <use style="fill:#d62728;stroke:#d62728;" x="436.489266" xlink:href="#m39fddc780e" y="301.88369"/>
    </g>
   </g>
   <g id="line2d_53">
    <path clip-path="url(#p570b66bfc2)" d="M 369 358.2 
L 339.922844 291.13131 
L 405.472265 357.660967 
L 222.801654 378.619808 
L 512.212961 366.09371 
L 381.794646 286.266922 
L 260.214777 416.1164 
L 364.821382 413.744895 
L 410.361084 403.432023 
L 446.373319 288.343873 
" style="fill:none;stroke:#808080;stroke-dasharray:3.2,0.8,0.5,0.8;stroke-dashoffset:0;stroke-width:0.5;"/>
   </g>
   <g id="line2d_54">
    <path clip-path="url(#p570b66bfc2)" d="M 446.373319 288.343873 
" style="fill:none;stroke:#d62728;stroke-linecap:square;stroke-width:1.5;"/>
    <g clip-path="url(#p570b66bfc2)">
     <use style="fill:#d62728;stroke:#d62728;" x="446.373319" xlink:href="#m39fddc780e" y="288.343873"/>
    </g>
   </g>
   <g id="line2d_55">
    <path clip-path="url(#p570b66bfc2)" d="M 369 358.2 
L 371.569863 333.237214 
L 362.642336 309.957092 
L 402.957131 380.192988 
L 468.889491 372.64676 
L 393.548294 311.215487 
L 256.027595 386.178816 
L 348.629779 429.129785 
L 373.960252 387.715691 
L 405.288843 329.74756 
" style="fill:none;stroke:#808080;stroke-dasharray:3.2,0.8,0.5,0.8;stroke-dashoffset:0;stroke-width:0.5;"/>
   </g>
   <g id="line2d_56">
    <path clip-path="url(#p570b66bfc2)" d="M 405.288843 329.74756 
" style="fill:none;stroke:#d62728;stroke-linecap:square;stroke-width:1.5;"/>
    <g clip-path="url(#p570b66bfc2)">
     <use style="fill:#d62728;stroke:#d62728;" x="405.288843" xlink:href="#m39fddc780e" y="329.74756"/>
    </g>
   </g>
   <g id="line2d_57">
    <path clip-path="url(#p570b66bfc2)" d="M 369 358.2 
L 446.018231 317.782708 
L 420.961286 314.218674 
L 391.866843 259.219424 
L 499.876154 346.89919 
L 396.516195 294.70194 
L 244.925333 397.359617 
L 350.648882 415.843132 
L 362.444164 381.310675 
L 392.50545 337.352814 
" style="fill:none;stroke:#808080;stroke-dasharray:3.2,0.8,0.5,0.8;stroke-dashoffset:0;stroke-width:0.5;"/>
   </g>
   <g id="line2d_58">
    <path clip-path="url(#p570b66bfc2)" d="M 392.50545 337.352814 
" style="fill:none;stroke:#d62728;stroke-linecap:square;stroke-width:1.5;"/>
    <g clip-path="url(#p570b66bfc2)">
     <use style="fill:#d62728;stroke:#d62728;" x="392.50545" xlink:href="#m39fddc780e" y="337.352814"/>
    </g>
   </g>
   <g id="line2d_59">
    <path clip-path="url(#p570b66bfc2)" d="M 369 358.2 
L 386.957396 346.569834 
L 354.966914 332.721827 
L 378.794245 429.903767 
L 459.799555 399.814123 
L 387.40055 331.252321 
L 244.943192 358.437197 
L 340.483131 406.030243 
L 345.954208 364.062433 
L 344.160886 392.95978 
" style="fill:none;stroke:#808080;stroke-dasharray:3.2,0.8,0.5,0.8;stroke-dashoffset:0;stroke-width:0.5;"/>
   </g>
   <g id="line2d_60">
    <path clip-path="url(#p570b66bfc2)" d="M 344.160886 392.95978 
" style="fill:none;stroke:#d62728;stroke-linecap:square;stroke-width:1.5;"/>
    <g clip-path="url(#p570b66bfc2)">
     <use style="fill:#d62728;stroke:#d62728;" x="344.160886" xlink:href="#m39fddc780e" y="392.95978"/>
    </g>
   </g>
   <g id="line2d_61">
    <path clip-path="url(#p570b66bfc2)" d="M 369 358.2 
L 391.625295 375.383998 
L 339.419587 313.19395 
L 448.053418 374.707361 
L 467.705563 388.227055 
L 419.716273 323.733307 
L 232.207219 369.425969 
L 347.258797 406.170988 
L 361.939732 376.081783 
L 388.856213 343.137349 
" style="fill:none;stroke:#808080;stroke-dasharray:3.2,0.8,0.5,0.8;stroke-dashoffset:0;stroke-width:0.5;"/>
   </g>
   <g id="line2d_62">
    <path clip-path="url(#p570b66bfc2)" d="M 388.856213 343.137349 
" style="fill:none;stroke:#d62728;stroke-linecap:square;stroke-width:1.5;"/>
    <g clip-path="url(#p570b66bfc2)">
     <use style="fill:#d62728;stroke:#d62728;" x="388.856213" xlink:href="#m39fddc780e" y="343.137349"/>
    </g>
   </g>
   <g id="line2d_63">
    <path clip-path="url(#p570b66bfc2)" d="M 369 358.2 
L 307.751287 335.515967 
L 386.648415 326.273682 
L 344.718773 332.434398 
L 492.067051 335.036109 
L 400.90616 273.913643 
L 238.046472 417.432252 
L 360.454868 420.136167 
L 373.792505 382.803238 
L 399.912737 334.430502 
" style="fill:none;stroke:#808080;stroke-dasharray:3.2,0.8,0.5,0.8;stroke-dashoffset:0;stroke-width:0.5;"/>
   </g>
   <g id="line2d_64">
    <path clip-path="url(#p570b66bfc2)" d="M 399.912737 334.430502 
" style="fill:none;stroke:#d62728;stroke-linecap:square;stroke-width:1.5;"/>
    <g clip-path="url(#p570b66bfc2)">
     <use style="fill:#d62728;stroke:#d62728;" x="399.912737" xlink:href="#m39fddc780e" y="334.430502"/>
    </g>
   </g>
   <g id="line2d_65">
    <path clip-path="url(#p570b66bfc2)" d="M 369 358.2 
L 447.503228 334.460236 
L 368.989712 316.629431 
L 410.596279 346.100513 
L 234.484918 372.049402 
L 324.505477 228.689235 
L 342.346557 443.621873 
L 399.383298 385.923776 
L 378.767802 369.043822 
L 419.1048 345.69621 
" style="fill:none;stroke:#808080;stroke-dasharray:3.2,0.8,0.5,0.8;stroke-dashoffset:0;stroke-width:0.5;"/>
   </g>
   <g id="line2d_66">
    <path clip-path="url(#p570b66bfc2)" d="M 419.1048 345.69621 
" style="fill:none;stroke:#d62728;stroke-linecap:square;stroke-width:1.5;"/>
    <g clip-path="url(#p570b66bfc2)">
     <use style="fill:#d62728;stroke:#d62728;" x="419.1048" xlink:href="#m39fddc780e" y="345.69621"/>
    </g>
   </g>
   <g id="line2d_67">
    <path clip-path="url(#p570b66bfc2)" d="M 369 358.2 
L 411.454419 341.782788 
L 345.68315 337.825959 
L 356.976609 444.806415 
L 445.373057 367.074404 
L 347.131797 501.152311 
L 355.917779 270.847048 
L 371.536431 358.231312 
L 369.280632 342.800569 
L 374.012128 396.882131 
" style="fill:none;stroke:#808080;stroke-dasharray:3.2,0.8,0.5,0.8;stroke-dashoffset:0;stroke-width:0.5;"/>
   </g>
   <g id="line2d_68">
    <path clip-path="url(#p570b66bfc2)" d="M 374.012128 396.882131 
" style="fill:none;stroke:#d62728;stroke-linecap:square;stroke-width:1.5;"/>
    <g clip-path="url(#p570b66bfc2)">
     <use style="fill:#d62728;stroke:#d62728;" x="374.012128" xlink:href="#m39fddc780e" y="396.882131"/>
    </g>
   </g>
   <g id="line2d_69">
    <path clip-path="url(#p570b66bfc2)" d="M 369 358.2 
L 356.270672 396.601364 
L 361.282376 325.772043 
L 399.771025 404.250506 
L 481.041472 402.832412 
L 335.544812 496.711849 
L 348.027765 283.285908 
L 378.716626 354.805472 
L 377.117454 333.644353 
L 346.637593 435.20208 
" style="fill:none;stroke:#808080;stroke-dasharray:3.2,0.8,0.5,0.8;stroke-dashoffset:0;stroke-width:0.5;"/>
   </g>
   <g id="line2d_70">
    <path clip-path="url(#p570b66bfc2)" d="M 346.637593 435.20208 
" style="fill:none;stroke:#d62728;stroke-linecap:square;stroke-width:1.5;"/>
    <g clip-path="url(#p570b66bfc2)">
     <use style="fill:#d62728;stroke:#d62728;" x="346.637593" xlink:href="#m39fddc780e" y="435.20208"/>
    </g>
   </g>
   <g id="line2d_71">
    <path clip-path="url(#p570b66bfc2)" d="M 369 358.2 
L 285.3173 367.844726 
L 340.138043 367.60098 
L 185.655288 277.044375 
L 386.746642 290.920127 
L 365.014799 410.308939 
L 383.083075 347.833857 
L 394.089068 309.24983 
L 369.445766 304.84167 
L 320.789069 427.422507 
" style="fill:none;stroke:#808080;stroke-dasharray:3.2,0.8,0.5,0.8;stroke-dashoffset:0;stroke-width:0.5;"/>
   </g>
   <g id="line2d_72">
    <path clip-path="url(#p570b66bfc2)" d="M 320.789069 427.422507 
" style="fill:none;stroke:#d62728;stroke-linecap:square;stroke-width:1.5;"/>
    <g clip-path="url(#p570b66bfc2)">
     <use style="fill:#d62728;stroke:#d62728;" x="320.789069" xlink:href="#m39fddc780e" y="427.422507"/>
    </g>
   </g>
   <g id="line2d_73">
    <path clip-path="url(#p570b66bfc2)" d="M 369 358.2 
L 388.224357 385.56733 
L 324.349485 335.585533 
L 478.441343 262.741002 
L 385.633088 345.00811 
L 376.3725 477.892822 
L 381.680097 301.265073 
L 381.963034 337.748302 
L 370.37421 325.880146 
L 342.24837 427.292566 
" style="fill:none;stroke:#808080;stroke-dasharray:3.2,0.8,0.5,0.8;stroke-dashoffset:0;stroke-width:0.5;"/>
   </g>
   <g id="line2d_74">
    <path clip-path="url(#p570b66bfc2)" d="M 342.24837 427.292566 
" style="fill:none;stroke:#d62728;stroke-linecap:square;stroke-width:1.5;"/>
    <g clip-path="url(#p570b66bfc2)">
     <use style="fill:#d62728;stroke:#d62728;" x="342.24837" xlink:href="#m39fddc780e" y="427.292566"/>
    </g>
   </g>
   <g id="line2d_75">
    <path clip-path="url(#p570b66bfc2)" d="M 369 358.2 
L 313.027009 371.299234 
L 353.877235 349.041901 
L 201.083037 232.195011 
L 363.077698 285.12419 
L 416.371831 498.33323 
L 446.101784 236.545031 
L 396.833747 336.261824 
L 358.404359 307.433882 
L 328.893825 411.817777 
" style="fill:none;stroke:#808080;stroke-dasharray:3.2,0.8,0.5,0.8;stroke-dashoffset:0;stroke-width:0.5;"/>
   </g>
   <g id="line2d_76">
    <path clip-path="url(#p570b66bfc2)" d="M 328.893825 411.817777 
" style="fill:none;stroke:#2ca02c;stroke-linecap:square;stroke-width:1.5;"/>
    <defs>
     <path d="M 0 5 
C 1.326016 5 2.597899 4.473168 3.535534 3.535534 
C 4.473168 2.597899 5 1.326016 5 0 
C 5 -1.326016 4.473168 -2.597899 3.535534 -3.535534 
C 2.597899 -4.473168 1.326016 -5 0 -5 
C -1.326016 -5 -2.597899 -4.473168 -3.535534 -3.535534 
C -4.473168 -2.597899 -5 -1.326016 -5 0 
C -5 1.326016 -4.473168 2.597899 -3.535534 3.535534 
C -2.597899 4.473168 -1.326016 5 0 5 
z
" id="mecac4d91b0" style="stroke:#2ca02c;"/>
    </defs>
    <g clip-path="url(#p570b66bfc2)">
     <use style="fill:#2ca02c;stroke:#2ca02c;" x="328.893825" xlink:href="#mecac4d91b0" y="411.817777"/>
    </g>
   </g>
   <g id="line2d_77">
    <path clip-path="url(#p570b66bfc2)" d="M 369 358.2 
L 358.309269 410.921936 
L 324.840133 345.705882 
L 229.518636 210.5084 
L 355.539816 300.776382 
L 415.936111 480.441113 
L 444.416969 274.612697 
L 357.65476 330.581976 
L 353.377029 316.636783 
L 325.645694 398.230708 
" style="fill:none;stroke:#808080;stroke-dasharray:3.2,0.8,0.5,0.8;stroke-dashoffset:0;stroke-width:0.5;"/>
   </g>
   <g id="line2d_78">
    <path clip-path="url(#p570b66bfc2)" d="M 325.645694 398.230708 
" style="fill:none;stroke:#2ca02c;stroke-linecap:square;stroke-width:1.5;"/>
    <g clip-path="url(#p570b66bfc2)">
     <use style="fill:#2ca02c;stroke:#2ca02c;" x="325.645694" xlink:href="#mecac4d91b0" y="398.230708"/>
    </g>
   </g>
   <g id="line2d_79">
    <path clip-path="url(#p570b66bfc2)" d="M 369 358.2 
L 316.569123 326.935232 
L 330.842532 358.174591 
L 177.369666 249.385451 
L 370.601701 303.002497 
L 427.726039 487.493497 
L 450.120955 261.564962 
L 350.437776 337.151034 
L 337.915972 341.998952 
L 348.937356 371.690281 
" style="fill:none;stroke:#808080;stroke-dasharray:3.2,0.8,0.5,0.8;stroke-dashoffset:0;stroke-width:0.5;"/>
   </g>
   <g id="line2d_80">
    <path clip-path="url(#p570b66bfc2)" d="M 348.937356 371.690281 
" style="fill:none;stroke:#2ca02c;stroke-linecap:square;stroke-width:1.5;"/>
    <g clip-path="url(#p570b66bfc2)">
     <use style="fill:#2ca02c;stroke:#2ca02c;" x="348.937356" xlink:href="#mecac4d91b0" y="371.690281"/>
    </g>
   </g>
   <g id="line2d_81">
    <path clip-path="url(#p570b66bfc2)" d="M 369 358.2 
L 380.859119 412.462771 
L 316.224024 334.681172 
L 491.079327 273.046071 
L 377.927609 396.829185 
L 338.503492 382.737749 
L 468.744948 323.356096 
L 340.756654 309.35833 
L 323.699729 346.964827 
L 347.525611 349.67394 
" style="fill:none;stroke:#808080;stroke-dasharray:3.2,0.8,0.5,0.8;stroke-dashoffset:0;stroke-width:0.5;"/>
   </g>
   <g id="line2d_82">
    <path clip-path="url(#p570b66bfc2)" d="M 347.525611 349.67394 
" style="fill:none;stroke:#2ca02c;stroke-linecap:square;stroke-width:1.5;"/>
    <g clip-path="url(#p570b66bfc2)">
     <use style="fill:#2ca02c;stroke:#2ca02c;" x="347.525611" xlink:href="#mecac4d91b0" y="349.67394"/>
    </g>
   </g>
   <g id="line2d_83">
    <path clip-path="url(#p570b66bfc2)" d="M 369 358.2 
L 343.46673 384.287879 
L 337.528644 349.609551 
L 158.128794 234.911871 
L 356.237338 312.89277 
L 417.175441 466.687739 
L 427.793473 274.692041 
L 349.961397 330.650866 
L 342.907057 341.709649 
L 354.818074 368.930509 
" style="fill:none;stroke:#808080;stroke-dasharray:3.2,0.8,0.5,0.8;stroke-dashoffset:0;stroke-width:0.5;"/>
   </g>
   <g id="line2d_84">
    <path clip-path="url(#p570b66bfc2)" d="M 354.818074 368.930509 
" style="fill:none;stroke:#2ca02c;stroke-linecap:square;stroke-width:1.5;"/>
    <g clip-path="url(#p570b66bfc2)">
     <use style="fill:#2ca02c;stroke:#2ca02c;" x="354.818074" xlink:href="#mecac4d91b0" y="368.930509"/>
    </g>
   </g>
   <g id="line2d_85">
    <path clip-path="url(#p570b66bfc2)" d="M 369 358.2 
L 356.477027 386.461276 
L 339.223439 394.775184 
L 533.03714 241.13009 
L 362.660014 375.991708 
L 366.983243 451.738106 
L 362.796601 338.377483 
L 400.703576 325.102694 
L 379.7133 321.875571 
L 354.167994 420.403846 
" style="fill:none;stroke:#808080;stroke-dasharray:3.2,0.8,0.5,0.8;stroke-dashoffset:0;stroke-width:0.5;"/>
   </g>
   <g id="line2d_86">
    <path clip-path="url(#p570b66bfc2)" d="M 354.167994 420.403846 
" style="fill:none;stroke:#2ca02c;stroke-linecap:square;stroke-width:1.5;"/>
    <g clip-path="url(#p570b66bfc2)">
     <use style="fill:#2ca02c;stroke:#2ca02c;" x="354.167994" xlink:href="#mecac4d91b0" y="420.403846"/>
    </g>
   </g>
   <g id="line2d_87">
    <path clip-path="url(#p570b66bfc2)" d="M 369 358.2 
L 430.847579 331.862923 
L 329.737219 403.24784 
L 530.16322 265.878982 
L 350.915822 410.089881 
L 338.464986 394.724452 
L 457.210564 296.993511 
L 351.854891 318.042987 
L 339.096803 347.248244 
L 343.958461 367.723112 
" style="fill:none;stroke:#808080;stroke-dasharray:3.2,0.8,0.5,0.8;stroke-dashoffset:0;stroke-width:0.5;"/>
   </g>
   <g id="line2d_88">
    <path clip-path="url(#p570b66bfc2)" d="M 343.958461 367.723112 
" style="fill:none;stroke:#2ca02c;stroke-linecap:square;stroke-width:1.5;"/>
    <g clip-path="url(#p570b66bfc2)">
     <use style="fill:#2ca02c;stroke:#2ca02c;" x="343.958461" xlink:href="#mecac4d91b0" y="367.723112"/>
    </g>
   </g>
   <g id="line2d_89">
    <path clip-path="url(#p570b66bfc2)" d="M 369 358.2 
L 401.224399 394.802814 
L 311.431058 333.138033 
L 446.665389 403.176962 
L 410.601385 333.592866 
L 353.625519 481.717373 
L 369.194775 282.027393 
L 372.242571 350.793161 
L 365.216634 345.819802 
L 376.227507 390.645938 
" style="fill:none;stroke:#808080;stroke-dasharray:3.2,0.8,0.5,0.8;stroke-dashoffset:0;stroke-width:0.5;"/>
   </g>
   <g id="line2d_90">
    <path clip-path="url(#p570b66bfc2)" d="M 376.227507 390.645938 
" style="fill:none;stroke:#2ca02c;stroke-linecap:square;stroke-width:1.5;"/>
    <g clip-path="url(#p570b66bfc2)">
     <use style="fill:#2ca02c;stroke:#2ca02c;" x="376.227507" xlink:href="#mecac4d91b0" y="390.645938"/>
    </g>
   </g>
   <g id="line2d_91">
    <path clip-path="url(#p570b66bfc2)" d="M 369 358.2 
L 442.395554 343.410508 
L 331.427251 328.537307 
L 249.571729 290.856559 
L 386.104001 375.298366 
L 427.648265 475.638743 
L 435.96621 258.357524 
L 342.255056 336.811939 
L 329.233946 337.142239 
L 359.456107 354.484663 
" style="fill:none;stroke:#808080;stroke-dasharray:3.2,0.8,0.5,0.8;stroke-dashoffset:0;stroke-width:0.5;"/>
   </g>
   <g id="line2d_92">
    <path clip-path="url(#p570b66bfc2)" d="M 359.456107 354.484663 
" style="fill:none;stroke:#2ca02c;stroke-linecap:square;stroke-width:1.5;"/>
    <g clip-path="url(#p570b66bfc2)">
     <use style="fill:#2ca02c;stroke:#2ca02c;" x="359.456107" xlink:href="#mecac4d91b0" y="354.484663"/>
    </g>
   </g>
   <g id="line2d_93">
    <path clip-path="url(#p570b66bfc2)" d="M 369 358.2 
L 277.970237 346.675011 
L 400.346131 377.326464 
L 291.768276 502.350332 
L 426.365677 249.342485 
L 420.336733 391.474641 
L 424.28523 405.382486 
L 406.034639 300.515872 
L 365.315667 307.63889 
L 324.05362 421.543234 
" style="fill:none;stroke:#808080;stroke-dasharray:3.2,0.8,0.5,0.8;stroke-dashoffset:0;stroke-width:0.5;"/>
   </g>
   <g id="line2d_94">
    <path clip-path="url(#p570b66bfc2)" d="M 324.05362 421.543234 
" style="fill:none;stroke:#2ca02c;stroke-linecap:square;stroke-width:1.5;"/>
    <g clip-path="url(#p570b66bfc2)">
     <use style="fill:#2ca02c;stroke:#2ca02c;" x="324.05362" xlink:href="#mecac4d91b0" y="421.543234"/>
    </g>
   </g>
   <g id="line2d_95">
    <path clip-path="url(#p570b66bfc2)" d="M 369 358.2 
L 321.356006 401.103684 
L 365.661633 416.511346 
L 669.358085 333.559408 
L 272.371729 383.554362 
L 442.505235 407.467944 
L 396.901804 410.70615 
L 412.065415 312.120976 
L 383.848526 327.164276 
L 362.717333 417.096375 
" style="fill:none;stroke:#808080;stroke-dasharray:3.2,0.8,0.5,0.8;stroke-dashoffset:0;stroke-width:0.5;"/>
   </g>
   <g id="line2d_96">
    <path clip-path="url(#p570b66bfc2)" d="M 362.717333 417.096375 
" style="fill:none;stroke:#2ca02c;stroke-linecap:square;stroke-width:1.5;"/>
    <g clip-path="url(#p570b66bfc2)">
     <use style="fill:#2ca02c;stroke:#2ca02c;" x="362.717333" xlink:href="#mecac4d91b0" y="417.096375"/>
    </g>
   </g>
   <g id="line2d_97">
    <path clip-path="url(#p570b66bfc2)" d="M 369 358.2 
L 321.349764 365.823985 
L 359.645348 401.875221 
L 593.294165 347.018781 
L 393.427757 264.532248 
L 387.676547 396.218362 
L 461.673799 392.080485 
L 369.568656 293.979603 
L 345.559656 318.229387 
L 315.774687 385.508814 
" style="fill:none;stroke:#808080;stroke-dasharray:3.2,0.8,0.5,0.8;stroke-dashoffset:0;stroke-width:0.5;"/>
   </g>
   <g id="line2d_98">
    <path clip-path="url(#p570b66bfc2)" d="M 315.774687 385.508814 
" style="fill:none;stroke:#2ca02c;stroke-linecap:square;stroke-width:1.5;"/>
    <g clip-path="url(#p570b66bfc2)">
     <use style="fill:#2ca02c;stroke:#2ca02c;" x="315.774687" xlink:href="#mecac4d91b0" y="385.508814"/>
    </g>
   </g>
   <g id="line2d_99">
    <path clip-path="url(#p570b66bfc2)" d="M 369 358.2 
L 334.640388 369.355346 
L 346.619542 362.928397 
L 204.140624 336.557173 
L 381.917465 362.038827 
L 382.478995 467.844152 
L 411.113784 293.577441 
L 360.957462 343.804234 
L 352.432731 341.384714 
L 357.389169 384.754081 
" style="fill:none;stroke:#808080;stroke-dasharray:3.2,0.8,0.5,0.8;stroke-dashoffset:0;stroke-width:0.5;"/>
   </g>
   <g id="line2d_100">
    <path clip-path="url(#p570b66bfc2)" d="M 357.389169 384.754081 
" style="fill:none;stroke:#2ca02c;stroke-linecap:square;stroke-width:1.5;"/>
    <g clip-path="url(#p570b66bfc2)">
     <use style="fill:#2ca02c;stroke:#2ca02c;" x="357.389169" xlink:href="#mecac4d91b0" y="384.754081"/>
    </g>
   </g>
   <g id="line2d_101">
    <path clip-path="url(#p570b66bfc2)" d="M 369 358.2 
L 367.799971 405.053026 
L 338.989316 405.158379 
L 577.299941 282.411151 
L 340.999432 375.991031 
L 366.580322 366.034959 
L 449.96769 348.39138 
L 365.31533 316.713972 
L 347.912346 344.464292 
L 352.608476 380.507294 
" style="fill:none;stroke:#808080;stroke-dasharray:3.2,0.8,0.5,0.8;stroke-dashoffset:0;stroke-width:0.5;"/>
   </g>
   <g id="line2d_102">
    <path clip-path="url(#p570b66bfc2)" d="M 352.608476 380.507294 
" style="fill:none;stroke:#2ca02c;stroke-linecap:square;stroke-width:1.5;"/>
    <g clip-path="url(#p570b66bfc2)">
     <use style="fill:#2ca02c;stroke:#2ca02c;" x="352.608476" xlink:href="#mecac4d91b0" y="380.507294"/>
    </g>
   </g>
   <g id="line2d_103">
    <path clip-path="url(#p570b66bfc2)" d="M 369 358.2 
L 296.965016 414.155352 
L 375.171037 400.342077 
L 212.849987 250.515279 
L 390.267589 399.150031 
L 353.081766 396.665207 
L 461.911851 270.710653 
L 341.127198 343.789489 
L 332.166376 333.708878 
L 360.642125 360.383423 
" style="fill:none;stroke:#808080;stroke-dasharray:3.2,0.8,0.5,0.8;stroke-dashoffset:0;stroke-width:0.5;"/>
   </g>
   <g id="line2d_104">
    <path clip-path="url(#p570b66bfc2)" d="M 360.642125 360.383423 
" style="fill:none;stroke:#2ca02c;stroke-linecap:square;stroke-width:1.5;"/>
    <g clip-path="url(#p570b66bfc2)">
     <use style="fill:#2ca02c;stroke:#2ca02c;" x="360.642125" xlink:href="#mecac4d91b0" y="360.383423"/>
    </g>
   </g>
   <g id="line2d_105">
    <path clip-path="url(#p570b66bfc2)" d="M 369 358.2 
L 339.461201 333.606843 
L 355.16721 363.827958 
L 229.635879 335.914391 
L 355.532243 422.890943 
L 344.35035 371.270848 
L 455.138052 315.60851 
L 345.028275 317.964753 
L 344.952941 357.108044 
L 343.160246 386.597669 
" style="fill:none;stroke:#808080;stroke-dasharray:3.2,0.8,0.5,0.8;stroke-dashoffset:0;stroke-width:0.5;"/>
   </g>
   <g id="line2d_106">
    <path clip-path="url(#p570b66bfc2)" d="M 343.160246 386.597669 
" style="fill:none;stroke:#2ca02c;stroke-linecap:square;stroke-width:1.5;"/>
    <g clip-path="url(#p570b66bfc2)">
     <use style="fill:#2ca02c;stroke:#2ca02c;" x="343.160246" xlink:href="#mecac4d91b0" y="386.597669"/>
    </g>
   </g>
   <g id="line2d_107">
    <path clip-path="url(#p570b66bfc2)" d="M 369 358.2 
L 466.068562 356.15005 
L 357.698765 341.426991 
L 425.88481 294.946042 
L 399.46439 360.248834 
L 369.773068 464.549205 
L 396.413894 301.139331 
L 362.176582 337.347296 
L 355.394413 346.739762 
L 363.45082 375.488931 
" style="fill:none;stroke:#808080;stroke-dasharray:3.2,0.8,0.5,0.8;stroke-dashoffset:0;stroke-width:0.5;"/>
   </g>
   <g id="line2d_108">
    <path clip-path="url(#p570b66bfc2)" d="M 363.45082 375.488931 
" style="fill:none;stroke:#2ca02c;stroke-linecap:square;stroke-width:1.5;"/>
    <g clip-path="url(#p570b66bfc2)">
     <use style="fill:#2ca02c;stroke:#2ca02c;" x="363.45082" xlink:href="#mecac4d91b0" y="375.488931"/>
    </g>
   </g>
   <g id="line2d_109">
    <path clip-path="url(#p570b66bfc2)" d="M 369 358.2 
L 406.955719 402.355426 
L 345.93359 309.914939 
L 442.791463 351.674285 
L 481.321138 386.183819 
L 338.905186 479.732239 
L 364.773693 296.637996 
L 377.509337 345.327122 
L 361.970834 340.821043 
L 367.571372 390.855306 
" style="fill:none;stroke:#808080;stroke-dasharray:3.2,0.8,0.5,0.8;stroke-dashoffset:0;stroke-width:0.5;"/>
   </g>
   <g id="line2d_110">
    <path clip-path="url(#p570b66bfc2)" d="M 367.571372 390.855306 
" style="fill:none;stroke:#2ca02c;stroke-linecap:square;stroke-width:1.5;"/>
    <g clip-path="url(#p570b66bfc2)">
     <use style="fill:#2ca02c;stroke:#2ca02c;" x="367.571372" xlink:href="#mecac4d91b0" y="390.855306"/>
    </g>
   </g>
   <g id="line2d_111">
    <path clip-path="url(#p570b66bfc2)" d="M 369 358.2 
L 353.489299 416.000591 
L 332.232014 396.100324 
L 573.237059 245.367499 
L 409.04948 360.991445 
L 380.505213 449.154667 
L 382.259417 330.70615 
L 389.077925 332.669827 
L 367.264883 337.17543 
L 367.587794 399.400014 
" style="fill:none;stroke:#808080;stroke-dasharray:3.2,0.8,0.5,0.8;stroke-dashoffset:0;stroke-width:0.5;"/>
   </g>
   <g id="line2d_112">
    <path clip-path="url(#p570b66bfc2)" d="M 367.587794 399.400014 
" style="fill:none;stroke:#2ca02c;stroke-linecap:square;stroke-width:1.5;"/>
    <g clip-path="url(#p570b66bfc2)">
     <use style="fill:#2ca02c;stroke:#2ca02c;" x="367.587794" xlink:href="#mecac4d91b0" y="399.400014"/>
    </g>
   </g>
   <g id="line2d_113">
    <path clip-path="url(#p570b66bfc2)" d="M 369 358.2 
L 389.909178 398.787553 
L 326.95999 412.57662 
L 608.831888 319.615741 
L 353.969534 352.266729 
L 378.931934 437.17231 
L 400.243386 355.583309 
L 395.689661 315.381422 
L 366.897657 318.139115 
L 334.97702 419.426993 
" style="fill:none;stroke:#808080;stroke-dasharray:3.2,0.8,0.5,0.8;stroke-dashoffset:0;stroke-width:0.5;"/>
   </g>
   <g id="line2d_114">
    <path clip-path="url(#p570b66bfc2)" d="M 334.97702 419.426993 
" style="fill:none;stroke:#2ca02c;stroke-linecap:square;stroke-width:1.5;"/>
    <g clip-path="url(#p570b66bfc2)">
     <use style="fill:#2ca02c;stroke:#2ca02c;" x="334.97702" xlink:href="#mecac4d91b0" y="419.426993"/>
    </g>
   </g>
   <g id="line2d_115">
    <path clip-path="url(#p570b66bfc2)" d="M 369 358.2 
L 296.699526 353.101705 
L 394.591059 368.607474 
L 275.779938 405.125807 
L 241.638028 385.289313 
L 309.461309 230.840511 
L 360.271808 429.202229 
L 400.034115 377.105718 
L 389.192828 331.813147 
L 371.609336 419.823784 
" style="fill:none;stroke:#808080;stroke-dasharray:3.2,0.8,0.5,0.8;stroke-dashoffset:0;stroke-width:0.5;"/>
   </g>
   <g id="line2d_116">
    <path clip-path="url(#p570b66bfc2)" d="M 371.609336 419.823784 
" style="fill:none;stroke:#2ca02c;stroke-linecap:square;stroke-width:1.5;"/>
    <g clip-path="url(#p570b66bfc2)">
     <use style="fill:#2ca02c;stroke:#2ca02c;" x="371.609336" xlink:href="#mecac4d91b0" y="419.823784"/>
    </g>
   </g>
   <g id="line2d_117">
    <path clip-path="url(#p570b66bfc2)" d="M 369 358.2 
L 286.421017 404.113462 
L 370.107172 404.795176 
L 567.007346 343.502972 
L 338.461945 355.908 
L 394.237067 430.345168 
L 391.46144 366.032489 
L 389.135008 315.986832 
L 368.650406 313.655414 
L 331.382031 431.372008 
" style="fill:none;stroke:#808080;stroke-dasharray:3.2,0.8,0.5,0.8;stroke-dashoffset:0;stroke-width:0.5;"/>
   </g>
   <g id="line2d_118">
    <path clip-path="url(#p570b66bfc2)" d="M 331.382031 431.372008 
" style="fill:none;stroke:#2ca02c;stroke-linecap:square;stroke-width:1.5;"/>
    <g clip-path="url(#p570b66bfc2)">
     <use style="fill:#2ca02c;stroke:#2ca02c;" x="331.382031" xlink:href="#mecac4d91b0" y="431.372008"/>
    </g>
   </g>
   <g id="line2d_119">
    <path clip-path="url(#p570b66bfc2)" d="M 369 358.2 
L 332.120542 327.701123 
L 318.711752 349.11835 
L 266.524089 211.807336 
L 393.154721 326.376629 
L 354.923225 468.400227 
L 372.341789 315.119287 
L 392.907146 326.769862 
L 372.409201 329.638444 
L 348.965958 426.801728 
" style="fill:none;stroke:#808080;stroke-dasharray:3.2,0.8,0.5,0.8;stroke-dashoffset:0;stroke-width:0.5;"/>
   </g>
   <g id="line2d_120">
    <path clip-path="url(#p570b66bfc2)" d="M 348.965958 426.801728 
" style="fill:none;stroke:#2ca02c;stroke-linecap:square;stroke-width:1.5;"/>
    <g clip-path="url(#p570b66bfc2)">
     <use style="fill:#2ca02c;stroke:#2ca02c;" x="348.965958" xlink:href="#mecac4d91b0" y="426.801728"/>
    </g>
   </g>
   <g id="line2d_121">
    <path clip-path="url(#p570b66bfc2)" d="M 369 358.2 
L 340.530173 346.605684 
L 338.559762 325.342529 
L 367.87227 318.151134 
L 497.31501 365.858201 
L 401.082515 339.925845 
L 425.017373 292.755931 
L 358.043885 322.671713 
L 344.521513 350.799833 
L 344.579864 378.973652 
" style="fill:none;stroke:#808080;stroke-dasharray:3.2,0.8,0.5,0.8;stroke-dashoffset:0;stroke-width:0.5;"/>
   </g>
   <g id="line2d_122">
    <path clip-path="url(#p570b66bfc2)" d="M 344.579864 378.973652 
" style="fill:none;stroke:#2ca02c;stroke-linecap:square;stroke-width:1.5;"/>
    <g clip-path="url(#p570b66bfc2)">
     <use style="fill:#2ca02c;stroke:#2ca02c;" x="344.579864" xlink:href="#mecac4d91b0" y="378.973652"/>
    </g>
   </g>
   <g id="line2d_123">
    <path clip-path="url(#p570b66bfc2)" d="M 369 358.2 
L 430.690425 361.034916 
L 347.89887 409.794726 
L 603.458129 280.331541 
L 321.37303 399.669545 
L 345.334889 351.639868 
L 477.453789 345.202665 
L 354.583005 301.445435 
L 334.632658 358.588601 
L 334.101862 374.579037 
" style="fill:none;stroke:#808080;stroke-dasharray:3.2,0.8,0.5,0.8;stroke-dashoffset:0;stroke-width:0.5;"/>
   </g>
   <g id="line2d_124">
    <path clip-path="url(#p570b66bfc2)" d="M 334.101862 374.579037 
" style="fill:none;stroke:#2ca02c;stroke-linecap:square;stroke-width:1.5;"/>
    <g clip-path="url(#p570b66bfc2)">
     <use style="fill:#2ca02c;stroke:#2ca02c;" x="334.101862" xlink:href="#mecac4d91b0" y="374.579037"/>
    </g>
   </g>
   <g id="line2d_125">
    <path clip-path="url(#p570b66bfc2)" d="M 369 358.2 
L 345.115441 357.51158 
L 346.802051 402.363612 
L 553.794651 264.497473 
L 340.118257 403.635896 
L 356.541221 356.723237 
L 462.527698 355.358737 
L 396.423691 349.13278 
L 340.634688 360.823699 
L 337.645978 383.482999 
" style="fill:none;stroke:#808080;stroke-dasharray:3.2,0.8,0.5,0.8;stroke-dashoffset:0;stroke-width:0.5;"/>
   </g>
   <g id="line2d_126">
    <path clip-path="url(#p570b66bfc2)" d="M 337.645978 383.482999 
" style="fill:none;stroke:#2ca02c;stroke-linecap:square;stroke-width:1.5;"/>
    <g clip-path="url(#p570b66bfc2)">
     <use style="fill:#2ca02c;stroke:#2ca02c;" x="337.645978" xlink:href="#mecac4d91b0" y="383.482999"/>
    </g>
   </g>
   <g id="line2d_127">
    <path clip-path="url(#p570b66bfc2)" d="M 369 358.2 
L 301.846297 345.070312 
L 356.147202 384.351424 
L 526.752797 309.643418 
L 365.49179 344.364803 
L 364.918102 438.67868 
L 395.477541 340.309716 
L 386.888676 309.313813 
L 362.830352 315.227294 
L 332.398691 425.338749 
" style="fill:none;stroke:#808080;stroke-dasharray:3.2,0.8,0.5,0.8;stroke-dashoffset:0;stroke-width:0.5;"/>
   </g>
   <g id="line2d_128">
    <path clip-path="url(#p570b66bfc2)" d="M 332.398691 425.338749 
" style="fill:none;stroke:#2ca02c;stroke-linecap:square;stroke-width:1.5;"/>
    <g clip-path="url(#p570b66bfc2)">
     <use style="fill:#2ca02c;stroke:#2ca02c;" x="332.398691" xlink:href="#mecac4d91b0" y="425.338749"/>
    </g>
   </g>
   <g id="line2d_129">
    <path clip-path="url(#p570b66bfc2)" d="M 369 358.2 
L 294.487048 401.8766 
L 375.487792 410.108985 
L 591.490835 370.48977 
L 396.401604 253.383061 
L 394.836076 387.815711 
L 462.37512 403.734691 
L 365.362724 299.114797 
L 348.227892 313.517307 
L 321.70647 391.995941 
" style="fill:none;stroke:#808080;stroke-dasharray:3.2,0.8,0.5,0.8;stroke-dashoffset:0;stroke-width:0.5;"/>
   </g>
   <g id="line2d_130">
    <path clip-path="url(#p570b66bfc2)" d="M 321.70647 391.995941 
" style="fill:none;stroke:#2ca02c;stroke-linecap:square;stroke-width:1.5;"/>
    <g clip-path="url(#p570b66bfc2)">
     <use style="fill:#2ca02c;stroke:#2ca02c;" x="321.70647" xlink:href="#mecac4d91b0" y="391.995941"/>
    </g>
   </g>
   <g id="line2d_131">
    <path clip-path="url(#p570b66bfc2)" d="M 369 358.2 
L 300.383895 368.409352 
L 361.35478 421.841781 
L 654.9174 354.553896 
L 429.103861 272.685719 
L 433.5444 410.868358 
L 404.953046 402.194027 
L 409.952811 306.237779 
L 375.939593 319.089182 
L 347.930009 417.960157 
" style="fill:none;stroke:#808080;stroke-dasharray:3.2,0.8,0.5,0.8;stroke-dashoffset:0;stroke-width:0.5;"/>
   </g>
   <g id="line2d_132">
    <path clip-path="url(#p570b66bfc2)" d="M 347.930009 417.960157 
" style="fill:none;stroke:#2ca02c;stroke-linecap:square;stroke-width:1.5;"/>
    <g clip-path="url(#p570b66bfc2)">
     <use style="fill:#2ca02c;stroke:#2ca02c;" x="347.930009" xlink:href="#mecac4d91b0" y="417.960157"/>
    </g>
   </g>
   <g id="line2d_133">
    <path clip-path="url(#p570b66bfc2)" d="M 369 358.2 
L 392.534753 334.890802 
L 335.786756 411.338427 
L 545.838771 289.100783 
L 350.628602 386.255887 
L 355.269626 384.31099 
L 460.559008 337.716674 
L 359.257583 310.492611 
L 338.968432 354.79255 
L 325.912101 388.321682 
" style="fill:none;stroke:#808080;stroke-dasharray:3.2,0.8,0.5,0.8;stroke-dashoffset:0;stroke-width:0.5;"/>
   </g>
   <g id="line2d_134">
    <path clip-path="url(#p570b66bfc2)" d="M 325.912101 388.321682 
" style="fill:none;stroke:#2ca02c;stroke-linecap:square;stroke-width:1.5;"/>
    <g clip-path="url(#p570b66bfc2)">
     <use style="fill:#2ca02c;stroke:#2ca02c;" x="325.912101" xlink:href="#mecac4d91b0" y="388.321682"/>
    </g>
   </g>
   <g id="line2d_135">
    <path clip-path="url(#p570b66bfc2)" d="M 369 358.2 
L 320.60791 340.192855 
L 359.838317 389.392229 
L 252.925798 332.177608 
L 339.719671 424.618751 
L 331.465028 361.317844 
L 483.253748 322.063573 
L 337.367894 316.498438 
L 328.355312 345.867364 
L 350.898572 354.861529 
" style="fill:none;stroke:#808080;stroke-dasharray:3.2,0.8,0.5,0.8;stroke-dashoffset:0;stroke-width:0.5;"/>
   </g>
   <g id="line2d_136">
    <path clip-path="url(#p570b66bfc2)" d="M 350.898572 354.861529 
" style="fill:none;stroke:#2ca02c;stroke-linecap:square;stroke-width:1.5;"/>
    <g clip-path="url(#p570b66bfc2)">
     <use style="fill:#2ca02c;stroke:#2ca02c;" x="350.898572" xlink:href="#mecac4d91b0" y="354.861529"/>
    </g>
   </g>
   <g id="line2d_137">
    <path clip-path="url(#p570b66bfc2)" d="M 369 358.2 
L 322.84359 409.429148 
L 350.720715 368.958224 
L 221.248223 303.29111 
L 377.99146 411.798129 
L 328.375348 387.802106 
L 471.082365 308.811135 
L 347.927014 310.646016 
L 334.13994 352.772377 
L 329.592745 379.772733 
" style="fill:none;stroke:#808080;stroke-dasharray:3.2,0.8,0.5,0.8;stroke-dashoffset:0;stroke-width:0.5;"/>
   </g>
   <g id="line2d_138">
    <path clip-path="url(#p570b66bfc2)" d="M 329.592745 379.772733 
" style="fill:none;stroke:#2ca02c;stroke-linecap:square;stroke-width:1.5;"/>
    <g clip-path="url(#p570b66bfc2)">
     <use style="fill:#2ca02c;stroke:#2ca02c;" x="329.592745" xlink:href="#mecac4d91b0" y="379.772733"/>
    </g>
   </g>
   <g id="line2d_139">
    <path clip-path="url(#p570b66bfc2)" d="M 369 358.2 
L 267.955743 340.444588 
L 411.041444 385.89906 
L 185.629106 467.452145 
L 413.154652 249.799957 
L 408.304398 389.929102 
L 445.763448 402.570149 
L 376.37181 294.587111 
L 351.813114 309.085196 
L 318.72074 405.636671 
" style="fill:none;stroke:#808080;stroke-dasharray:3.2,0.8,0.5,0.8;stroke-dashoffset:0;stroke-width:0.5;"/>
   </g>
   <g id="line2d_140">
    <path clip-path="url(#p570b66bfc2)" d="M 318.72074 405.636671 
" style="fill:none;stroke:#2ca02c;stroke-linecap:square;stroke-width:1.5;"/>
    <g clip-path="url(#p570b66bfc2)">
     <use style="fill:#2ca02c;stroke:#2ca02c;" x="318.72074" xlink:href="#mecac4d91b0" y="405.636671"/>
    </g>
   </g>
   <g id="patch_3">
    <path d="M 90 630 
L 90 86.4 
" style="fill:none;stroke:#000000;stroke-linecap:square;stroke-linejoin:miter;stroke-width:0.8;"/>
   </g>
   <g id="patch_4">
    <path d="M 648 630 
L 648 86.4 
" style="fill:none;stroke:#000000;stroke-linecap:square;stroke-linejoin:miter;stroke-width:0.8;"/>
   </g>
   <g id="patch_5">
    <path d="M 90 630 
L 648 630 
" style="fill:none;stroke:#000000;stroke-linecap:square;stroke-linejoin:miter;stroke-width:0.8;"/>
   </g>
   <g id="patch_6">
    <path d="M 90 86.4 
L 648 86.4 
" style="fill:none;stroke:#000000;stroke-linecap:square;stroke-linejoin:miter;stroke-width:0.8;"/>
   </g>
   <g id="text_21">
    <!-- Learned Trials: Same Direction, Different Rule -->
    <g transform="translate(232.317188 80.4)scale(0.12 -0.12)">
     <defs>
      <path d="M 41.109375 46.296875 
Q 39.59375 47.171875 37.8125 47.578125 
Q 36.03125 48 33.890625 48 
Q 26.265625 48 22.1875 43.046875 
Q 18.109375 38.09375 18.109375 28.8125 
L 18.109375 0 
L 9.078125 0 
L 9.078125 54.6875 
L 18.109375 54.6875 
L 18.109375 46.1875 
Q 20.953125 51.171875 25.484375 53.578125 
Q 30.03125 56 36.53125 56 
Q 37.453125 56 38.578125 55.875 
Q 39.703125 55.765625 41.0625 55.515625 
z
" id="DejaVuSans-114"/>
      <path d="M 45.40625 46.390625 
L 45.40625 75.984375 
L 54.390625 75.984375 
L 54.390625 0 
L 45.40625 0 
L 45.40625 8.203125 
Q 42.578125 3.328125 38.25 0.953125 
Q 33.9375 -1.421875 27.875 -1.421875 
Q 17.96875 -1.421875 11.734375 6.484375 
Q 5.515625 14.40625 5.515625 27.296875 
Q 5.515625 40.1875 11.734375 48.09375 
Q 17.96875 56 27.875 56 
Q 33.9375 56 38.25 53.625 
Q 42.578125 51.265625 45.40625 46.390625 
z
M 14.796875 27.296875 
Q 14.796875 17.390625 18.875 11.75 
Q 22.953125 6.109375 30.078125 6.109375 
Q 37.203125 6.109375 41.296875 11.75 
Q 45.40625 17.390625 45.40625 27.296875 
Q 45.40625 37.203125 41.296875 42.84375 
Q 37.203125 48.484375 30.078125 48.484375 
Q 22.953125 48.484375 18.875 42.84375 
Q 14.796875 37.203125 14.796875 27.296875 
z
" id="DejaVuSans-100"/>
      <path d="M -0.296875 72.90625 
L 61.375 72.90625 
L 61.375 64.59375 
L 35.5 64.59375 
L 35.5 0 
L 25.59375 0 
L 25.59375 64.59375 
L -0.296875 64.59375 
z
" id="DejaVuSans-84"/>
      <path d="M 9.421875 54.6875 
L 18.40625 54.6875 
L 18.40625 0 
L 9.421875 0 
z
M 9.421875 75.984375 
L 18.40625 75.984375 
L 18.40625 64.59375 
L 9.421875 64.59375 
z
" id="DejaVuSans-105"/>
      <path d="M 9.421875 75.984375 
L 18.40625 75.984375 
L 18.40625 0 
L 9.421875 0 
z
" id="DejaVuSans-108"/>
      <path d="M 44.28125 53.078125 
L 44.28125 44.578125 
Q 40.484375 46.53125 36.375 47.5 
Q 32.28125 48.484375 27.875 48.484375 
Q 21.1875 48.484375 17.84375 46.4375 
Q 14.5 44.390625 14.5 40.28125 
Q 14.5 37.15625 16.890625 35.375 
Q 19.28125 33.59375 26.515625 31.984375 
L 29.59375 31.296875 
Q 39.15625 29.25 43.1875 25.515625 
Q 47.21875 21.78125 47.21875 15.09375 
Q 47.21875 7.46875 41.1875 3.015625 
Q 35.15625 -1.421875 24.609375 -1.421875 
Q 20.21875 -1.421875 15.453125 -0.5625 
Q 10.6875 0.296875 5.421875 2 
L 5.421875 11.28125 
Q 10.40625 8.6875 15.234375 7.390625 
Q 20.0625 6.109375 24.8125 6.109375 
Q 31.15625 6.109375 34.5625 8.28125 
Q 37.984375 10.453125 37.984375 14.40625 
Q 37.984375 18.0625 35.515625 20.015625 
Q 33.0625 21.96875 24.703125 23.78125 
L 21.578125 24.515625 
Q 13.234375 26.265625 9.515625 29.90625 
Q 5.8125 33.546875 5.8125 39.890625 
Q 5.8125 47.609375 11.28125 51.796875 
Q 16.75 56 26.8125 56 
Q 31.78125 56 36.171875 55.265625 
Q 40.578125 54.546875 44.28125 53.078125 
z
" id="DejaVuSans-115"/>
      <path d="M 11.71875 12.40625 
L 22.015625 12.40625 
L 22.015625 0 
L 11.71875 0 
z
M 11.71875 51.703125 
L 22.015625 51.703125 
L 22.015625 39.3125 
L 11.71875 39.3125 
z
" id="DejaVuSans-58"/>
      <path d="M 53.515625 70.515625 
L 53.515625 60.890625 
Q 47.90625 63.578125 42.921875 64.890625 
Q 37.9375 66.21875 33.296875 66.21875 
Q 25.25 66.21875 20.875 63.09375 
Q 16.5 59.96875 16.5 54.203125 
Q 16.5 49.359375 19.40625 46.890625 
Q 22.3125 44.4375 30.421875 42.921875 
L 36.375 41.703125 
Q 47.40625 39.59375 52.65625 34.296875 
Q 57.90625 29 57.90625 20.125 
Q 57.90625 9.515625 50.796875 4.046875 
Q 43.703125 -1.421875 29.984375 -1.421875 
Q 24.8125 -1.421875 18.96875 -0.25 
Q 13.140625 0.921875 6.890625 3.21875 
L 6.890625 13.375 
Q 12.890625 10.015625 18.65625 8.296875 
Q 24.421875 6.59375 29.984375 6.59375 
Q 38.421875 6.59375 43.015625 9.90625 
Q 47.609375 13.234375 47.609375 19.390625 
Q 47.609375 24.75 44.3125 27.78125 
Q 41.015625 30.8125 33.5 32.328125 
L 27.484375 33.5 
Q 16.453125 35.6875 11.515625 40.375 
Q 6.59375 45.0625 6.59375 53.421875 
Q 6.59375 63.09375 13.40625 68.65625 
Q 20.21875 74.21875 32.171875 74.21875 
Q 37.3125 74.21875 42.625 73.28125 
Q 47.953125 72.359375 53.515625 70.515625 
z
" id="DejaVuSans-83"/>
      <path d="M 52 44.1875 
Q 55.375 50.25 60.0625 53.125 
Q 64.75 56 71.09375 56 
Q 79.640625 56 84.28125 50.015625 
Q 88.921875 44.046875 88.921875 33.015625 
L 88.921875 0 
L 79.890625 0 
L 79.890625 32.71875 
Q 79.890625 40.578125 77.09375 44.375 
Q 74.3125 48.1875 68.609375 48.1875 
Q 61.625 48.1875 57.5625 43.546875 
Q 53.515625 38.921875 53.515625 30.90625 
L 53.515625 0 
L 44.484375 0 
L 44.484375 32.71875 
Q 44.484375 40.625 41.703125 44.40625 
Q 38.921875 48.1875 33.109375 48.1875 
Q 26.21875 48.1875 22.15625 43.53125 
Q 18.109375 38.875 18.109375 30.90625 
L 18.109375 0 
L 9.078125 0 
L 9.078125 54.6875 
L 18.109375 54.6875 
L 18.109375 46.1875 
Q 21.1875 51.21875 25.484375 53.609375 
Q 29.78125 56 35.6875 56 
Q 41.65625 56 45.828125 52.96875 
Q 50 49.953125 52 44.1875 
z
" id="DejaVuSans-109"/>
      <path d="M 19.671875 64.796875 
L 19.671875 8.109375 
L 31.59375 8.109375 
Q 46.6875 8.109375 53.6875 14.9375 
Q 60.6875 21.78125 60.6875 36.53125 
Q 60.6875 51.171875 53.6875 57.984375 
Q 46.6875 64.796875 31.59375 64.796875 
z
M 9.8125 72.90625 
L 30.078125 72.90625 
Q 51.265625 72.90625 61.171875 64.09375 
Q 71.09375 55.28125 71.09375 36.53125 
Q 71.09375 17.671875 61.125 8.828125 
Q 51.171875 0 30.078125 0 
L 9.8125 0 
z
" id="DejaVuSans-68"/>
      <path d="M 48.78125 52.59375 
L 48.78125 44.1875 
Q 44.96875 46.296875 41.140625 47.34375 
Q 37.3125 48.390625 33.40625 48.390625 
Q 24.65625 48.390625 19.8125 42.84375 
Q 14.984375 37.3125 14.984375 27.296875 
Q 14.984375 17.28125 19.8125 11.734375 
Q 24.65625 6.203125 33.40625 6.203125 
Q 37.3125 6.203125 41.140625 7.25 
Q 44.96875 8.296875 48.78125 10.40625 
L 48.78125 2.09375 
Q 45.015625 0.34375 40.984375 -0.53125 
Q 36.96875 -1.421875 32.421875 -1.421875 
Q 20.0625 -1.421875 12.78125 6.34375 
Q 5.515625 14.109375 5.515625 27.296875 
Q 5.515625 40.671875 12.859375 48.328125 
Q 20.21875 56 33.015625 56 
Q 37.15625 56 41.109375 55.140625 
Q 45.0625 54.296875 48.78125 52.59375 
z
" id="DejaVuSans-99"/>
      <path d="M 30.609375 48.390625 
Q 23.390625 48.390625 19.1875 42.75 
Q 14.984375 37.109375 14.984375 27.296875 
Q 14.984375 17.484375 19.15625 11.84375 
Q 23.34375 6.203125 30.609375 6.203125 
Q 37.796875 6.203125 41.984375 11.859375 
Q 46.1875 17.53125 46.1875 27.296875 
Q 46.1875 37.015625 41.984375 42.703125 
Q 37.796875 48.390625 30.609375 48.390625 
z
M 30.609375 56 
Q 42.328125 56 49.015625 48.375 
Q 55.71875 40.765625 55.71875 27.296875 
Q 55.71875 13.875 49.015625 6.21875 
Q 42.328125 -1.421875 30.609375 -1.421875 
Q 18.84375 -1.421875 12.171875 6.21875 
Q 5.515625 13.875 5.515625 27.296875 
Q 5.515625 40.765625 12.171875 48.375 
Q 18.84375 56 30.609375 56 
z
" id="DejaVuSans-111"/>
      <path d="M 11.71875 12.40625 
L 22.015625 12.40625 
L 22.015625 4 
L 14.015625 -11.625 
L 7.71875 -11.625 
L 11.71875 4 
z
" id="DejaVuSans-44"/>
      <path d="M 37.109375 75.984375 
L 37.109375 68.5 
L 28.515625 68.5 
Q 23.6875 68.5 21.796875 66.546875 
Q 19.921875 64.59375 19.921875 59.515625 
L 19.921875 54.6875 
L 34.71875 54.6875 
L 34.71875 47.703125 
L 19.921875 47.703125 
L 19.921875 0 
L 10.890625 0 
L 10.890625 47.703125 
L 2.296875 47.703125 
L 2.296875 54.6875 
L 10.890625 54.6875 
L 10.890625 58.5 
Q 10.890625 67.625 15.140625 71.796875 
Q 19.390625 75.984375 28.609375 75.984375 
z
" id="DejaVuSans-102"/>
      <path d="M 44.390625 34.1875 
Q 47.5625 33.109375 50.5625 29.59375 
Q 53.5625 26.078125 56.59375 19.921875 
L 66.609375 0 
L 56 0 
L 46.6875 18.703125 
Q 43.0625 26.03125 39.671875 28.421875 
Q 36.28125 30.8125 30.421875 30.8125 
L 19.671875 30.8125 
L 19.671875 0 
L 9.8125 0 
L 9.8125 72.90625 
L 32.078125 72.90625 
Q 44.578125 72.90625 50.734375 67.671875 
Q 56.890625 62.453125 56.890625 51.90625 
Q 56.890625 45.015625 53.6875 40.46875 
Q 50.484375 35.9375 44.390625 34.1875 
z
M 19.671875 64.796875 
L 19.671875 38.921875 
L 32.078125 38.921875 
Q 39.203125 38.921875 42.84375 42.21875 
Q 46.484375 45.515625 46.484375 51.90625 
Q 46.484375 58.296875 42.84375 61.546875 
Q 39.203125 64.796875 32.078125 64.796875 
z
" id="DejaVuSans-82"/>
      <path d="M 8.5 21.578125 
L 8.5 54.6875 
L 17.484375 54.6875 
L 17.484375 21.921875 
Q 17.484375 14.15625 20.5 10.265625 
Q 23.53125 6.390625 29.59375 6.390625 
Q 36.859375 6.390625 41.078125 11.03125 
Q 45.3125 15.671875 45.3125 23.6875 
L 45.3125 54.6875 
L 54.296875 54.6875 
L 54.296875 0 
L 45.3125 0 
L 45.3125 8.40625 
Q 42.046875 3.421875 37.71875 1 
Q 33.40625 -1.421875 27.6875 -1.421875 
Q 18.265625 -1.421875 13.375 4.4375 
Q 8.5 10.296875 8.5 21.578125 
z
M 31.109375 56 
z
" id="DejaVuSans-117"/>
     </defs>
     <use xlink:href="#DejaVuSans-76"/>
     <use x="53.962891" xlink:href="#DejaVuSans-101"/>
     <use x="115.486328" xlink:href="#DejaVuSans-97"/>
     <use x="176.765625" xlink:href="#DejaVuSans-114"/>
     <use x="216.128906" xlink:href="#DejaVuSans-110"/>
     <use x="279.507812" xlink:href="#DejaVuSans-101"/>
     <use x="341.03125" xlink:href="#DejaVuSans-100"/>
     <use x="404.507812" xlink:href="#DejaVuSans-32"/>
     <use x="436.294922" xlink:href="#DejaVuSans-84"/>
     <use x="482.628906" xlink:href="#DejaVuSans-114"/>
     <use x="523.742188" xlink:href="#DejaVuSans-105"/>
     <use x="551.525391" xlink:href="#DejaVuSans-97"/>
     <use x="612.804688" xlink:href="#DejaVuSans-108"/>
     <use x="640.587891" xlink:href="#DejaVuSans-115"/>
     <use x="692.6875" xlink:href="#DejaVuSans-58"/>
     <use x="726.378906" xlink:href="#DejaVuSans-32"/>
     <use x="758.166016" xlink:href="#DejaVuSans-83"/>
     <use x="821.642578" xlink:href="#DejaVuSans-97"/>
     <use x="882.921875" xlink:href="#DejaVuSans-109"/>
     <use x="980.333984" xlink:href="#DejaVuSans-101"/>
     <use x="1041.857422" xlink:href="#DejaVuSans-32"/>
     <use x="1073.644531" xlink:href="#DejaVuSans-68"/>
     <use x="1150.646484" xlink:href="#DejaVuSans-105"/>
     <use x="1178.429688" xlink:href="#DejaVuSans-114"/>
     <use x="1217.292969" xlink:href="#DejaVuSans-101"/>
     <use x="1278.816406" xlink:href="#DejaVuSans-99"/>
     <use x="1333.796875" xlink:href="#DejaVuSans-116"/>
     <use x="1373.005859" xlink:href="#DejaVuSans-105"/>
     <use x="1400.789062" xlink:href="#DejaVuSans-111"/>
     <use x="1461.970703" xlink:href="#DejaVuSans-110"/>
     <use x="1525.349609" xlink:href="#DejaVuSans-44"/>
     <use x="1557.136719" xlink:href="#DejaVuSans-32"/>
     <use x="1588.923828" xlink:href="#DejaVuSans-68"/>
     <use x="1665.925781" xlink:href="#DejaVuSans-105"/>
     <use x="1693.708984" xlink:href="#DejaVuSans-102"/>
     <use x="1728.914062" xlink:href="#DejaVuSans-102"/>
     <use x="1764.119141" xlink:href="#DejaVuSans-101"/>
     <use x="1825.642578" xlink:href="#DejaVuSans-114"/>
     <use x="1864.505859" xlink:href="#DejaVuSans-101"/>
     <use x="1926.029297" xlink:href="#DejaVuSans-110"/>
     <use x="1989.408203" xlink:href="#DejaVuSans-116"/>
     <use x="2028.617188" xlink:href="#DejaVuSans-32"/>
     <use x="2060.404297" xlink:href="#DejaVuSans-82"/>
     <use x="2125.386719" xlink:href="#DejaVuSans-117"/>
     <use x="2188.765625" xlink:href="#DejaVuSans-108"/>
     <use x="2216.548828" xlink:href="#DejaVuSans-101"/>
    </g>
   </g>
   <g id="legend_1">
    <g id="patch_7">
     <path d="M 536.528125 109.078125 
L 641 109.078125 
Q 643 109.078125 643 107.078125 
L 643 93.4 
Q 643 91.4 641 91.4 
L 536.528125 91.4 
Q 534.528125 91.4 534.528125 93.4 
L 534.528125 107.078125 
Q 534.528125 109.078125 536.528125 109.078125 
z
" style="fill:#ffffff;opacity:0.8;stroke:#cccccc;stroke-linejoin:miter;"/>
    </g>
    <g id="line2d_141">
     <path d="M 538.528125 99.498438 
L 558.528125 99.498438 
" style="fill:none;stroke:#d62728;stroke-linecap:square;stroke-width:1.5;"/>
    </g>
    <g id="line2d_142">
     <g>
      <use style="fill:#d62728;stroke:#d62728;" x="548.528125" xlink:href="#m39fddc780e" y="99.498438"/>
     </g>
    </g>
    <g id="text_22">
     <!-- Pre-Movement -->
     <g transform="translate(566.528125 102.998438)scale(0.1 -0.1)">
      <defs>
       <path d="M 19.671875 64.796875 
L 19.671875 37.40625 
L 32.078125 37.40625 
Q 38.96875 37.40625 42.71875 40.96875 
Q 46.484375 44.53125 46.484375 51.125 
Q 46.484375 57.671875 42.71875 61.234375 
Q 38.96875 64.796875 32.078125 64.796875 
z
M 9.8125 72.90625 
L 32.078125 72.90625 
Q 44.34375 72.90625 50.609375 67.359375 
Q 56.890625 61.8125 56.890625 51.125 
Q 56.890625 40.328125 50.609375 34.8125 
Q 44.34375 29.296875 32.078125 29.296875 
L 19.671875 29.296875 
L 19.671875 0 
L 9.8125 0 
z
" id="DejaVuSans-80"/>
       <path d="M 4.890625 31.390625 
L 31.203125 31.390625 
L 31.203125 23.390625 
L 4.890625 23.390625 
z
" id="DejaVuSans-45"/>
       <path d="M 9.8125 72.90625 
L 24.515625 72.90625 
L 43.109375 23.296875 
L 61.8125 72.90625 
L 76.515625 72.90625 
L 76.515625 0 
L 66.890625 0 
L 66.890625 64.015625 
L 48.09375 14.015625 
L 38.1875 14.015625 
L 19.390625 64.015625 
L 19.390625 0 
L 9.8125 0 
z
" id="DejaVuSans-77"/>
       <path d="M 2.984375 54.6875 
L 12.5 54.6875 
L 29.59375 8.796875 
L 46.6875 54.6875 
L 56.203125 54.6875 
L 35.6875 0 
L 23.484375 0 
z
" id="DejaVuSans-118"/>
      </defs>
      <use xlink:href="#DejaVuSans-80"/>
      <use x="58.552734" xlink:href="#DejaVuSans-114"/>
      <use x="97.416016" xlink:href="#DejaVuSans-101"/>
      <use x="158.939453" xlink:href="#DejaVuSans-45"/>
      <use x="195.023438" xlink:href="#DejaVuSans-77"/>
      <use x="281.302734" xlink:href="#DejaVuSans-111"/>
      <use x="342.484375" xlink:href="#DejaVuSans-118"/>
      <use x="401.664062" xlink:href="#DejaVuSans-101"/>
      <use x="463.1875" xlink:href="#DejaVuSans-109"/>
      <use x="560.599609" xlink:href="#DejaVuSans-101"/>
      <use x="622.123047" xlink:href="#DejaVuSans-110"/>
      <use x="685.501953" xlink:href="#DejaVuSans-116"/>
     </g>
    </g>
   </g>
  </g>
 </g>
 <defs>
  <clipPath id="p570b66bfc2">
   <rect height="543.6" width="558" x="90" y="86.4"/>
  </clipPath>
 </defs>
</svg>
