<?xml version="1.0" encoding="utf-8" standalone="no"?>
<!DOCTYPE svg PUBLIC "-//W3C//DTD SVG 1.1//EN"
  "http://www.w3.org/Graphics/SVG/1.1/DTD/svg11.dtd">
<!-- Created with matplotlib (https://matplotlib.org/) -->
<svg height="720pt" version="1.1" viewBox="0 0 720 720" width="720pt" xmlns="http://www.w3.org/2000/svg" xmlns:xlink="http://www.w3.org/1999/xlink">
 <metadata>
  <rdf:RDF xmlns:cc="http://creativecommons.org/ns#" xmlns:dc="http://purl.org/dc/elements/1.1/" xmlns:rdf="http://www.w3.org/1999/02/22-rdf-syntax-ns#">
   <cc:Work>
    <dc:type rdf:resource="http://purl.org/dc/dcmitype/StillImage"/>
    <dc:date>2021-07-26T16:44:35.412385</dc:date>
    <dc:format>image/svg+xml</dc:format>
    <dc:creator>
     <cc:Agent>
      <dc:title>Matplotlib v3.3.4, https://matplotlib.org/</dc:title>
     </cc:Agent>
    </dc:creator>
   </cc:Work>
  </rdf:RDF>
 </metadata>
 <defs>
  <style type="text/css">*{stroke-linecap:butt;stroke-linejoin:round;}</style>
 </defs>
 <g id="figure_1">
  <g id="patch_1">
   <path d="M 0 720 
L 720 720 
L 720 0 
L 0 0 
z
" style="fill:none;"/>
  </g>
  <g id="axes_1">
   <g id="patch_2">
    <path d="M 90 630 
L 648 630 
L 648 86.4 
L 90 86.4 
z
" style="fill:#ffffff;"/>
   </g>
   <g id="matplotlib.axis_1">
    <g id="xtick_1">
     <g id="line2d_1">
      <defs>
       <path d="M 0 0 
L 0 3.5 
" id="m942e266951" style="stroke:#000000;stroke-width:0.8;"/>
      </defs>
      <g>
       <use style="stroke:#000000;stroke-width:0.8;" x="90" xlink:href="#m942e266951" y="630"/>
      </g>
     </g>
     <g id="text_1">
      <!-- −400 -->
      <g transform="translate(76.266406 644.598438)scale(0.1 -0.1)">
       <defs>
        <path d="M 10.59375 35.5 
L 73.1875 35.5 
L 73.1875 27.203125 
L 10.59375 27.203125 
z
" id="DejaVuSans-8722"/>
        <path d="M 37.796875 64.3125 
L 12.890625 25.390625 
L 37.796875 25.390625 
z
M 35.203125 72.90625 
L 47.609375 72.90625 
L 47.609375 25.390625 
L 58.015625 25.390625 
L 58.015625 17.1875 
L 47.609375 17.1875 
L 47.609375 0 
L 37.796875 0 
L 37.796875 17.1875 
L 4.890625 17.1875 
L 4.890625 26.703125 
z
" id="DejaVuSans-52"/>
        <path d="M 31.78125 66.40625 
Q 24.171875 66.40625 20.328125 58.90625 
Q 16.5 51.421875 16.5 36.375 
Q 16.5 21.390625 20.328125 13.890625 
Q 24.171875 6.390625 31.78125 6.390625 
Q 39.453125 6.390625 43.28125 13.890625 
Q 47.125 21.390625 47.125 36.375 
Q 47.125 51.421875 43.28125 58.90625 
Q 39.453125 66.40625 31.78125 66.40625 
z
M 31.78125 74.21875 
Q 44.046875 74.21875 50.515625 64.515625 
Q 56.984375 54.828125 56.984375 36.375 
Q 56.984375 17.96875 50.515625 8.265625 
Q 44.046875 -1.421875 31.78125 -1.421875 
Q 19.53125 -1.421875 13.0625 8.265625 
Q 6.59375 17.96875 6.59375 36.375 
Q 6.59375 54.828125 13.0625 64.515625 
Q 19.53125 74.21875 31.78125 74.21875 
z
" id="DejaVuSans-48"/>
       </defs>
       <use xlink:href="#DejaVuSans-8722"/>
       <use x="83.789062" xlink:href="#DejaVuSans-52"/>
       <use x="147.412109" xlink:href="#DejaVuSans-48"/>
       <use x="211.035156" xlink:href="#DejaVuSans-48"/>
      </g>
     </g>
    </g>
    <g id="xtick_2">
     <g id="line2d_2">
      <g>
       <use style="stroke:#000000;stroke-width:0.8;" x="159.75" xlink:href="#m942e266951" y="630"/>
      </g>
     </g>
     <g id="text_2">
      <!-- −300 -->
      <g transform="translate(146.016406 644.598438)scale(0.1 -0.1)">
       <defs>
        <path d="M 40.578125 39.3125 
Q 47.65625 37.796875 51.625 33 
Q 55.609375 28.21875 55.609375 21.1875 
Q 55.609375 10.40625 48.1875 4.484375 
Q 40.765625 -1.421875 27.09375 -1.421875 
Q 22.515625 -1.421875 17.65625 -0.515625 
Q 12.796875 0.390625 7.625 2.203125 
L 7.625 11.71875 
Q 11.71875 9.328125 16.59375 8.109375 
Q 21.484375 6.890625 26.8125 6.890625 
Q 36.078125 6.890625 40.9375 10.546875 
Q 45.796875 14.203125 45.796875 21.1875 
Q 45.796875 27.640625 41.28125 31.265625 
Q 36.765625 34.90625 28.71875 34.90625 
L 20.21875 34.90625 
L 20.21875 43.015625 
L 29.109375 43.015625 
Q 36.375 43.015625 40.234375 45.921875 
Q 44.09375 48.828125 44.09375 54.296875 
Q 44.09375 59.90625 40.109375 62.90625 
Q 36.140625 65.921875 28.71875 65.921875 
Q 24.65625 65.921875 20.015625 65.03125 
Q 15.375 64.15625 9.8125 62.3125 
L 9.8125 71.09375 
Q 15.4375 72.65625 20.34375 73.4375 
Q 25.25 74.21875 29.59375 74.21875 
Q 40.828125 74.21875 47.359375 69.109375 
Q 53.90625 64.015625 53.90625 55.328125 
Q 53.90625 49.265625 50.4375 45.09375 
Q 46.96875 40.921875 40.578125 39.3125 
z
" id="DejaVuSans-51"/>
       </defs>
       <use xlink:href="#DejaVuSans-8722"/>
       <use x="83.789062" xlink:href="#DejaVuSans-51"/>
       <use x="147.412109" xlink:href="#DejaVuSans-48"/>
       <use x="211.035156" xlink:href="#DejaVuSans-48"/>
      </g>
     </g>
    </g>
    <g id="xtick_3">
     <g id="line2d_3">
      <g>
       <use style="stroke:#000000;stroke-width:0.8;" x="229.5" xlink:href="#m942e266951" y="630"/>
      </g>
     </g>
     <g id="text_3">
      <!-- −200 -->
      <g transform="translate(215.766406 644.598438)scale(0.1 -0.1)">
       <defs>
        <path d="M 19.1875 8.296875 
L 53.609375 8.296875 
L 53.609375 0 
L 7.328125 0 
L 7.328125 8.296875 
Q 12.9375 14.109375 22.625 23.890625 
Q 32.328125 33.6875 34.8125 36.53125 
Q 39.546875 41.84375 41.421875 45.53125 
Q 43.3125 49.21875 43.3125 52.78125 
Q 43.3125 58.59375 39.234375 62.25 
Q 35.15625 65.921875 28.609375 65.921875 
Q 23.96875 65.921875 18.8125 64.3125 
Q 13.671875 62.703125 7.8125 59.421875 
L 7.8125 69.390625 
Q 13.765625 71.78125 18.9375 73 
Q 24.125 74.21875 28.421875 74.21875 
Q 39.75 74.21875 46.484375 68.546875 
Q 53.21875 62.890625 53.21875 53.421875 
Q 53.21875 48.921875 51.53125 44.890625 
Q 49.859375 40.875 45.40625 35.40625 
Q 44.1875 33.984375 37.640625 27.21875 
Q 31.109375 20.453125 19.1875 8.296875 
z
" id="DejaVuSans-50"/>
       </defs>
       <use xlink:href="#DejaVuSans-8722"/>
       <use x="83.789062" xlink:href="#DejaVuSans-50"/>
       <use x="147.412109" xlink:href="#DejaVuSans-48"/>
       <use x="211.035156" xlink:href="#DejaVuSans-48"/>
      </g>
     </g>
    </g>
    <g id="xtick_4">
     <g id="line2d_4">
      <g>
       <use style="stroke:#000000;stroke-width:0.8;" x="299.25" xlink:href="#m942e266951" y="630"/>
      </g>
     </g>
     <g id="text_4">
      <!-- −100 -->
      <g transform="translate(285.516406 644.598438)scale(0.1 -0.1)">
       <defs>
        <path d="M 12.40625 8.296875 
L 28.515625 8.296875 
L 28.515625 63.921875 
L 10.984375 60.40625 
L 10.984375 69.390625 
L 28.421875 72.90625 
L 38.28125 72.90625 
L 38.28125 8.296875 
L 54.390625 8.296875 
L 54.390625 0 
L 12.40625 0 
z
" id="DejaVuSans-49"/>
       </defs>
       <use xlink:href="#DejaVuSans-8722"/>
       <use x="83.789062" xlink:href="#DejaVuSans-49"/>
       <use x="147.412109" xlink:href="#DejaVuSans-48"/>
       <use x="211.035156" xlink:href="#DejaVuSans-48"/>
      </g>
     </g>
    </g>
    <g id="xtick_5">
     <g id="line2d_5">
      <g>
       <use style="stroke:#000000;stroke-width:0.8;" x="369" xlink:href="#m942e266951" y="630"/>
      </g>
     </g>
     <g id="text_5">
      <!-- 0 -->
      <g transform="translate(365.81875 644.598438)scale(0.1 -0.1)">
       <use xlink:href="#DejaVuSans-48"/>
      </g>
     </g>
    </g>
    <g id="xtick_6">
     <g id="line2d_6">
      <g>
       <use style="stroke:#000000;stroke-width:0.8;" x="438.75" xlink:href="#m942e266951" y="630"/>
      </g>
     </g>
     <g id="text_6">
      <!-- 100 -->
      <g transform="translate(429.20625 644.598438)scale(0.1 -0.1)">
       <use xlink:href="#DejaVuSans-49"/>
       <use x="63.623047" xlink:href="#DejaVuSans-48"/>
       <use x="127.246094" xlink:href="#DejaVuSans-48"/>
      </g>
     </g>
    </g>
    <g id="xtick_7">
     <g id="line2d_7">
      <g>
       <use style="stroke:#000000;stroke-width:0.8;" x="508.5" xlink:href="#m942e266951" y="630"/>
      </g>
     </g>
     <g id="text_7">
      <!-- 200 -->
      <g transform="translate(498.95625 644.598438)scale(0.1 -0.1)">
       <use xlink:href="#DejaVuSans-50"/>
       <use x="63.623047" xlink:href="#DejaVuSans-48"/>
       <use x="127.246094" xlink:href="#DejaVuSans-48"/>
      </g>
     </g>
    </g>
    <g id="xtick_8">
     <g id="line2d_8">
      <g>
       <use style="stroke:#000000;stroke-width:0.8;" x="578.25" xlink:href="#m942e266951" y="630"/>
      </g>
     </g>
     <g id="text_8">
      <!-- 300 -->
      <g transform="translate(568.70625 644.598438)scale(0.1 -0.1)">
       <use xlink:href="#DejaVuSans-51"/>
       <use x="63.623047" xlink:href="#DejaVuSans-48"/>
       <use x="127.246094" xlink:href="#DejaVuSans-48"/>
      </g>
     </g>
    </g>
    <g id="xtick_9">
     <g id="line2d_9">
      <g>
       <use style="stroke:#000000;stroke-width:0.8;" x="648" xlink:href="#m942e266951" y="630"/>
      </g>
     </g>
     <g id="text_9">
      <!-- 400 -->
      <g transform="translate(638.45625 644.598438)scale(0.1 -0.1)">
       <use xlink:href="#DejaVuSans-52"/>
       <use x="63.623047" xlink:href="#DejaVuSans-48"/>
       <use x="127.246094" xlink:href="#DejaVuSans-48"/>
      </g>
     </g>
    </g>
    <g id="text_10">
     <!-- Latent 0 -->
     <g transform="translate(348.214063 658.276562)scale(0.1 -0.1)">
      <defs>
       <path d="M 9.8125 72.90625 
L 19.671875 72.90625 
L 19.671875 8.296875 
L 55.171875 8.296875 
L 55.171875 0 
L 9.8125 0 
z
" id="DejaVuSans-76"/>
       <path d="M 34.28125 27.484375 
Q 23.390625 27.484375 19.1875 25 
Q 14.984375 22.515625 14.984375 16.5 
Q 14.984375 11.71875 18.140625 8.90625 
Q 21.296875 6.109375 26.703125 6.109375 
Q 34.1875 6.109375 38.703125 11.40625 
Q 43.21875 16.703125 43.21875 25.484375 
L 43.21875 27.484375 
z
M 52.203125 31.203125 
L 52.203125 0 
L 43.21875 0 
L 43.21875 8.296875 
Q 40.140625 3.328125 35.546875 0.953125 
Q 30.953125 -1.421875 24.3125 -1.421875 
Q 15.921875 -1.421875 10.953125 3.296875 
Q 6 8.015625 6 15.921875 
Q 6 25.140625 12.171875 29.828125 
Q 18.359375 34.515625 30.609375 34.515625 
L 43.21875 34.515625 
L 43.21875 35.40625 
Q 43.21875 41.609375 39.140625 45 
Q 35.0625 48.390625 27.6875 48.390625 
Q 23 48.390625 18.546875 47.265625 
Q 14.109375 46.140625 10.015625 43.890625 
L 10.015625 52.203125 
Q 14.9375 54.109375 19.578125 55.046875 
Q 24.21875 56 28.609375 56 
Q 40.484375 56 46.34375 49.84375 
Q 52.203125 43.703125 52.203125 31.203125 
z
" id="DejaVuSans-97"/>
       <path d="M 18.3125 70.21875 
L 18.3125 54.6875 
L 36.8125 54.6875 
L 36.8125 47.703125 
L 18.3125 47.703125 
L 18.3125 18.015625 
Q 18.3125 11.328125 20.140625 9.421875 
Q 21.96875 7.515625 27.59375 7.515625 
L 36.8125 7.515625 
L 36.8125 0 
L 27.59375 0 
Q 17.1875 0 13.234375 3.875 
Q 9.28125 7.765625 9.28125 18.015625 
L 9.28125 47.703125 
L 2.6875 47.703125 
L 2.6875 54.6875 
L 9.28125 54.6875 
L 9.28125 70.21875 
z
" id="DejaVuSans-116"/>
       <path d="M 56.203125 29.59375 
L 56.203125 25.203125 
L 14.890625 25.203125 
Q 15.484375 15.921875 20.484375 11.0625 
Q 25.484375 6.203125 34.421875 6.203125 
Q 39.59375 6.203125 44.453125 7.46875 
Q 49.3125 8.734375 54.109375 11.28125 
L 54.109375 2.78125 
Q 49.265625 0.734375 44.1875 -0.34375 
Q 39.109375 -1.421875 33.890625 -1.421875 
Q 20.796875 -1.421875 13.15625 6.1875 
Q 5.515625 13.8125 5.515625 26.8125 
Q 5.515625 40.234375 12.765625 48.109375 
Q 20.015625 56 32.328125 56 
Q 43.359375 56 49.78125 48.890625 
Q 56.203125 41.796875 56.203125 29.59375 
z
M 47.21875 32.234375 
Q 47.125 39.59375 43.09375 43.984375 
Q 39.0625 48.390625 32.421875 48.390625 
Q 24.90625 48.390625 20.390625 44.140625 
Q 15.875 39.890625 15.1875 32.171875 
z
" id="DejaVuSans-101"/>
       <path d="M 54.890625 33.015625 
L 54.890625 0 
L 45.90625 0 
L 45.90625 32.71875 
Q 45.90625 40.484375 42.875 44.328125 
Q 39.84375 48.1875 33.796875 48.1875 
Q 26.515625 48.1875 22.3125 43.546875 
Q 18.109375 38.921875 18.109375 30.90625 
L 18.109375 0 
L 9.078125 0 
L 9.078125 54.6875 
L 18.109375 54.6875 
L 18.109375 46.1875 
Q 21.34375 51.125 25.703125 53.5625 
Q 30.078125 56 35.796875 56 
Q 45.21875 56 50.046875 50.171875 
Q 54.890625 44.34375 54.890625 33.015625 
z
" id="DejaVuSans-110"/>
       <path id="DejaVuSans-32"/>
      </defs>
      <use xlink:href="#DejaVuSans-76"/>
      <use x="55.712891" xlink:href="#DejaVuSans-97"/>
      <use x="116.992188" xlink:href="#DejaVuSans-116"/>
      <use x="156.201172" xlink:href="#DejaVuSans-101"/>
      <use x="217.724609" xlink:href="#DejaVuSans-110"/>
      <use x="281.103516" xlink:href="#DejaVuSans-116"/>
      <use x="320.3125" xlink:href="#DejaVuSans-32"/>
      <use x="352.099609" xlink:href="#DejaVuSans-48"/>
     </g>
    </g>
   </g>
   <g id="matplotlib.axis_2">
    <g id="ytick_1">
     <g id="line2d_10">
      <defs>
       <path d="M 0 0 
L -3.5 0 
" id="mabd2456882" style="stroke:#000000;stroke-width:0.8;"/>
      </defs>
      <g>
       <use style="stroke:#000000;stroke-width:0.8;" x="90" xlink:href="#mabd2456882" y="630"/>
      </g>
     </g>
     <g id="text_11">
      <!-- −400 -->
      <g transform="translate(55.532812 633.799219)scale(0.1 -0.1)">
       <use xlink:href="#DejaVuSans-8722"/>
       <use x="83.789062" xlink:href="#DejaVuSans-52"/>
       <use x="147.412109" xlink:href="#DejaVuSans-48"/>
       <use x="211.035156" xlink:href="#DejaVuSans-48"/>
      </g>
     </g>
    </g>
    <g id="ytick_2">
     <g id="line2d_11">
      <g>
       <use style="stroke:#000000;stroke-width:0.8;" x="90" xlink:href="#mabd2456882" y="562.05"/>
      </g>
     </g>
     <g id="text_12">
      <!-- −300 -->
      <g transform="translate(55.532812 565.849219)scale(0.1 -0.1)">
       <use xlink:href="#DejaVuSans-8722"/>
       <use x="83.789062" xlink:href="#DejaVuSans-51"/>
       <use x="147.412109" xlink:href="#DejaVuSans-48"/>
       <use x="211.035156" xlink:href="#DejaVuSans-48"/>
      </g>
     </g>
    </g>
    <g id="ytick_3">
     <g id="line2d_12">
      <g>
       <use style="stroke:#000000;stroke-width:0.8;" x="90" xlink:href="#mabd2456882" y="494.1"/>
      </g>
     </g>
     <g id="text_13">
      <!-- −200 -->
      <g transform="translate(55.532812 497.899219)scale(0.1 -0.1)">
       <use xlink:href="#DejaVuSans-8722"/>
       <use x="83.789062" xlink:href="#DejaVuSans-50"/>
       <use x="147.412109" xlink:href="#DejaVuSans-48"/>
       <use x="211.035156" xlink:href="#DejaVuSans-48"/>
      </g>
     </g>
    </g>
    <g id="ytick_4">
     <g id="line2d_13">
      <g>
       <use style="stroke:#000000;stroke-width:0.8;" x="90" xlink:href="#mabd2456882" y="426.15"/>
      </g>
     </g>
     <g id="text_14">
      <!-- −100 -->
      <g transform="translate(55.532812 429.949219)scale(0.1 -0.1)">
       <use xlink:href="#DejaVuSans-8722"/>
       <use x="83.789062" xlink:href="#DejaVuSans-49"/>
       <use x="147.412109" xlink:href="#DejaVuSans-48"/>
       <use x="211.035156" xlink:href="#DejaVuSans-48"/>
      </g>
     </g>
    </g>
    <g id="ytick_5">
     <g id="line2d_14">
      <g>
       <use style="stroke:#000000;stroke-width:0.8;" x="90" xlink:href="#mabd2456882" y="358.2"/>
      </g>
     </g>
     <g id="text_15">
      <!-- 0 -->
      <g transform="translate(76.6375 361.999219)scale(0.1 -0.1)">
       <use xlink:href="#DejaVuSans-48"/>
      </g>
     </g>
    </g>
    <g id="ytick_6">
     <g id="line2d_15">
      <g>
       <use style="stroke:#000000;stroke-width:0.8;" x="90" xlink:href="#mabd2456882" y="290.25"/>
      </g>
     </g>
     <g id="text_16">
      <!-- 100 -->
      <g transform="translate(63.9125 294.049219)scale(0.1 -0.1)">
       <use xlink:href="#DejaVuSans-49"/>
       <use x="63.623047" xlink:href="#DejaVuSans-48"/>
       <use x="127.246094" xlink:href="#DejaVuSans-48"/>
      </g>
     </g>
    </g>
    <g id="ytick_7">
     <g id="line2d_16">
      <g>
       <use style="stroke:#000000;stroke-width:0.8;" x="90" xlink:href="#mabd2456882" y="222.3"/>
      </g>
     </g>
     <g id="text_17">
      <!-- 200 -->
      <g transform="translate(63.9125 226.099219)scale(0.1 -0.1)">
       <use xlink:href="#DejaVuSans-50"/>
       <use x="63.623047" xlink:href="#DejaVuSans-48"/>
       <use x="127.246094" xlink:href="#DejaVuSans-48"/>
      </g>
     </g>
    </g>
    <g id="ytick_8">
     <g id="line2d_17">
      <g>
       <use style="stroke:#000000;stroke-width:0.8;" x="90" xlink:href="#mabd2456882" y="154.35"/>
      </g>
     </g>
     <g id="text_18">
      <!-- 300 -->
      <g transform="translate(63.9125 158.149219)scale(0.1 -0.1)">
       <use xlink:href="#DejaVuSans-51"/>
       <use x="63.623047" xlink:href="#DejaVuSans-48"/>
       <use x="127.246094" xlink:href="#DejaVuSans-48"/>
      </g>
     </g>
    </g>
    <g id="ytick_9">
     <g id="line2d_18">
      <g>
       <use style="stroke:#000000;stroke-width:0.8;" x="90" xlink:href="#mabd2456882" y="86.4"/>
      </g>
     </g>
     <g id="text_19">
      <!-- 400 -->
      <g transform="translate(63.9125 90.199219)scale(0.1 -0.1)">
       <use xlink:href="#DejaVuSans-52"/>
       <use x="63.623047" xlink:href="#DejaVuSans-48"/>
       <use x="127.246094" xlink:href="#DejaVuSans-48"/>
      </g>
     </g>
    </g>
    <g id="text_20">
     <!-- Latent 1 -->
     <g transform="translate(49.453125 378.985937)rotate(-90)scale(0.1 -0.1)">
      <use xlink:href="#DejaVuSans-76"/>
      <use x="55.712891" xlink:href="#DejaVuSans-97"/>
      <use x="116.992188" xlink:href="#DejaVuSans-116"/>
      <use x="156.201172" xlink:href="#DejaVuSans-101"/>
      <use x="217.724609" xlink:href="#DejaVuSans-110"/>
      <use x="281.103516" xlink:href="#DejaVuSans-116"/>
      <use x="320.3125" xlink:href="#DejaVuSans-32"/>
      <use x="352.099609" xlink:href="#DejaVuSans-49"/>
     </g>
    </g>
   </g>
   <g id="line2d_19">
    <path clip-path="url(#p97b49f85c1)" d="M 369 358.2 
L 431.514624 423.94626 
L 317.149247 255.916234 
L 358.082265 364.065607 
L 347.692113 380.814423 
L 302.429034 432.443654 
L 389.578983 550.814527 
L 310.076203 252.02686 
L 434.146458 382.161271 
L 403.79964 403.024413 
" style="fill:none;stroke:#808080;stroke-dasharray:3.2,0.8,0.5,0.8;stroke-dashoffset:0;stroke-width:0.5;"/>
   </g>
   <g id="line2d_20">
    <path clip-path="url(#p97b49f85c1)" d="M 389.578983 550.814527 
" style="fill:none;stroke:#d62728;stroke-linecap:square;stroke-width:1.5;"/>
    <defs>
     <path d="M 0 10 
C 2.652031 10 5.195799 8.946337 7.071068 7.071068 
C 8.946337 5.195799 10 2.652031 10 0 
C 10 -2.652031 8.946337 -5.195799 7.071068 -7.071068 
C 5.195799 -8.946337 2.652031 -10 0 -10 
C -2.652031 -10 -5.195799 -8.946337 -7.071068 -7.071068 
C -8.946337 -5.195799 -10 -2.652031 -10 0 
C -10 2.652031 -8.946337 5.195799 -7.071068 7.071068 
C -5.195799 8.946337 -2.652031 10 0 10 
z
" id="m13a79dc21b" style="stroke:#d62728;"/>
    </defs>
    <g clip-path="url(#p97b49f85c1)">
     <use style="fill:#d62728;stroke:#d62728;" x="389.578983" xlink:href="#m13a79dc21b" y="550.814527"/>
    </g>
   </g>
   <g id="line2d_21">
    <path clip-path="url(#p97b49f85c1)" d="M 369 358.2 
L 467.933068 433.942642 
L 526.743271 327.55078 
L 321.330075 318.089497 
L 411.489413 356.106429 
L 427.804701 343.557841 
L 240.738875 373.046283 
L 380.337974 431.820081 
L 407.885239 328.189732 
L 498.693599 434.484331 
" style="fill:none;stroke:#808080;stroke-dasharray:3.2,0.8,0.5,0.8;stroke-dashoffset:0;stroke-width:0.5;"/>
   </g>
   <g id="line2d_22">
    <path clip-path="url(#p97b49f85c1)" d="M 240.738875 373.046283 
" style="fill:none;stroke:#d62728;stroke-linecap:square;stroke-width:1.5;"/>
    <g clip-path="url(#p97b49f85c1)">
     <use style="fill:#d62728;stroke:#d62728;" x="240.738875" xlink:href="#m13a79dc21b" y="373.046283"/>
    </g>
   </g>
   <g id="line2d_23">
    <path clip-path="url(#p97b49f85c1)" d="M 369 358.2 
L 420.095637 460.961954 
L 409.075087 291.152399 
L 354.460068 392.024794 
L 358.196859 421.216751 
L 320.310406 455.416578 
L 431.37717 523.661101 
L 321.308092 275.443046 
L 460.129041 387.343511 
L 419.250301 454.694226 
" style="fill:none;stroke:#808080;stroke-dasharray:3.2,0.8,0.5,0.8;stroke-dashoffset:0;stroke-width:0.5;"/>
   </g>
   <g id="line2d_24">
    <path clip-path="url(#p97b49f85c1)" d="M 431.37717 523.661101 
" style="fill:none;stroke:#d62728;stroke-linecap:square;stroke-width:1.5;"/>
    <g clip-path="url(#p97b49f85c1)">
     <use style="fill:#d62728;stroke:#d62728;" x="431.37717" xlink:href="#m13a79dc21b" y="523.661101"/>
    </g>
   </g>
   <g id="line2d_25">
    <path clip-path="url(#p97b49f85c1)" d="M 369 358.2 
L 326.631228 405.473795 
L 328.211392 391.705254 
L 371.46485 224.179522 
L 422.166351 265.938237 
L 514.761195 331.339708 
L 152.787708 441.265433 
L 321.246995 470.295239 
L 376.020028 316.479096 
L 487.828314 382.720672 
" style="fill:none;stroke:#808080;stroke-dasharray:3.2,0.8,0.5,0.8;stroke-dashoffset:0;stroke-width:0.5;"/>
   </g>
   <g id="line2d_26">
    <path clip-path="url(#p97b49f85c1)" d="M 152.787708 441.265433 
" style="fill:none;stroke:#d62728;stroke-linecap:square;stroke-width:1.5;"/>
    <g clip-path="url(#p97b49f85c1)">
     <use style="fill:#d62728;stroke:#d62728;" x="152.787708" xlink:href="#m13a79dc21b" y="441.265433"/>
    </g>
   </g>
   <g id="line2d_27">
    <path clip-path="url(#p97b49f85c1)" d="M 369 358.2 
L 427.055934 281.740521 
L 461.866725 387.896377 
L 391.572441 241.7001 
L 424.86952 294.301048 
L 518.30605 357.926162 
L 197.599049 401.621199 
L 369.970548 464.089918 
L 362.876335 406.673449 
L 340.373977 410.04903 
" style="fill:none;stroke:#808080;stroke-dasharray:3.2,0.8,0.5,0.8;stroke-dashoffset:0;stroke-width:0.5;"/>
   </g>
   <g id="line2d_28">
    <path clip-path="url(#p97b49f85c1)" d="M 197.599049 401.621199 
" style="fill:none;stroke:#d62728;stroke-linecap:square;stroke-width:1.5;"/>
    <g clip-path="url(#p97b49f85c1)">
     <use style="fill:#d62728;stroke:#d62728;" x="197.599049" xlink:href="#m13a79dc21b" y="401.621199"/>
    </g>
   </g>
   <g id="line2d_29">
    <path clip-path="url(#p97b49f85c1)" d="M 369 358.2 
L 388.201858 261.316526 
L 377.143804 546.141223 
L 306.784045 473.861619 
L 300.378824 301.972977 
L 342.387405 295.750714 
L 581.002877 442.739765 
L 476.255546 273.148614 
L 298.295796 360.059824 
L 253.278528 322.717479 
" style="fill:none;stroke:#808080;stroke-dasharray:3.2,0.8,0.5,0.8;stroke-dashoffset:0;stroke-width:0.5;"/>
   </g>
   <g id="line2d_30">
    <path clip-path="url(#p97b49f85c1)" d="M 581.002877 442.739765 
" style="fill:none;stroke:#2ca02c;stroke-linecap:square;stroke-width:1.5;"/>
    <defs>
     <path d="M 0 10 
C 2.652031 10 5.195799 8.946337 7.071068 7.071068 
C 8.946337 5.195799 10 2.652031 10 0 
C 10 -2.652031 8.946337 -5.195799 7.071068 -7.071068 
C 5.195799 -8.946337 2.652031 -10 0 -10 
C -2.652031 -10 -5.195799 -8.946337 -7.071068 -7.071068 
C -8.946337 -5.195799 -10 -2.652031 -10 0 
C -10 2.652031 -8.946337 5.195799 -7.071068 7.071068 
C -5.195799 8.946337 -2.652031 10 0 10 
z
" id="medd5412c6e" style="stroke:#2ca02c;"/>
    </defs>
    <g clip-path="url(#p97b49f85c1)">
     <use style="fill:#2ca02c;stroke:#2ca02c;" x="581.002877" xlink:href="#medd5412c6e" y="442.739765"/>
    </g>
   </g>
   <g id="line2d_31">
    <path clip-path="url(#p97b49f85c1)" d="M 369 358.2 
L 348.973192 283.647576 
L 281.636747 407.179979 
L 392.323444 298.377302 
L 408.614399 337.190832 
L 256.880483 417.13268 
L 343.081342 173.214917 
L 418.473516 422.099968 
L 332.043638 378.970796 
L 299.542076 359.247423 
" style="fill:none;stroke:#808080;stroke-dasharray:3.2,0.8,0.5,0.8;stroke-dashoffset:0;stroke-width:0.5;"/>
   </g>
   <g id="line2d_32">
    <path clip-path="url(#p97b49f85c1)" d="M 343.081342 173.214917 
" style="fill:none;stroke:#2ca02c;stroke-linecap:square;stroke-width:1.5;"/>
    <g clip-path="url(#p97b49f85c1)">
     <use style="fill:#2ca02c;stroke:#2ca02c;" x="343.081342" xlink:href="#medd5412c6e" y="173.214917"/>
    </g>
   </g>
   <g id="line2d_33">
    <path clip-path="url(#p97b49f85c1)" d="M 369 358.2 
L 287.262591 318.437518 
L 354.21086 467.581096 
L 320.641153 445.095308 
L 328.547243 315.7592 
L 402.50867 397.108244 
L 319.374843 350.946277 
L 333.168018 423.64001 
L 405.464698 306.500518 
L 481.349033 464.313211 
" style="fill:none;stroke:#808080;stroke-dasharray:3.2,0.8,0.5,0.8;stroke-dashoffset:0;stroke-width:0.5;"/>
   </g>
   <g id="line2d_34">
    <path clip-path="url(#p97b49f85c1)" d="M 319.374843 350.946277 
" style="fill:none;stroke:#2ca02c;stroke-linecap:square;stroke-width:1.5;"/>
    <g clip-path="url(#p97b49f85c1)">
     <use style="fill:#2ca02c;stroke:#2ca02c;" x="319.374843" xlink:href="#medd5412c6e" y="350.946277"/>
    </g>
   </g>
   <g id="line2d_35">
    <path clip-path="url(#p97b49f85c1)" d="M 369 358.2 
L 359.396024 322.738591 
L 396.447744 463.490006 
L 352.972714 419.605961 
L 297.166994 361.564876 
L 322.834128 255.206137 
L 655.158677 338.841841 
L 441.451216 321.332646 
L 272.815712 364.30979 
L 234.142181 298.087164 
" style="fill:none;stroke:#808080;stroke-dasharray:3.2,0.8,0.5,0.8;stroke-dashoffset:0;stroke-width:0.5;"/>
   </g>
   <g id="line2d_36">
    <path clip-path="url(#p97b49f85c1)" d="M 655.158677 338.841841 
" style="fill:none;stroke:#2ca02c;stroke-linecap:square;stroke-width:1.5;"/>
    <g clip-path="url(#p97b49f85c1)">
     <use style="fill:#2ca02c;stroke:#2ca02c;" x="655.158677" xlink:href="#medd5412c6e" y="338.841841"/>
    </g>
   </g>
   <g id="line2d_37">
    <path clip-path="url(#p97b49f85c1)" d="M 369 358.2 
L 377.015632 304.449923 
L 278.455622 308.602726 
L 378.599998 331.210622 
L 416.39061 381.99417 
L 278.888483 500.914772 
L 269.588646 554.419664 
L 271.26409 245.564114 
L 411.164514 420.821971 
L 481.345713 331.111337 
" style="fill:none;stroke:#808080;stroke-dasharray:3.2,0.8,0.5,0.8;stroke-dashoffset:0;stroke-width:0.5;"/>
   </g>
   <g id="line2d_38">
    <path clip-path="url(#p97b49f85c1)" d="M 269.588646 554.419664 
" style="fill:none;stroke:#2ca02c;stroke-linecap:square;stroke-width:1.5;"/>
    <g clip-path="url(#p97b49f85c1)">
     <use style="fill:#2ca02c;stroke:#2ca02c;" x="269.588646" xlink:href="#medd5412c6e" y="554.419664"/>
    </g>
   </g>
   <g id="line2d_39">
    <path clip-path="url(#p97b49f85c1)" d="M 369 358.2 
L 309.446515 294.053302 
L 314.776649 476.481306 
L 410.673491 261.66229 
L 405.109743 277.685222 
L 473.307987 365.479353 
L 280.249596 166.138458 
L 461.269599 446.032156 
L 336.535117 421.608918 
L 292.482767 421.62376 
" style="fill:none;stroke:#808080;stroke-dasharray:3.2,0.8,0.5,0.8;stroke-dashoffset:0;stroke-width:0.5;"/>
   </g>
   <g id="line2d_40">
    <path clip-path="url(#p97b49f85c1)" d="M 280.249596 166.138458 
" style="fill:none;stroke:#2ca02c;stroke-linecap:square;stroke-width:1.5;"/>
    <g clip-path="url(#p97b49f85c1)">
     <use style="fill:#2ca02c;stroke:#2ca02c;" x="280.249596" xlink:href="#medd5412c6e" y="166.138458"/>
    </g>
   </g>
   <g id="line2d_41">
    <path clip-path="url(#p97b49f85c1)" d="M 369 358.2 
L 474.664481 331.235573 
L 500.532199 507.501244 
L 375.745801 434.118899 
L 280.261532 381.213342 
L 294.880519 231.287926 
L 553.909447 339.494006 
L 478.211667 304.168796 
L 259.967944 345.711142 
L 185.580382 299.723621 
" style="fill:none;stroke:#808080;stroke-dasharray:3.2,0.8,0.5,0.8;stroke-dashoffset:0;stroke-width:0.5;"/>
   </g>
   <g id="line2d_42">
    <path clip-path="url(#p97b49f85c1)" d="M 553.909447 339.494006 
" style="fill:none;stroke:#2ca02c;stroke-linecap:square;stroke-width:1.5;"/>
    <g clip-path="url(#p97b49f85c1)">
     <use style="fill:#2ca02c;stroke:#2ca02c;" x="553.909447" xlink:href="#medd5412c6e" y="339.494006"/>
    </g>
   </g>
   <g id="line2d_43">
    <path clip-path="url(#p97b49f85c1)" d="M 369 358.2 
L 315.384668 324.476933 
L 392.327698 504.971969 
L 412.746993 238.339698 
L 439.9871 280.492603 
L 469.83377 314.924655 
L 269.092821 213.130265 
L 451.903488 420.63097 
L 319.96372 425.365303 
L 266.392882 422.420925 
" style="fill:none;stroke:#808080;stroke-dasharray:3.2,0.8,0.5,0.8;stroke-dashoffset:0;stroke-width:0.5;"/>
   </g>
   <g id="line2d_44">
    <path clip-path="url(#p97b49f85c1)" d="M 269.092821 213.130265 
" style="fill:none;stroke:#2ca02c;stroke-linecap:square;stroke-width:1.5;"/>
    <g clip-path="url(#p97b49f85c1)">
     <use style="fill:#2ca02c;stroke:#2ca02c;" x="269.092821" xlink:href="#medd5412c6e" y="213.130265"/>
    </g>
   </g>
   <g id="line2d_45">
    <path clip-path="url(#p97b49f85c1)" d="M 369 358.2 
L 452.762001 349.298241 
L 514.422726 474.266886 
L 363.552839 455.350946 
L 274.929583 330.713175 
L 274.352583 263.127275 
L 605.941184 303.199547 
L 445.560065 261.20488 
L 274.470072 325.542498 
L 225.134367 267.432586 
" style="fill:none;stroke:#808080;stroke-dasharray:3.2,0.8,0.5,0.8;stroke-dashoffset:0;stroke-width:0.5;"/>
   </g>
   <g id="line2d_46">
    <path clip-path="url(#p97b49f85c1)" d="M 605.941184 303.199547 
" style="fill:none;stroke:#2ca02c;stroke-linecap:square;stroke-width:1.5;"/>
    <g clip-path="url(#p97b49f85c1)">
     <use style="fill:#2ca02c;stroke:#2ca02c;" x="605.941184" xlink:href="#medd5412c6e" y="303.199547"/>
    </g>
   </g>
   <g id="line2d_47">
    <path clip-path="url(#p97b49f85c1)" d="M 369 358.2 
L 382.058523 348.782256 
L 412.374451 423.603835 
L 371.347221 404.661974 
L 380.080041 414.64341 
L 275.469652 300.805636 
L 597.038821 369.991149 
L 451.69372 294.833478 
L 301.554823 340.793017 
L 260.967525 283.42642 
" style="fill:none;stroke:#808080;stroke-dasharray:3.2,0.8,0.5,0.8;stroke-dashoffset:0;stroke-width:0.5;"/>
   </g>
   <g id="line2d_48">
    <path clip-path="url(#p97b49f85c1)" d="M 597.038821 369.991149 
" style="fill:none;stroke:#2ca02c;stroke-linecap:square;stroke-width:1.5;"/>
    <g clip-path="url(#p97b49f85c1)">
     <use style="fill:#2ca02c;stroke:#2ca02c;" x="597.038821" xlink:href="#medd5412c6e" y="369.991149"/>
    </g>
   </g>
   <g id="line2d_49">
    <path clip-path="url(#p97b49f85c1)" d="M 369 358.2 
L 505.582007 465.790213 
L 520.136775 239.429142 
L 281.650646 335.924257 
L 317.723416 421.162084 
L 388.475361 442.416164 
L 300.742256 493.767881 
L 276.977787 318.951228 
L 401.19556 391.205101 
L 449.756751 363.32688 
" style="fill:none;stroke:#808080;stroke-dasharray:3.2,0.8,0.5,0.8;stroke-dashoffset:0;stroke-width:0.5;"/>
   </g>
   <g id="line2d_50">
    <path clip-path="url(#p97b49f85c1)" d="M 300.742256 493.767881 
" style="fill:none;stroke:#2ca02c;stroke-linecap:square;stroke-width:1.5;"/>
    <g clip-path="url(#p97b49f85c1)">
     <use style="fill:#2ca02c;stroke:#2ca02c;" x="300.742256" xlink:href="#medd5412c6e" y="493.767881"/>
    </g>
   </g>
   <g id="line2d_51">
    <path clip-path="url(#p97b49f85c1)" d="M 369 358.2 
L 408.258465 507.04991 
L 387.118753 220.00592 
L 377.583342 355.534054 
L 361.503527 396.325341 
L 362.857347 375.082139 
L 442.124642 412.866618 
L 338.145715 328.450286 
L 437.22871 349.891131 
L 391.5401 364.707083 
" style="fill:none;stroke:#808080;stroke-dasharray:3.2,0.8,0.5,0.8;stroke-dashoffset:0;stroke-width:0.5;"/>
   </g>
   <g id="line2d_52">
    <path clip-path="url(#p97b49f85c1)" d="M 442.124642 412.866618 
" style="fill:none;stroke:#2ca02c;stroke-linecap:square;stroke-width:1.5;"/>
    <g clip-path="url(#p97b49f85c1)">
     <use style="fill:#2ca02c;stroke:#2ca02c;" x="442.124642" xlink:href="#medd5412c6e" y="412.866618"/>
    </g>
   </g>
   <g id="line2d_53">
    <path clip-path="url(#p97b49f85c1)" d="M 369 358.2 
L 350.10377 480.340768 
L 560.196845 478.940626 
L 391.2854 420.186158 
L 278.512551 353.932475 
L 316.449693 326.810161 
L 380.354843 438.471806 
L 287.229561 269.498966 
L 447.761699 400.600252 
L 421.314889 428.314164 
" style="fill:none;stroke:#808080;stroke-dasharray:3.2,0.8,0.5,0.8;stroke-dashoffset:0;stroke-width:0.5;"/>
   </g>
   <g id="line2d_54">
    <path clip-path="url(#p97b49f85c1)" d="M 380.354843 438.471806 
" style="fill:none;stroke:#2ca02c;stroke-linecap:square;stroke-width:1.5;"/>
    <g clip-path="url(#p97b49f85c1)">
     <use style="fill:#2ca02c;stroke:#2ca02c;" x="380.354843" xlink:href="#medd5412c6e" y="438.471806"/>
    </g>
   </g>
   <g id="line2d_55">
    <path clip-path="url(#p97b49f85c1)" d="M 369 358.2 
L 417.491693 324.082352 
L 478.71373 434.368745 
L 328.256274 426.902685 
L 261.785003 367.282893 
L 305.037783 284.157409 
L 627.62999 406.820425 
L 424.823606 288.472062 
L 281.230242 345.755772 
L 204.641973 302.541878 
" style="fill:none;stroke:#808080;stroke-dasharray:3.2,0.8,0.5,0.8;stroke-dashoffset:0;stroke-width:0.5;"/>
   </g>
   <g id="line2d_56">
    <path clip-path="url(#p97b49f85c1)" d="M 627.62999 406.820425 
" style="fill:none;stroke:#2ca02c;stroke-linecap:square;stroke-width:1.5;"/>
    <g clip-path="url(#p97b49f85c1)">
     <use style="fill:#2ca02c;stroke:#2ca02c;" x="627.62999" xlink:href="#medd5412c6e" y="406.820425"/>
    </g>
   </g>
   <g id="line2d_57">
    <path clip-path="url(#p97b49f85c1)" d="M 369 358.2 
L 287.447503 349.85194 
L 237.836059 312.981176 
L 361.036524 252.82119 
L 404.760551 312.509436 
L 443.261719 290.196893 
L 228.517906 330.218636 
L 351.543804 417.212588 
L 383.237864 359.952842 
L 411.593725 341.912827 
" style="fill:none;stroke:#808080;stroke-dasharray:3.2,0.8,0.5,0.8;stroke-dashoffset:0;stroke-width:0.5;"/>
   </g>
   <g id="line2d_58">
    <path clip-path="url(#p97b49f85c1)" d="M 228.517906 330.218636 
" style="fill:none;stroke:#2ca02c;stroke-linecap:square;stroke-width:1.5;"/>
    <g clip-path="url(#p97b49f85c1)">
     <use style="fill:#2ca02c;stroke:#2ca02c;" x="228.517906" xlink:href="#medd5412c6e" y="330.218636"/>
    </g>
   </g>
   <g id="line2d_59">
    <path clip-path="url(#p97b49f85c1)" d="M 369 358.2 
L 363.806056 397.917652 
L 381.929968 386.802319 
L 373.330369 261.445871 
L 365.025011 301.515396 
L 476.218754 265.520901 
L 292.250361 315.865717 
L 302.403687 391.2573 
L 423.481129 317.82226 
L 470.544925 437.565032 
" style="fill:none;stroke:#808080;stroke-dasharray:3.2,0.8,0.5,0.8;stroke-dashoffset:0;stroke-width:0.5;"/>
   </g>
   <g id="line2d_60">
    <path clip-path="url(#p97b49f85c1)" d="M 292.250361 315.865717 
" style="fill:none;stroke:#2ca02c;stroke-linecap:square;stroke-width:1.5;"/>
    <g clip-path="url(#p97b49f85c1)">
     <use style="fill:#2ca02c;stroke:#2ca02c;" x="292.250361" xlink:href="#medd5412c6e" y="315.865717"/>
    </g>
   </g>
   <g id="line2d_61">
    <path clip-path="url(#p97b49f85c1)" d="M 369 358.2 
L 296.17299 392.161594 
L 285.172029 367.238894 
L 390.704294 274.898801 
L 383.82552 307.634255 
L 422.460705 263.783695 
L 475.476383 132.087769 
L 446.148043 361.288973 
L 292.07199 380.973644 
L 280.477574 305.043957 
" style="fill:none;stroke:#808080;stroke-dasharray:3.2,0.8,0.5,0.8;stroke-dashoffset:0;stroke-width:0.5;"/>
   </g>
   <g id="line2d_62">
    <path clip-path="url(#p97b49f85c1)" d="M 475.476383 132.087769 
" style="fill:none;stroke:#2ca02c;stroke-linecap:square;stroke-width:1.5;"/>
    <g clip-path="url(#p97b49f85c1)">
     <use style="fill:#2ca02c;stroke:#2ca02c;" x="475.476383" xlink:href="#medd5412c6e" y="132.087769"/>
    </g>
   </g>
   <g id="line2d_63">
    <path clip-path="url(#p97b49f85c1)" d="M 369 358.2 
L 399.479274 474.145494 
L 373.821287 264.050369 
L 339.443328 312.536311 
L 367.224152 355.430001 
L 392.078162 270.252901 
L 487.034474 154.692052 
L 404.038708 345.63428 
L 458.205856 312.014135 
L 359.023392 307.216597 
" style="fill:none;stroke:#808080;stroke-dasharray:3.2,0.8,0.5,0.8;stroke-dashoffset:0;stroke-width:0.5;"/>
   </g>
   <g id="line2d_64">
    <path clip-path="url(#p97b49f85c1)" d="M 487.034474 154.692052 
" style="fill:none;stroke:#2ca02c;stroke-linecap:square;stroke-width:1.5;"/>
    <g clip-path="url(#p97b49f85c1)">
     <use style="fill:#2ca02c;stroke:#2ca02c;" x="487.034474" xlink:href="#medd5412c6e" y="154.692052"/>
    </g>
   </g>
   <g id="line2d_65">
    <path clip-path="url(#p97b49f85c1)" d="M 369 358.2 
L 486.962005 418.028769 
L 494.013454 305.327972 
L 318.512568 340.310637 
L 376.062685 371.946661 
L 393.961884 346.777344 
L 384.653766 193.208554 
L 362.656356 349.222388 
L 467.049091 331.175217 
L 393.098454 313.08461 
" style="fill:none;stroke:#808080;stroke-dasharray:3.2,0.8,0.5,0.8;stroke-dashoffset:0;stroke-width:0.5;"/>
   </g>
   <g id="line2d_66">
    <path clip-path="url(#p97b49f85c1)" d="M 384.653766 193.208554 
" style="fill:none;stroke:#2ca02c;stroke-linecap:square;stroke-width:1.5;"/>
    <g clip-path="url(#p97b49f85c1)">
     <use style="fill:#2ca02c;stroke:#2ca02c;" x="384.653766" xlink:href="#medd5412c6e" y="193.208554"/>
    </g>
   </g>
   <g id="line2d_67">
    <path clip-path="url(#p97b49f85c1)" d="M 369 358.2 
L 318.535461 356.261968 
L 256.406231 275.354371 
L 379.613733 377.900188 
L 372.267088 440.704484 
L 283.797048 461.448478 
L 356.029747 513.822245 
L 258.179472 300.846575 
L 413.955688 380.893036 
L 434.32649 382.197057 
" style="fill:none;stroke:#808080;stroke-dasharray:3.2,0.8,0.5,0.8;stroke-dashoffset:0;stroke-width:0.5;"/>
   </g>
   <g id="line2d_68">
    <path clip-path="url(#p97b49f85c1)" d="M 356.029747 513.822245 
" style="fill:none;stroke:#2ca02c;stroke-linecap:square;stroke-width:1.5;"/>
    <g clip-path="url(#p97b49f85c1)">
     <use style="fill:#2ca02c;stroke:#2ca02c;" x="356.029747" xlink:href="#medd5412c6e" y="513.822245"/>
    </g>
   </g>
   <g id="line2d_69">
    <path clip-path="url(#p97b49f85c1)" d="M 369 358.2 
L 364.569158 369.311799 
L 336.397239 353.757872 
L 346.859198 441.942232 
L 257.672003 344.133131 
L 283.832984 332.126945 
L 543.616809 405.699358 
L 320.355016 354.389579 
L 444.847117 330.253077 
L 371.703425 335.832391 
" style="fill:none;stroke:#808080;stroke-dasharray:3.2,0.8,0.5,0.8;stroke-dashoffset:0;stroke-width:0.5;"/>
   </g>
   <g id="line2d_70">
    <path clip-path="url(#p97b49f85c1)" d="M 543.616809 405.699358 
" style="fill:none;stroke:#2ca02c;stroke-linecap:square;stroke-width:1.5;"/>
    <g clip-path="url(#p97b49f85c1)">
     <use style="fill:#2ca02c;stroke:#2ca02c;" x="543.616809" xlink:href="#medd5412c6e" y="405.699358"/>
    </g>
   </g>
   <g id="line2d_71">
    <path clip-path="url(#p97b49f85c1)" d="M 369 358.2 
L 272.81287 290.793597 
L 347.076022 518.099344 
L 373.84385 294.40721 
L 430.644447 345.695737 
L 239.727502 437.335088 
L 258.239084 425.950518 
L 405.091839 452.677053 
L 353.825154 387.979697 
L 333.273746 376.299061 
" style="fill:none;stroke:#808080;stroke-dasharray:3.2,0.8,0.5,0.8;stroke-dashoffset:0;stroke-width:0.5;"/>
   </g>
   <g id="line2d_72">
    <path clip-path="url(#p97b49f85c1)" d="M 258.239084 425.950518 
" style="fill:none;stroke:#2ca02c;stroke-linecap:square;stroke-width:1.5;"/>
    <g clip-path="url(#p97b49f85c1)">
     <use style="fill:#2ca02c;stroke:#2ca02c;" x="258.239084" xlink:href="#medd5412c6e" y="425.950518"/>
    </g>
   </g>
   <g id="line2d_73">
    <path clip-path="url(#p97b49f85c1)" d="M 369 358.2 
L 517.538977 429.093828 
L 530.561396 284.381194 
L 302.482957 347.777376 
L 340.026738 401.02805 
L 345.746529 403.296685 
L 432.485048 470.303741 
L 283.074771 356.97239 
L 374.706521 365.22251 
L 309.330118 390.117264 
" style="fill:none;stroke:#808080;stroke-dasharray:3.2,0.8,0.5,0.8;stroke-dashoffset:0;stroke-width:0.5;"/>
   </g>
   <g id="line2d_74">
    <path clip-path="url(#p97b49f85c1)" d="M 432.485048 470.303741 
" style="fill:none;stroke:#2ca02c;stroke-linecap:square;stroke-width:1.5;"/>
    <g clip-path="url(#p97b49f85c1)">
     <use style="fill:#2ca02c;stroke:#2ca02c;" x="432.485048" xlink:href="#medd5412c6e" y="470.303741"/>
    </g>
   </g>
   <g id="line2d_75">
    <path clip-path="url(#p97b49f85c1)" d="M 369 358.2 
L 401.943835 402.885513 
L 416.777691 364.164895 
L 332.482079 464.79423 
L 300.343132 334.253854 
L 337.273103 350.068568 
L 494.167863 375.573236 
L 349.421105 370.965979 
L 482.967132 317.887825 
L 392.145054 284.592921 
" style="fill:none;stroke:#808080;stroke-dasharray:3.2,0.8,0.5,0.8;stroke-dashoffset:0;stroke-width:0.5;"/>
   </g>
   <g id="line2d_76">
    <path clip-path="url(#p97b49f85c1)" d="M 494.167863 375.573236 
" style="fill:none;stroke:#2ca02c;stroke-linecap:square;stroke-width:1.5;"/>
    <g clip-path="url(#p97b49f85c1)">
     <use style="fill:#2ca02c;stroke:#2ca02c;" x="494.167863" xlink:href="#medd5412c6e" y="375.573236"/>
    </g>
   </g>
   <g id="patch_3">
    <path d="M 90 630 
L 90 86.4 
" style="fill:none;stroke:#000000;stroke-linecap:square;stroke-linejoin:miter;stroke-width:0.8;"/>
   </g>
   <g id="patch_4">
    <path d="M 648 630 
L 648 86.4 
" style="fill:none;stroke:#000000;stroke-linecap:square;stroke-linejoin:miter;stroke-width:0.8;"/>
   </g>
   <g id="patch_5">
    <path d="M 90 630 
L 648 630 
" style="fill:none;stroke:#000000;stroke-linecap:square;stroke-linejoin:miter;stroke-width:0.8;"/>
   </g>
   <g id="patch_6">
    <path d="M 90 86.4 
L 648 86.4 
" style="fill:none;stroke:#000000;stroke-linecap:square;stroke-linejoin:miter;stroke-width:0.8;"/>
   </g>
   <g id="text_21">
    <!-- Unlearned Trials: Same Direction, Different Rule -->
    <g transform="translate(225.694688 80.4)scale(0.12 -0.12)">
     <defs>
      <path d="M 8.6875 72.90625 
L 18.609375 72.90625 
L 18.609375 28.609375 
Q 18.609375 16.890625 22.84375 11.734375 
Q 27.09375 6.59375 36.625 6.59375 
Q 46.09375 6.59375 50.34375 11.734375 
Q 54.59375 16.890625 54.59375 28.609375 
L 54.59375 72.90625 
L 64.5 72.90625 
L 64.5 27.390625 
Q 64.5 13.140625 57.4375 5.859375 
Q 50.390625 -1.421875 36.625 -1.421875 
Q 22.796875 -1.421875 15.734375 5.859375 
Q 8.6875 13.140625 8.6875 27.390625 
z
" id="DejaVuSans-85"/>
      <path d="M 9.421875 75.984375 
L 18.40625 75.984375 
L 18.40625 0 
L 9.421875 0 
z
" id="DejaVuSans-108"/>
      <path d="M 41.109375 46.296875 
Q 39.59375 47.171875 37.8125 47.578125 
Q 36.03125 48 33.890625 48 
Q 26.265625 48 22.1875 43.046875 
Q 18.109375 38.09375 18.109375 28.8125 
L 18.109375 0 
L 9.078125 0 
L 9.078125 54.6875 
L 18.109375 54.6875 
L 18.109375 46.1875 
Q 20.953125 51.171875 25.484375 53.578125 
Q 30.03125 56 36.53125 56 
Q 37.453125 56 38.578125 55.875 
Q 39.703125 55.765625 41.0625 55.515625 
z
" id="DejaVuSans-114"/>
      <path d="M 45.40625 46.390625 
L 45.40625 75.984375 
L 54.390625 75.984375 
L 54.390625 0 
L 45.40625 0 
L 45.40625 8.203125 
Q 42.578125 3.328125 38.25 0.953125 
Q 33.9375 -1.421875 27.875 -1.421875 
Q 17.96875 -1.421875 11.734375 6.484375 
Q 5.515625 14.40625 5.515625 27.296875 
Q 5.515625 40.1875 11.734375 48.09375 
Q 17.96875 56 27.875 56 
Q 33.9375 56 38.25 53.625 
Q 42.578125 51.265625 45.40625 46.390625 
z
M 14.796875 27.296875 
Q 14.796875 17.390625 18.875 11.75 
Q 22.953125 6.109375 30.078125 6.109375 
Q 37.203125 6.109375 41.296875 11.75 
Q 45.40625 17.390625 45.40625 27.296875 
Q 45.40625 37.203125 41.296875 42.84375 
Q 37.203125 48.484375 30.078125 48.484375 
Q 22.953125 48.484375 18.875 42.84375 
Q 14.796875 37.203125 14.796875 27.296875 
z
" id="DejaVuSans-100"/>
      <path d="M -0.296875 72.90625 
L 61.375 72.90625 
L 61.375 64.59375 
L 35.5 64.59375 
L 35.5 0 
L 25.59375 0 
L 25.59375 64.59375 
L -0.296875 64.59375 
z
" id="DejaVuSans-84"/>
      <path d="M 9.421875 54.6875 
L 18.40625 54.6875 
L 18.40625 0 
L 9.421875 0 
z
M 9.421875 75.984375 
L 18.40625 75.984375 
L 18.40625 64.59375 
L 9.421875 64.59375 
z
" id="DejaVuSans-105"/>
      <path d="M 44.28125 53.078125 
L 44.28125 44.578125 
Q 40.484375 46.53125 36.375 47.5 
Q 32.28125 48.484375 27.875 48.484375 
Q 21.1875 48.484375 17.84375 46.4375 
Q 14.5 44.390625 14.5 40.28125 
Q 14.5 37.15625 16.890625 35.375 
Q 19.28125 33.59375 26.515625 31.984375 
L 29.59375 31.296875 
Q 39.15625 29.25 43.1875 25.515625 
Q 47.21875 21.78125 47.21875 15.09375 
Q 47.21875 7.46875 41.1875 3.015625 
Q 35.15625 -1.421875 24.609375 -1.421875 
Q 20.21875 -1.421875 15.453125 -0.5625 
Q 10.6875 0.296875 5.421875 2 
L 5.421875 11.28125 
Q 10.40625 8.6875 15.234375 7.390625 
Q 20.0625 6.109375 24.8125 6.109375 
Q 31.15625 6.109375 34.5625 8.28125 
Q 37.984375 10.453125 37.984375 14.40625 
Q 37.984375 18.0625 35.515625 20.015625 
Q 33.0625 21.96875 24.703125 23.78125 
L 21.578125 24.515625 
Q 13.234375 26.265625 9.515625 29.90625 
Q 5.8125 33.546875 5.8125 39.890625 
Q 5.8125 47.609375 11.28125 51.796875 
Q 16.75 56 26.8125 56 
Q 31.78125 56 36.171875 55.265625 
Q 40.578125 54.546875 44.28125 53.078125 
z
" id="DejaVuSans-115"/>
      <path d="M 11.71875 12.40625 
L 22.015625 12.40625 
L 22.015625 0 
L 11.71875 0 
z
M 11.71875 51.703125 
L 22.015625 51.703125 
L 22.015625 39.3125 
L 11.71875 39.3125 
z
" id="DejaVuSans-58"/>
      <path d="M 53.515625 70.515625 
L 53.515625 60.890625 
Q 47.90625 63.578125 42.921875 64.890625 
Q 37.9375 66.21875 33.296875 66.21875 
Q 25.25 66.21875 20.875 63.09375 
Q 16.5 59.96875 16.5 54.203125 
Q 16.5 49.359375 19.40625 46.890625 
Q 22.3125 44.4375 30.421875 42.921875 
L 36.375 41.703125 
Q 47.40625 39.59375 52.65625 34.296875 
Q 57.90625 29 57.90625 20.125 
Q 57.90625 9.515625 50.796875 4.046875 
Q 43.703125 -1.421875 29.984375 -1.421875 
Q 24.8125 -1.421875 18.96875 -0.25 
Q 13.140625 0.921875 6.890625 3.21875 
L 6.890625 13.375 
Q 12.890625 10.015625 18.65625 8.296875 
Q 24.421875 6.59375 29.984375 6.59375 
Q 38.421875 6.59375 43.015625 9.90625 
Q 47.609375 13.234375 47.609375 19.390625 
Q 47.609375 24.75 44.3125 27.78125 
Q 41.015625 30.8125 33.5 32.328125 
L 27.484375 33.5 
Q 16.453125 35.6875 11.515625 40.375 
Q 6.59375 45.0625 6.59375 53.421875 
Q 6.59375 63.09375 13.40625 68.65625 
Q 20.21875 74.21875 32.171875 74.21875 
Q 37.3125 74.21875 42.625 73.28125 
Q 47.953125 72.359375 53.515625 70.515625 
z
" id="DejaVuSans-83"/>
      <path d="M 52 44.1875 
Q 55.375 50.25 60.0625 53.125 
Q 64.75 56 71.09375 56 
Q 79.640625 56 84.28125 50.015625 
Q 88.921875 44.046875 88.921875 33.015625 
L 88.921875 0 
L 79.890625 0 
L 79.890625 32.71875 
Q 79.890625 40.578125 77.09375 44.375 
Q 74.3125 48.1875 68.609375 48.1875 
Q 61.625 48.1875 57.5625 43.546875 
Q 53.515625 38.921875 53.515625 30.90625 
L 53.515625 0 
L 44.484375 0 
L 44.484375 32.71875 
Q 44.484375 40.625 41.703125 44.40625 
Q 38.921875 48.1875 33.109375 48.1875 
Q 26.21875 48.1875 22.15625 43.53125 
Q 18.109375 38.875 18.109375 30.90625 
L 18.109375 0 
L 9.078125 0 
L 9.078125 54.6875 
L 18.109375 54.6875 
L 18.109375 46.1875 
Q 21.1875 51.21875 25.484375 53.609375 
Q 29.78125 56 35.6875 56 
Q 41.65625 56 45.828125 52.96875 
Q 50 49.953125 52 44.1875 
z
" id="DejaVuSans-109"/>
      <path d="M 19.671875 64.796875 
L 19.671875 8.109375 
L 31.59375 8.109375 
Q 46.6875 8.109375 53.6875 14.9375 
Q 60.6875 21.78125 60.6875 36.53125 
Q 60.6875 51.171875 53.6875 57.984375 
Q 46.6875 64.796875 31.59375 64.796875 
z
M 9.8125 72.90625 
L 30.078125 72.90625 
Q 51.265625 72.90625 61.171875 64.09375 
Q 71.09375 55.28125 71.09375 36.53125 
Q 71.09375 17.671875 61.125 8.828125 
Q 51.171875 0 30.078125 0 
L 9.8125 0 
z
" id="DejaVuSans-68"/>
      <path d="M 48.78125 52.59375 
L 48.78125 44.1875 
Q 44.96875 46.296875 41.140625 47.34375 
Q 37.3125 48.390625 33.40625 48.390625 
Q 24.65625 48.390625 19.8125 42.84375 
Q 14.984375 37.3125 14.984375 27.296875 
Q 14.984375 17.28125 19.8125 11.734375 
Q 24.65625 6.203125 33.40625 6.203125 
Q 37.3125 6.203125 41.140625 7.25 
Q 44.96875 8.296875 48.78125 10.40625 
L 48.78125 2.09375 
Q 45.015625 0.34375 40.984375 -0.53125 
Q 36.96875 -1.421875 32.421875 -1.421875 
Q 20.0625 -1.421875 12.78125 6.34375 
Q 5.515625 14.109375 5.515625 27.296875 
Q 5.515625 40.671875 12.859375 48.328125 
Q 20.21875 56 33.015625 56 
Q 37.15625 56 41.109375 55.140625 
Q 45.0625 54.296875 48.78125 52.59375 
z
" id="DejaVuSans-99"/>
      <path d="M 30.609375 48.390625 
Q 23.390625 48.390625 19.1875 42.75 
Q 14.984375 37.109375 14.984375 27.296875 
Q 14.984375 17.484375 19.15625 11.84375 
Q 23.34375 6.203125 30.609375 6.203125 
Q 37.796875 6.203125 41.984375 11.859375 
Q 46.1875 17.53125 46.1875 27.296875 
Q 46.1875 37.015625 41.984375 42.703125 
Q 37.796875 48.390625 30.609375 48.390625 
z
M 30.609375 56 
Q 42.328125 56 49.015625 48.375 
Q 55.71875 40.765625 55.71875 27.296875 
Q 55.71875 13.875 49.015625 6.21875 
Q 42.328125 -1.421875 30.609375 -1.421875 
Q 18.84375 -1.421875 12.171875 6.21875 
Q 5.515625 13.875 5.515625 27.296875 
Q 5.515625 40.765625 12.171875 48.375 
Q 18.84375 56 30.609375 56 
z
" id="DejaVuSans-111"/>
      <path d="M 11.71875 12.40625 
L 22.015625 12.40625 
L 22.015625 4 
L 14.015625 -11.625 
L 7.71875 -11.625 
L 11.71875 4 
z
" id="DejaVuSans-44"/>
      <path d="M 37.109375 75.984375 
L 37.109375 68.5 
L 28.515625 68.5 
Q 23.6875 68.5 21.796875 66.546875 
Q 19.921875 64.59375 19.921875 59.515625 
L 19.921875 54.6875 
L 34.71875 54.6875 
L 34.71875 47.703125 
L 19.921875 47.703125 
L 19.921875 0 
L 10.890625 0 
L 10.890625 47.703125 
L 2.296875 47.703125 
L 2.296875 54.6875 
L 10.890625 54.6875 
L 10.890625 58.5 
Q 10.890625 67.625 15.140625 71.796875 
Q 19.390625 75.984375 28.609375 75.984375 
z
" id="DejaVuSans-102"/>
      <path d="M 44.390625 34.1875 
Q 47.5625 33.109375 50.5625 29.59375 
Q 53.5625 26.078125 56.59375 19.921875 
L 66.609375 0 
L 56 0 
L 46.6875 18.703125 
Q 43.0625 26.03125 39.671875 28.421875 
Q 36.28125 30.8125 30.421875 30.8125 
L 19.671875 30.8125 
L 19.671875 0 
L 9.8125 0 
L 9.8125 72.90625 
L 32.078125 72.90625 
Q 44.578125 72.90625 50.734375 67.671875 
Q 56.890625 62.453125 56.890625 51.90625 
Q 56.890625 45.015625 53.6875 40.46875 
Q 50.484375 35.9375 44.390625 34.1875 
z
M 19.671875 64.796875 
L 19.671875 38.921875 
L 32.078125 38.921875 
Q 39.203125 38.921875 42.84375 42.21875 
Q 46.484375 45.515625 46.484375 51.90625 
Q 46.484375 58.296875 42.84375 61.546875 
Q 39.203125 64.796875 32.078125 64.796875 
z
" id="DejaVuSans-82"/>
      <path d="M 8.5 21.578125 
L 8.5 54.6875 
L 17.484375 54.6875 
L 17.484375 21.921875 
Q 17.484375 14.15625 20.5 10.265625 
Q 23.53125 6.390625 29.59375 6.390625 
Q 36.859375 6.390625 41.078125 11.03125 
Q 45.3125 15.671875 45.3125 23.6875 
L 45.3125 54.6875 
L 54.296875 54.6875 
L 54.296875 0 
L 45.3125 0 
L 45.3125 8.40625 
Q 42.046875 3.421875 37.71875 1 
Q 33.40625 -1.421875 27.6875 -1.421875 
Q 18.265625 -1.421875 13.375 4.4375 
Q 8.5 10.296875 8.5 21.578125 
z
M 31.109375 56 
z
" id="DejaVuSans-117"/>
     </defs>
     <use xlink:href="#DejaVuSans-85"/>
     <use x="73.193359" xlink:href="#DejaVuSans-110"/>
     <use x="136.572266" xlink:href="#DejaVuSans-108"/>
     <use x="164.355469" xlink:href="#DejaVuSans-101"/>
     <use x="225.878906" xlink:href="#DejaVuSans-97"/>
     <use x="287.158203" xlink:href="#DejaVuSans-114"/>
     <use x="326.521484" xlink:href="#DejaVuSans-110"/>
     <use x="389.900391" xlink:href="#DejaVuSans-101"/>
     <use x="451.423828" xlink:href="#DejaVuSans-100"/>
     <use x="514.900391" xlink:href="#DejaVuSans-32"/>
     <use x="546.6875" xlink:href="#DejaVuSans-84"/>
     <use x="593.021484" xlink:href="#DejaVuSans-114"/>
     <use x="634.134766" xlink:href="#DejaVuSans-105"/>
     <use x="661.917969" xlink:href="#DejaVuSans-97"/>
     <use x="723.197266" xlink:href="#DejaVuSans-108"/>
     <use x="750.980469" xlink:href="#DejaVuSans-115"/>
     <use x="803.080078" xlink:href="#DejaVuSans-58"/>
     <use x="836.771484" xlink:href="#DejaVuSans-32"/>
     <use x="868.558594" xlink:href="#DejaVuSans-83"/>
     <use x="932.035156" xlink:href="#DejaVuSans-97"/>
     <use x="993.314453" xlink:href="#DejaVuSans-109"/>
     <use x="1090.726562" xlink:href="#DejaVuSans-101"/>
     <use x="1152.25" xlink:href="#DejaVuSans-32"/>
     <use x="1184.037109" xlink:href="#DejaVuSans-68"/>
     <use x="1261.039062" xlink:href="#DejaVuSans-105"/>
     <use x="1288.822266" xlink:href="#DejaVuSans-114"/>
     <use x="1327.685547" xlink:href="#DejaVuSans-101"/>
     <use x="1389.208984" xlink:href="#DejaVuSans-99"/>
     <use x="1444.189453" xlink:href="#DejaVuSans-116"/>
     <use x="1483.398438" xlink:href="#DejaVuSans-105"/>
     <use x="1511.181641" xlink:href="#DejaVuSans-111"/>
     <use x="1572.363281" xlink:href="#DejaVuSans-110"/>
     <use x="1635.742188" xlink:href="#DejaVuSans-44"/>
     <use x="1667.529297" xlink:href="#DejaVuSans-32"/>
     <use x="1699.316406" xlink:href="#DejaVuSans-68"/>
     <use x="1776.318359" xlink:href="#DejaVuSans-105"/>
     <use x="1804.101562" xlink:href="#DejaVuSans-102"/>
     <use x="1839.306641" xlink:href="#DejaVuSans-102"/>
     <use x="1874.511719" xlink:href="#DejaVuSans-101"/>
     <use x="1936.035156" xlink:href="#DejaVuSans-114"/>
     <use x="1974.898438" xlink:href="#DejaVuSans-101"/>
     <use x="2036.421875" xlink:href="#DejaVuSans-110"/>
     <use x="2099.800781" xlink:href="#DejaVuSans-116"/>
     <use x="2139.009766" xlink:href="#DejaVuSans-32"/>
     <use x="2170.796875" xlink:href="#DejaVuSans-82"/>
     <use x="2235.779297" xlink:href="#DejaVuSans-117"/>
     <use x="2299.158203" xlink:href="#DejaVuSans-108"/>
     <use x="2326.941406" xlink:href="#DejaVuSans-101"/>
    </g>
   </g>
   <g id="legend_1">
    <g id="patch_7">
     <path d="M 525.884375 123.75625 
L 641 123.75625 
Q 643 123.75625 643 121.75625 
L 643 93.4 
Q 643 91.4 641 91.4 
L 525.884375 91.4 
Q 523.884375 91.4 523.884375 93.4 
L 523.884375 121.75625 
Q 523.884375 123.75625 525.884375 123.75625 
z
" style="fill:#ffffff;opacity:0.8;stroke:#cccccc;stroke-linejoin:miter;"/>
    </g>
    <g id="line2d_77">
     <path d="M 527.884375 99.498437 
L 547.884375 99.498437 
" style="fill:none;stroke:#d62728;stroke-linecap:square;stroke-width:1.5;"/>
    </g>
    <g id="line2d_78">
     <g>
      <use style="fill:#d62728;stroke:#d62728;" x="537.884375" xlink:href="#m13a79dc21b" y="99.498437"/>
     </g>
    </g>
    <g id="text_22">
     <!-- Color Cue Period -->
     <g transform="translate(555.884375 102.998437)scale(0.1 -0.1)">
      <defs>
       <path d="M 64.40625 67.28125 
L 64.40625 56.890625 
Q 59.421875 61.53125 53.78125 63.8125 
Q 48.140625 66.109375 41.796875 66.109375 
Q 29.296875 66.109375 22.65625 58.46875 
Q 16.015625 50.828125 16.015625 36.375 
Q 16.015625 21.96875 22.65625 14.328125 
Q 29.296875 6.6875 41.796875 6.6875 
Q 48.140625 6.6875 53.78125 8.984375 
Q 59.421875 11.28125 64.40625 15.921875 
L 64.40625 5.609375 
Q 59.234375 2.09375 53.4375 0.328125 
Q 47.65625 -1.421875 41.21875 -1.421875 
Q 24.65625 -1.421875 15.125 8.703125 
Q 5.609375 18.84375 5.609375 36.375 
Q 5.609375 53.953125 15.125 64.078125 
Q 24.65625 74.21875 41.21875 74.21875 
Q 47.75 74.21875 53.53125 72.484375 
Q 59.328125 70.75 64.40625 67.28125 
z
" id="DejaVuSans-67"/>
       <path d="M 19.671875 64.796875 
L 19.671875 37.40625 
L 32.078125 37.40625 
Q 38.96875 37.40625 42.71875 40.96875 
Q 46.484375 44.53125 46.484375 51.125 
Q 46.484375 57.671875 42.71875 61.234375 
Q 38.96875 64.796875 32.078125 64.796875 
z
M 9.8125 72.90625 
L 32.078125 72.90625 
Q 44.34375 72.90625 50.609375 67.359375 
Q 56.890625 61.8125 56.890625 51.125 
Q 56.890625 40.328125 50.609375 34.8125 
Q 44.34375 29.296875 32.078125 29.296875 
L 19.671875 29.296875 
L 19.671875 0 
L 9.8125 0 
z
" id="DejaVuSans-80"/>
      </defs>
      <use xlink:href="#DejaVuSans-67"/>
      <use x="69.824219" xlink:href="#DejaVuSans-111"/>
      <use x="131.005859" xlink:href="#DejaVuSans-108"/>
      <use x="158.789062" xlink:href="#DejaVuSans-111"/>
      <use x="219.970703" xlink:href="#DejaVuSans-114"/>
      <use x="261.083984" xlink:href="#DejaVuSans-32"/>
      <use x="292.871094" xlink:href="#DejaVuSans-67"/>
      <use x="362.695312" xlink:href="#DejaVuSans-117"/>
      <use x="426.074219" xlink:href="#DejaVuSans-101"/>
      <use x="487.597656" xlink:href="#DejaVuSans-32"/>
      <use x="519.384766" xlink:href="#DejaVuSans-80"/>
      <use x="576.0625" xlink:href="#DejaVuSans-101"/>
      <use x="637.585938" xlink:href="#DejaVuSans-114"/>
      <use x="678.699219" xlink:href="#DejaVuSans-105"/>
      <use x="706.482422" xlink:href="#DejaVuSans-111"/>
      <use x="767.664062" xlink:href="#DejaVuSans-100"/>
     </g>
    </g>
    <g id="line2d_79">
     <path d="M 527.884375 114.176562 
L 547.884375 114.176562 
" style="fill:none;stroke:#2ca02c;stroke-linecap:square;stroke-width:1.5;"/>
    </g>
    <g id="line2d_80">
     <g>
      <use style="fill:#2ca02c;stroke:#2ca02c;" x="537.884375" xlink:href="#medd5412c6e" y="114.176562"/>
     </g>
    </g>
    <g id="text_23">
     <!-- Color Cue Period -->
     <g transform="translate(555.884375 117.676562)scale(0.1 -0.1)">
      <use xlink:href="#DejaVuSans-67"/>
      <use x="69.824219" xlink:href="#DejaVuSans-111"/>
      <use x="131.005859" xlink:href="#DejaVuSans-108"/>
      <use x="158.789062" xlink:href="#DejaVuSans-111"/>
      <use x="219.970703" xlink:href="#DejaVuSans-114"/>
      <use x="261.083984" xlink:href="#DejaVuSans-32"/>
      <use x="292.871094" xlink:href="#DejaVuSans-67"/>
      <use x="362.695312" xlink:href="#DejaVuSans-117"/>
      <use x="426.074219" xlink:href="#DejaVuSans-101"/>
      <use x="487.597656" xlink:href="#DejaVuSans-32"/>
      <use x="519.384766" xlink:href="#DejaVuSans-80"/>
      <use x="576.0625" xlink:href="#DejaVuSans-101"/>
      <use x="637.585938" xlink:href="#DejaVuSans-114"/>
      <use x="678.699219" xlink:href="#DejaVuSans-105"/>
      <use x="706.482422" xlink:href="#DejaVuSans-111"/>
      <use x="767.664062" xlink:href="#DejaVuSans-100"/>
     </g>
    </g>
   </g>
  </g>
 </g>
 <defs>
  <clipPath id="p97b49f85c1">
   <rect height="543.6" width="558" x="90" y="86.4"/>
  </clipPath>
 </defs>
</svg>
