<?xml version="1.0" encoding="utf-8" standalone="no"?>
<!DOCTYPE svg PUBLIC "-//W3C//DTD SVG 1.1//EN"
  "http://www.w3.org/Graphics/SVG/1.1/DTD/svg11.dtd">
<!-- Created with matplotlib (https://matplotlib.org/) -->
<svg height="288pt" version="1.1" viewBox="0 0 432 288" width="432pt" xmlns="http://www.w3.org/2000/svg" xmlns:xlink="http://www.w3.org/1999/xlink">
 <metadata>
  <rdf:RDF xmlns:cc="http://creativecommons.org/ns#" xmlns:dc="http://purl.org/dc/elements/1.1/" xmlns:rdf="http://www.w3.org/1999/02/22-rdf-syntax-ns#">
   <cc:Work>
    <dc:type rdf:resource="http://purl.org/dc/dcmitype/StillImage"/>
    <dc:date>2021-08-11T12:58:37.914326</dc:date>
    <dc:format>image/svg+xml</dc:format>
    <dc:creator>
     <cc:Agent>
      <dc:title>Matplotlib v3.3.4, https://matplotlib.org/</dc:title>
     </cc:Agent>
    </dc:creator>
   </cc:Work>
  </rdf:RDF>
 </metadata>
 <defs>
  <style type="text/css">*{stroke-linecap:butt;stroke-linejoin:round;}</style>
 </defs>
 <g id="figure_1">
  <g id="patch_1">
   <path d="M 0 288 
L 432 288 
L 432 0 
L 0 0 
z
" style="fill:none;"/>
  </g>
  <g id="axes_1">
   <g id="patch_2">
    <path d="M 54 252 
L 388.8 252 
L 388.8 34.56 
L 54 34.56 
z
" style="fill:#ffffff;"/>
   </g>
   <g id="matplotlib.axis_1">
    <g id="xtick_1">
     <g id="line2d_1">
      <defs>
       <path d="M 0 0 
L 0 3.5 
" id="mf55aed2cdb" style="stroke:#000000;stroke-width:0.8;"/>
      </defs>
      <g>
       <use style="stroke:#000000;stroke-width:0.8;" x="76.378343" xlink:href="#mf55aed2cdb" y="252"/>
      </g>
     </g>
     <g id="text_1">
      <!-- −750 -->
      <g transform="translate(58.826468 268.118125)scale(0.12 -0.12)">
       <defs>
        <path d="M 10.59375 37.109375 
L 73.1875 37.109375 
L 73.1875 25.59375 
L 10.59375 25.59375 
z
" id="DejaVuSans-Bold-8722"/>
        <path d="M 6.6875 72.90625 
L 61.625 72.90625 
L 61.625 62.3125 
L 33.203125 0 
L 14.890625 0 
L 41.796875 59.078125 
L 6.6875 59.078125 
z
" id="DejaVuSans-Bold-55"/>
        <path d="M 10.59375 72.90625 
L 57.328125 72.90625 
L 57.328125 59.078125 
L 25.59375 59.078125 
L 25.59375 47.796875 
Q 27.734375 48.390625 29.90625 48.703125 
Q 32.078125 49.03125 34.421875 49.03125 
Q 47.75 49.03125 55.171875 42.359375 
Q 62.59375 35.6875 62.59375 23.78125 
Q 62.59375 11.96875 54.515625 5.265625 
Q 46.4375 -1.421875 32.078125 -1.421875 
Q 25.875 -1.421875 19.796875 -0.21875 
Q 13.71875 0.984375 7.71875 3.421875 
L 7.71875 18.21875 
Q 13.671875 14.796875 19.015625 13.078125 
Q 24.359375 11.375 29.109375 11.375 
Q 35.9375 11.375 39.859375 14.71875 
Q 43.796875 18.0625 43.796875 23.78125 
Q 43.796875 29.546875 39.859375 32.859375 
Q 35.9375 36.1875 29.109375 36.1875 
Q 25.046875 36.1875 20.453125 35.125 
Q 15.875 34.078125 10.59375 31.890625 
z
" id="DejaVuSans-Bold-53"/>
        <path d="M 46 36.53125 
Q 46 50.203125 43.4375 55.78125 
Q 40.875 61.375 34.8125 61.375 
Q 28.765625 61.375 26.171875 55.78125 
Q 23.578125 50.203125 23.578125 36.53125 
Q 23.578125 22.703125 26.171875 17.03125 
Q 28.765625 11.375 34.8125 11.375 
Q 40.828125 11.375 43.40625 17.03125 
Q 46 22.703125 46 36.53125 
z
M 64.796875 36.375 
Q 64.796875 18.265625 56.984375 8.421875 
Q 49.171875 -1.421875 34.8125 -1.421875 
Q 20.40625 -1.421875 12.59375 8.421875 
Q 4.78125 18.265625 4.78125 36.375 
Q 4.78125 54.546875 12.59375 64.375 
Q 20.40625 74.21875 34.8125 74.21875 
Q 49.171875 74.21875 56.984375 64.375 
Q 64.796875 54.546875 64.796875 36.375 
z
" id="DejaVuSans-Bold-48"/>
       </defs>
       <use xlink:href="#DejaVuSans-Bold-8722"/>
       <use x="83.789062" xlink:href="#DejaVuSans-Bold-55"/>
       <use x="153.369141" xlink:href="#DejaVuSans-Bold-53"/>
       <use x="222.949219" xlink:href="#DejaVuSans-Bold-48"/>
      </g>
     </g>
    </g>
    <g id="xtick_2">
     <g id="line2d_2">
      <g>
       <use style="stroke:#000000;stroke-width:0.8;" x="120.494294" xlink:href="#mf55aed2cdb" y="252"/>
      </g>
     </g>
     <g id="text_2">
      <!-- −500 -->
      <g transform="translate(102.942419 268.118125)scale(0.12 -0.12)">
       <use xlink:href="#DejaVuSans-Bold-8722"/>
       <use x="83.789062" xlink:href="#DejaVuSans-Bold-53"/>
       <use x="153.369141" xlink:href="#DejaVuSans-Bold-48"/>
       <use x="222.949219" xlink:href="#DejaVuSans-Bold-48"/>
      </g>
     </g>
    </g>
    <g id="xtick_3">
     <g id="line2d_3">
      <g>
       <use style="stroke:#000000;stroke-width:0.8;" x="164.610245" xlink:href="#mf55aed2cdb" y="252"/>
      </g>
     </g>
     <g id="text_3">
      <!-- −250 -->
      <g transform="translate(147.05837 268.118125)scale(0.12 -0.12)">
       <defs>
        <path d="M 28.8125 13.8125 
L 60.890625 13.8125 
L 60.890625 0 
L 7.90625 0 
L 7.90625 13.8125 
L 34.515625 37.3125 
Q 38.09375 40.53125 39.796875 43.609375 
Q 41.5 46.6875 41.5 50 
Q 41.5 55.125 38.0625 58.25 
Q 34.625 61.375 28.90625 61.375 
Q 24.515625 61.375 19.28125 59.5 
Q 14.0625 57.625 8.109375 53.90625 
L 8.109375 69.921875 
Q 14.453125 72.015625 20.65625 73.109375 
Q 26.859375 74.21875 32.8125 74.21875 
Q 45.90625 74.21875 53.15625 68.453125 
Q 60.40625 62.703125 60.40625 52.390625 
Q 60.40625 46.4375 57.328125 41.28125 
Q 54.25 36.140625 44.390625 27.484375 
z
" id="DejaVuSans-Bold-50"/>
       </defs>
       <use xlink:href="#DejaVuSans-Bold-8722"/>
       <use x="83.789062" xlink:href="#DejaVuSans-Bold-50"/>
       <use x="153.369141" xlink:href="#DejaVuSans-Bold-53"/>
       <use x="222.949219" xlink:href="#DejaVuSans-Bold-48"/>
      </g>
     </g>
    </g>
    <g id="xtick_4">
     <g id="line2d_4">
      <g>
       <use style="stroke:#000000;stroke-width:0.8;" x="208.726196" xlink:href="#mf55aed2cdb" y="252"/>
      </g>
     </g>
     <g id="text_4">
      <!-- 0 -->
      <g transform="translate(204.551508 268.118125)scale(0.12 -0.12)">
       <use xlink:href="#DejaVuSans-Bold-48"/>
      </g>
     </g>
    </g>
    <g id="xtick_5">
     <g id="line2d_5">
      <g>
       <use style="stroke:#000000;stroke-width:0.8;" x="252.842147" xlink:href="#mf55aed2cdb" y="252"/>
      </g>
     </g>
     <g id="text_5">
      <!-- 250 -->
      <g transform="translate(240.318085 268.118125)scale(0.12 -0.12)">
       <use xlink:href="#DejaVuSans-Bold-50"/>
       <use x="69.580078" xlink:href="#DejaVuSans-Bold-53"/>
       <use x="139.160156" xlink:href="#DejaVuSans-Bold-48"/>
      </g>
     </g>
    </g>
    <g id="xtick_6">
     <g id="line2d_6">
      <g>
       <use style="stroke:#000000;stroke-width:0.8;" x="296.958098" xlink:href="#mf55aed2cdb" y="252"/>
      </g>
     </g>
     <g id="text_6">
      <!-- 500 -->
      <g transform="translate(284.434036 268.118125)scale(0.12 -0.12)">
       <use xlink:href="#DejaVuSans-Bold-53"/>
       <use x="69.580078" xlink:href="#DejaVuSans-Bold-48"/>
       <use x="139.160156" xlink:href="#DejaVuSans-Bold-48"/>
      </g>
     </g>
    </g>
    <g id="xtick_7">
     <g id="line2d_7">
      <g>
       <use style="stroke:#000000;stroke-width:0.8;" x="341.074049" xlink:href="#mf55aed2cdb" y="252"/>
      </g>
     </g>
     <g id="text_7">
      <!-- 750 -->
      <g transform="translate(328.549987 268.118125)scale(0.12 -0.12)">
       <use xlink:href="#DejaVuSans-Bold-55"/>
       <use x="69.580078" xlink:href="#DejaVuSans-Bold-53"/>
       <use x="139.160156" xlink:href="#DejaVuSans-Bold-48"/>
      </g>
     </g>
    </g>
    <g id="xtick_8">
     <g id="line2d_8">
      <g>
       <use style="stroke:#000000;stroke-width:0.8;" x="385.19" xlink:href="#mf55aed2cdb" y="252"/>
      </g>
     </g>
     <g id="text_8">
      <!-- 1000 -->
      <g transform="translate(368.49125 268.118125)scale(0.12 -0.12)">
       <defs>
        <path d="M 11.71875 12.984375 
L 28.328125 12.984375 
L 28.328125 60.109375 
L 11.28125 56.59375 
L 11.28125 69.390625 
L 28.21875 72.90625 
L 46.09375 72.90625 
L 46.09375 12.984375 
L 62.703125 12.984375 
L 62.703125 0 
L 11.71875 0 
z
" id="DejaVuSans-Bold-49"/>
       </defs>
       <use xlink:href="#DejaVuSans-Bold-49"/>
       <use x="69.580078" xlink:href="#DejaVuSans-Bold-48"/>
       <use x="139.160156" xlink:href="#DejaVuSans-Bold-48"/>
       <use x="208.740234" xlink:href="#DejaVuSans-Bold-48"/>
      </g>
     </g>
    </g>
    <g id="text_9">
     <!-- Latent 1 -->
     <g transform="translate(196.456875 283.731875)scale(0.12 -0.12)">
      <defs>
       <path d="M 9.8125 72.90625 
L 19.671875 72.90625 
L 19.671875 8.296875 
L 55.171875 8.296875 
L 55.171875 0 
L 9.8125 0 
z
" id="DejaVuSans-76"/>
       <path d="M 34.28125 27.484375 
Q 23.390625 27.484375 19.1875 25 
Q 14.984375 22.515625 14.984375 16.5 
Q 14.984375 11.71875 18.140625 8.90625 
Q 21.296875 6.109375 26.703125 6.109375 
Q 34.1875 6.109375 38.703125 11.40625 
Q 43.21875 16.703125 43.21875 25.484375 
L 43.21875 27.484375 
z
M 52.203125 31.203125 
L 52.203125 0 
L 43.21875 0 
L 43.21875 8.296875 
Q 40.140625 3.328125 35.546875 0.953125 
Q 30.953125 -1.421875 24.3125 -1.421875 
Q 15.921875 -1.421875 10.953125 3.296875 
Q 6 8.015625 6 15.921875 
Q 6 25.140625 12.171875 29.828125 
Q 18.359375 34.515625 30.609375 34.515625 
L 43.21875 34.515625 
L 43.21875 35.40625 
Q 43.21875 41.609375 39.140625 45 
Q 35.0625 48.390625 27.6875 48.390625 
Q 23 48.390625 18.546875 47.265625 
Q 14.109375 46.140625 10.015625 43.890625 
L 10.015625 52.203125 
Q 14.9375 54.109375 19.578125 55.046875 
Q 24.21875 56 28.609375 56 
Q 40.484375 56 46.34375 49.84375 
Q 52.203125 43.703125 52.203125 31.203125 
z
" id="DejaVuSans-97"/>
       <path d="M 18.3125 70.21875 
L 18.3125 54.6875 
L 36.8125 54.6875 
L 36.8125 47.703125 
L 18.3125 47.703125 
L 18.3125 18.015625 
Q 18.3125 11.328125 20.140625 9.421875 
Q 21.96875 7.515625 27.59375 7.515625 
L 36.8125 7.515625 
L 36.8125 0 
L 27.59375 0 
Q 17.1875 0 13.234375 3.875 
Q 9.28125 7.765625 9.28125 18.015625 
L 9.28125 47.703125 
L 2.6875 47.703125 
L 2.6875 54.6875 
L 9.28125 54.6875 
L 9.28125 70.21875 
z
" id="DejaVuSans-116"/>
       <path d="M 56.203125 29.59375 
L 56.203125 25.203125 
L 14.890625 25.203125 
Q 15.484375 15.921875 20.484375 11.0625 
Q 25.484375 6.203125 34.421875 6.203125 
Q 39.59375 6.203125 44.453125 7.46875 
Q 49.3125 8.734375 54.109375 11.28125 
L 54.109375 2.78125 
Q 49.265625 0.734375 44.1875 -0.34375 
Q 39.109375 -1.421875 33.890625 -1.421875 
Q 20.796875 -1.421875 13.15625 6.1875 
Q 5.515625 13.8125 5.515625 26.8125 
Q 5.515625 40.234375 12.765625 48.109375 
Q 20.015625 56 32.328125 56 
Q 43.359375 56 49.78125 48.890625 
Q 56.203125 41.796875 56.203125 29.59375 
z
M 47.21875 32.234375 
Q 47.125 39.59375 43.09375 43.984375 
Q 39.0625 48.390625 32.421875 48.390625 
Q 24.90625 48.390625 20.390625 44.140625 
Q 15.875 39.890625 15.1875 32.171875 
z
" id="DejaVuSans-101"/>
       <path d="M 54.890625 33.015625 
L 54.890625 0 
L 45.90625 0 
L 45.90625 32.71875 
Q 45.90625 40.484375 42.875 44.328125 
Q 39.84375 48.1875 33.796875 48.1875 
Q 26.515625 48.1875 22.3125 43.546875 
Q 18.109375 38.921875 18.109375 30.90625 
L 18.109375 0 
L 9.078125 0 
L 9.078125 54.6875 
L 18.109375 54.6875 
L 18.109375 46.1875 
Q 21.34375 51.125 25.703125 53.5625 
Q 30.078125 56 35.796875 56 
Q 45.21875 56 50.046875 50.171875 
Q 54.890625 44.34375 54.890625 33.015625 
z
" id="DejaVuSans-110"/>
       <path id="DejaVuSans-32"/>
       <path d="M 12.40625 8.296875 
L 28.515625 8.296875 
L 28.515625 63.921875 
L 10.984375 60.40625 
L 10.984375 69.390625 
L 28.421875 72.90625 
L 38.28125 72.90625 
L 38.28125 8.296875 
L 54.390625 8.296875 
L 54.390625 0 
L 12.40625 0 
z
" id="DejaVuSans-49"/>
      </defs>
      <use xlink:href="#DejaVuSans-76"/>
      <use x="55.712891" xlink:href="#DejaVuSans-97"/>
      <use x="116.992188" xlink:href="#DejaVuSans-116"/>
      <use x="156.201172" xlink:href="#DejaVuSans-101"/>
      <use x="217.724609" xlink:href="#DejaVuSans-110"/>
      <use x="281.103516" xlink:href="#DejaVuSans-116"/>
      <use x="320.3125" xlink:href="#DejaVuSans-32"/>
      <use x="352.099609" xlink:href="#DejaVuSans-49"/>
     </g>
    </g>
   </g>
   <g id="matplotlib.axis_2">
    <g id="ytick_1">
     <g id="line2d_9">
      <defs>
       <path d="M 0 0 
L -3.5 0 
" id="ma90bdeaa31" style="stroke:#000000;stroke-width:0.8;"/>
      </defs>
      <g>
       <use style="stroke:#000000;stroke-width:0.8;" x="54" xlink:href="#ma90bdeaa31" y="238.291568"/>
      </g>
     </g>
     <g id="text_10">
      <!-- −600 -->
      <g transform="translate(11.89625 242.85063)scale(0.12 -0.12)">
       <defs>
        <path d="M 36.1875 35.984375 
Q 31.25 35.984375 28.78125 32.78125 
Q 26.3125 29.59375 26.3125 23.1875 
Q 26.3125 16.796875 28.78125 13.59375 
Q 31.25 10.40625 36.1875 10.40625 
Q 41.15625 10.40625 43.625 13.59375 
Q 46.09375 16.796875 46.09375 23.1875 
Q 46.09375 29.59375 43.625 32.78125 
Q 41.15625 35.984375 36.1875 35.984375 
z
M 59.421875 71 
L 59.421875 57.515625 
Q 54.78125 59.71875 50.671875 60.765625 
Q 46.578125 61.8125 42.671875 61.8125 
Q 34.28125 61.8125 29.59375 57.140625 
Q 24.90625 52.484375 24.125 43.3125 
Q 27.34375 45.703125 31.09375 46.890625 
Q 34.859375 48.09375 39.3125 48.09375 
Q 50.484375 48.09375 57.34375 41.546875 
Q 64.203125 35.015625 64.203125 24.421875 
Q 64.203125 12.703125 56.53125 5.640625 
Q 48.875 -1.421875 35.984375 -1.421875 
Q 21.78125 -1.421875 13.984375 8.171875 
Q 6.203125 17.78125 6.203125 35.40625 
Q 6.203125 53.46875 15.3125 63.796875 
Q 24.421875 74.125 40.28125 74.125 
Q 45.3125 74.125 50.046875 73.34375 
Q 54.78125 72.5625 59.421875 71 
z
" id="DejaVuSans-Bold-54"/>
       </defs>
       <use xlink:href="#DejaVuSans-Bold-8722"/>
       <use x="83.789062" xlink:href="#DejaVuSans-Bold-54"/>
       <use x="153.369141" xlink:href="#DejaVuSans-Bold-48"/>
       <use x="222.949219" xlink:href="#DejaVuSans-Bold-48"/>
      </g>
     </g>
    </g>
    <g id="ytick_2">
     <g id="line2d_10">
      <g>
       <use style="stroke:#000000;stroke-width:0.8;" x="54" xlink:href="#ma90bdeaa31" y="209.139418"/>
      </g>
     </g>
     <g id="text_11">
      <!-- −400 -->
      <g transform="translate(11.89625 213.698481)scale(0.12 -0.12)">
       <defs>
        <path d="M 36.8125 57.421875 
L 16.21875 26.90625 
L 36.8125 26.90625 
z
M 33.6875 72.90625 
L 54.59375 72.90625 
L 54.59375 26.90625 
L 64.984375 26.90625 
L 64.984375 13.28125 
L 54.59375 13.28125 
L 54.59375 0 
L 36.8125 0 
L 36.8125 13.28125 
L 4.5 13.28125 
L 4.5 29.390625 
z
" id="DejaVuSans-Bold-52"/>
       </defs>
       <use xlink:href="#DejaVuSans-Bold-8722"/>
       <use x="83.789062" xlink:href="#DejaVuSans-Bold-52"/>
       <use x="153.369141" xlink:href="#DejaVuSans-Bold-48"/>
       <use x="222.949219" xlink:href="#DejaVuSans-Bold-48"/>
      </g>
     </g>
    </g>
    <g id="ytick_3">
     <g id="line2d_11">
      <g>
       <use style="stroke:#000000;stroke-width:0.8;" x="54" xlink:href="#ma90bdeaa31" y="179.987269"/>
      </g>
     </g>
     <g id="text_12">
      <!-- −200 -->
      <g transform="translate(11.89625 184.546332)scale(0.12 -0.12)">
       <use xlink:href="#DejaVuSans-Bold-8722"/>
       <use x="83.789062" xlink:href="#DejaVuSans-Bold-50"/>
       <use x="153.369141" xlink:href="#DejaVuSans-Bold-48"/>
       <use x="222.949219" xlink:href="#DejaVuSans-Bold-48"/>
      </g>
     </g>
    </g>
    <g id="ytick_4">
     <g id="line2d_12">
      <g>
       <use style="stroke:#000000;stroke-width:0.8;" x="54" xlink:href="#ma90bdeaa31" y="150.83512"/>
      </g>
     </g>
     <g id="text_13">
      <!-- 0 -->
      <g transform="translate(38.650625 155.394183)scale(0.12 -0.12)">
       <use xlink:href="#DejaVuSans-Bold-48"/>
      </g>
     </g>
    </g>
    <g id="ytick_5">
     <g id="line2d_13">
      <g>
       <use style="stroke:#000000;stroke-width:0.8;" x="54" xlink:href="#ma90bdeaa31" y="121.682971"/>
      </g>
     </g>
     <g id="text_14">
      <!-- 200 -->
      <g transform="translate(21.951875 126.242033)scale(0.12 -0.12)">
       <use xlink:href="#DejaVuSans-Bold-50"/>
       <use x="69.580078" xlink:href="#DejaVuSans-Bold-48"/>
       <use x="139.160156" xlink:href="#DejaVuSans-Bold-48"/>
      </g>
     </g>
    </g>
    <g id="ytick_6">
     <g id="line2d_14">
      <g>
       <use style="stroke:#000000;stroke-width:0.8;" x="54" xlink:href="#ma90bdeaa31" y="92.530822"/>
      </g>
     </g>
     <g id="text_15">
      <!-- 400 -->
      <g transform="translate(21.951875 97.089884)scale(0.12 -0.12)">
       <use xlink:href="#DejaVuSans-Bold-52"/>
       <use x="69.580078" xlink:href="#DejaVuSans-Bold-48"/>
       <use x="139.160156" xlink:href="#DejaVuSans-Bold-48"/>
      </g>
     </g>
    </g>
    <g id="ytick_7">
     <g id="line2d_15">
      <g>
       <use style="stroke:#000000;stroke-width:0.8;" x="54" xlink:href="#ma90bdeaa31" y="63.378673"/>
      </g>
     </g>
     <g id="text_16">
      <!-- 600 -->
      <g transform="translate(21.951875 67.937735)scale(0.12 -0.12)">
       <use xlink:href="#DejaVuSans-Bold-54"/>
       <use x="69.580078" xlink:href="#DejaVuSans-Bold-48"/>
       <use x="139.160156" xlink:href="#DejaVuSans-Bold-48"/>
      </g>
     </g>
    </g>
    <g id="text_17">
     <!-- Latent 2 -->
     <g transform="translate(5.400625 168.223125)rotate(-90)scale(0.12 -0.12)">
      <defs>
       <path d="M 19.1875 8.296875 
L 53.609375 8.296875 
L 53.609375 0 
L 7.328125 0 
L 7.328125 8.296875 
Q 12.9375 14.109375 22.625 23.890625 
Q 32.328125 33.6875 34.8125 36.53125 
Q 39.546875 41.84375 41.421875 45.53125 
Q 43.3125 49.21875 43.3125 52.78125 
Q 43.3125 58.59375 39.234375 62.25 
Q 35.15625 65.921875 28.609375 65.921875 
Q 23.96875 65.921875 18.8125 64.3125 
Q 13.671875 62.703125 7.8125 59.421875 
L 7.8125 69.390625 
Q 13.765625 71.78125 18.9375 73 
Q 24.125 74.21875 28.421875 74.21875 
Q 39.75 74.21875 46.484375 68.546875 
Q 53.21875 62.890625 53.21875 53.421875 
Q 53.21875 48.921875 51.53125 44.890625 
Q 49.859375 40.875 45.40625 35.40625 
Q 44.1875 33.984375 37.640625 27.21875 
Q 31.109375 20.453125 19.1875 8.296875 
z
" id="DejaVuSans-50"/>
      </defs>
      <use xlink:href="#DejaVuSans-76"/>
      <use x="55.712891" xlink:href="#DejaVuSans-97"/>
      <use x="116.992188" xlink:href="#DejaVuSans-116"/>
      <use x="156.201172" xlink:href="#DejaVuSans-101"/>
      <use x="217.724609" xlink:href="#DejaVuSans-110"/>
      <use x="281.103516" xlink:href="#DejaVuSans-116"/>
      <use x="320.3125" xlink:href="#DejaVuSans-32"/>
      <use x="352.099609" xlink:href="#DejaVuSans-50"/>
     </g>
    </g>
   </g>
   <g id="line2d_16">
    <path clip-path="url(#p9a6bc35fc9)" d="M 208.726196 150.83512 
L 195.819675 44.443636 
L 183.191725 149.806772 
L 205.6499 156.151615 
L 201.31917 152.620176 
L 197.611643 151.729127 
L 174.063275 140.180572 
L 178.254519 141.689749 
L 193.624557 133.422081 
" style="fill:none;stroke:#808080;stroke-dasharray:3.2,0.8,0.5,0.8;stroke-dashoffset:0;stroke-width:0.5;"/>
   </g>
   <g id="line2d_17">
    <defs>
     <path d="M 0 3 
C 0.795609 3 1.55874 2.683901 2.12132 2.12132 
C 2.683901 1.55874 3 0.795609 3 0 
C 3 -0.795609 2.683901 -1.55874 2.12132 -2.12132 
C 1.55874 -2.683901 0.795609 -3 0 -3 
C -0.795609 -3 -1.55874 -2.683901 -2.12132 -2.12132 
C -2.683901 -1.55874 -3 -0.795609 -3 0 
C -3 0.795609 -2.683901 1.55874 -2.12132 2.12132 
C -1.55874 2.683901 -0.795609 3 0 3 
z
" id="m11e14fa578" style="stroke:#d62728;"/>
    </defs>
    <g clip-path="url(#p9a6bc35fc9)">
     <use style="fill:#d62728;stroke:#d62728;" x="195.819675" xlink:href="#m11e14fa578" y="44.443636"/>
    </g>
   </g>
   <g id="line2d_18">
    <path clip-path="url(#p9a6bc35fc9)" d="M 208.726196 150.83512 
L 360.566676 242.116364 
L 208.383092 128.542376 
L 191.522107 154.993045 
L 195.167714 152.9235 
L 209.22505 171.466889 
L 186.929429 130.353082 
L 178.493191 152.505197 
L 183.177963 128.67063 
" style="fill:none;stroke:#808080;stroke-dasharray:3.2,0.8,0.5,0.8;stroke-dashoffset:0;stroke-width:0.5;"/>
   </g>
   <g id="line2d_19">
    <g clip-path="url(#p9a6bc35fc9)">
     <use style="fill:#d62728;stroke:#d62728;" x="360.566676" xlink:href="#m11e14fa578" y="242.116364"/>
    </g>
   </g>
   <g id="line2d_20">
    <path clip-path="url(#p9a6bc35fc9)" d="M 208.726196 150.83512 
L 69.218182 120.104769 
L 211.899082 134.074431 
L 197.14074 154.751328 
L 210.919649 146.330214 
L 210.280676 164.524673 
L 184.903599 144.764635 
L 185.36631 144.586757 
L 186.446681 136.040956 
" style="fill:none;stroke:#808080;stroke-dasharray:3.2,0.8,0.5,0.8;stroke-dashoffset:0;stroke-width:0.5;"/>
   </g>
   <g id="line2d_21">
    <g clip-path="url(#p9a6bc35fc9)">
     <use style="fill:#d62728;stroke:#d62728;" x="69.218182" xlink:href="#m11e14fa578" y="120.104769"/>
    </g>
   </g>
   <g id="line2d_22">
    <path clip-path="url(#p9a6bc35fc9)" d="M 208.726196 150.83512 
L 139.456167 116.82087 
L 192.738164 150.858342 
L 205.152493 163.001106 
L 198.852938 157.284733 
L 234.680905 162.157889 
L 161.003136 155.543881 
L 166.605907 147.749171 
L 195.941807 124.93135 
" style="fill:none;stroke:#808080;stroke-dasharray:3.2,0.8,0.5,0.8;stroke-dashoffset:0;stroke-width:0.5;"/>
   </g>
   <g id="line2d_23">
    <g clip-path="url(#p9a6bc35fc9)">
     <use style="fill:#d62728;stroke:#d62728;" x="139.456167" xlink:href="#m11e14fa578" y="116.82087"/>
    </g>
   </g>
   <g id="line2d_24">
    <path clip-path="url(#p9a6bc35fc9)" d="M 208.726196 150.83512 
L 79.51442 67.503993 
L 224.826791 171.744118 
L 213.092461 129.317332 
L 228.634829 151.310705 
L 232.58314 141.459591 
L 264.144458 132.337746 
L 239.626294 134.304623 
L 229.564091 179.696473 
" style="fill:none;stroke:#808080;stroke-dasharray:3.2,0.8,0.5,0.8;stroke-dashoffset:0;stroke-width:0.5;"/>
   </g>
   <g id="line2d_25">
    <g clip-path="url(#p9a6bc35fc9)">
     <use style="fill:#d62728;stroke:#d62728;" x="79.51442" xlink:href="#m11e14fa578" y="67.503993"/>
    </g>
   </g>
   <g id="line2d_26">
    <path clip-path="url(#p9a6bc35fc9)" d="M 208.726196 150.83512 
L 107.746863 166.534333 
L 224.594044 143.812264 
L 226.336103 147.955247 
L 199.850231 142.886364 
L 185.112578 148.587987 
L 184.03831 178.393765 
L 205.894213 176.326538 
L 195.506067 163.887458 
" style="fill:none;stroke:#808080;stroke-dasharray:3.2,0.8,0.5,0.8;stroke-dashoffset:0;stroke-width:0.5;"/>
   </g>
   <g id="line2d_27">
    <defs>
     <path d="M 0 3 
C 0.795609 3 1.55874 2.683901 2.12132 2.12132 
C 2.683901 1.55874 3 0.795609 3 0 
C 3 -0.795609 2.683901 -1.55874 2.12132 -2.12132 
C 1.55874 -2.683901 0.795609 -3 0 -3 
C -0.795609 -3 -1.55874 -2.683901 -2.12132 -2.12132 
C -2.683901 -1.55874 -3 -0.795609 -3 0 
C -3 0.795609 -2.683901 1.55874 -2.12132 2.12132 
C -1.55874 2.683901 -0.795609 3 0 3 
z
" id="mb25a6e8b49" style="stroke:#2ca02c;"/>
    </defs>
    <g clip-path="url(#p9a6bc35fc9)">
     <use style="fill:#2ca02c;stroke:#2ca02c;" x="107.746863" xlink:href="#mb25a6e8b49" y="166.534333"/>
    </g>
   </g>
   <g id="line2d_28">
    <path clip-path="url(#p9a6bc35fc9)" d="M 208.726196 150.83512 
L 102.089498 143.310881 
L 219.278364 149.963564 
L 201.715502 136.572796 
L 197.328786 147.821579 
L 218.460729 137.579358 
L 253.870729 165.155486 
L 205.995963 125.741944 
L 221.728516 169.398594 
" style="fill:none;stroke:#808080;stroke-dasharray:3.2,0.8,0.5,0.8;stroke-dashoffset:0;stroke-width:0.5;"/>
   </g>
   <g id="line2d_29">
    <g clip-path="url(#p9a6bc35fc9)">
     <use style="fill:#2ca02c;stroke:#2ca02c;" x="102.089498" xlink:href="#mb25a6e8b49" y="143.310881"/>
    </g>
   </g>
   <g id="line2d_30">
    <path clip-path="url(#p9a6bc35fc9)" d="M 208.726196 150.83512 
L 308.540377 165.06475 
L 190.607586 161.017652 
L 196.888838 146.716272 
L 211.364282 155.533589 
L 219.236561 157.645026 
L 158.695983 138.731771 
L 180.396992 130.972187 
L 174.213324 139.146962 
" style="fill:none;stroke:#808080;stroke-dasharray:3.2,0.8,0.5,0.8;stroke-dashoffset:0;stroke-width:0.5;"/>
   </g>
   <g id="line2d_31">
    <g clip-path="url(#p9a6bc35fc9)">
     <use style="fill:#2ca02c;stroke:#2ca02c;" x="308.540377" xlink:href="#mb25a6e8b49" y="165.06475"/>
    </g>
   </g>
   <g id="line2d_32">
    <path clip-path="url(#p9a6bc35fc9)" d="M 208.726196 150.83512 
L 168.685854 156.77237 
L 213.03724 142.793676 
L 220.897774 152.314837 
L 205.166525 144.125017 
L 198.746725 164.876748 
L 211.826752 136.344815 
L 211.721273 161.211622 
L 217.241571 159.131209 
" style="fill:none;stroke:#808080;stroke-dasharray:3.2,0.8,0.5,0.8;stroke-dashoffset:0;stroke-width:0.5;"/>
   </g>
   <g id="line2d_33">
    <g clip-path="url(#p9a6bc35fc9)">
     <use style="fill:#2ca02c;stroke:#2ca02c;" x="168.685854" xlink:href="#mb25a6e8b49" y="156.77237"/>
    </g>
   </g>
   <g id="line2d_34">
    <path clip-path="url(#p9a6bc35fc9)" d="M 208.726196 150.83512 
L 205.226391 171.052769 
L 195.764723 143.305547 
L 211.743032 152.220778 
L 206.719063 153.742811 
L 209.785528 133.064478 
L 231.933806 145.158969 
L 246.161553 166.353692 
L 228.607931 123.461645 
" style="fill:none;stroke:#808080;stroke-dasharray:3.2,0.8,0.5,0.8;stroke-dashoffset:0;stroke-width:0.5;"/>
   </g>
   <g id="line2d_35">
    <g clip-path="url(#p9a6bc35fc9)">
     <use style="fill:#2ca02c;stroke:#2ca02c;" x="205.226391" xlink:href="#mb25a6e8b49" y="171.052769"/>
    </g>
   </g>
   <g id="line2d_36">
    <path clip-path="url(#p9a6bc35fc9)" d="M 208.726196 150.83512 
L 167.539548 136.47243 
L 205.496771 152.973991 
L 204.66018 145.910132 
L 205.30925 157.235841 
L 188.280409 156.195127 
L 230.158101 103.64382 
L 187.772006 164.760099 
L 215.94155 147.728975 
" style="fill:none;stroke:#808080;stroke-dasharray:3.2,0.8,0.5,0.8;stroke-dashoffset:0;stroke-width:0.5;"/>
   </g>
   <g id="line2d_37">
    <g clip-path="url(#p9a6bc35fc9)">
     <use style="fill:#2ca02c;stroke:#2ca02c;" x="167.539548" xlink:href="#mb25a6e8b49" y="136.47243"/>
    </g>
   </g>
   <g id="line2d_38">
    <path clip-path="url(#p9a6bc35fc9)" d="M 208.726196 150.83512 
L 129.81018 221.272817 
L 218.654024 157.260204 
L 192.580361 140.076198 
L 212.609416 161.428438 
L 192.472178 138.395548 
L 230.73383 129.028813 
L 245.037929 146.927721 
L 207.638285 169.114073 
" style="fill:none;stroke:#808080;stroke-dasharray:3.2,0.8,0.5,0.8;stroke-dashoffset:0;stroke-width:0.5;"/>
   </g>
   <g id="line2d_39">
    <g clip-path="url(#p9a6bc35fc9)">
     <use style="fill:#2ca02c;stroke:#2ca02c;" x="129.81018" xlink:href="#mb25a6e8b49" y="221.272817"/>
    </g>
   </g>
   <g id="line2d_40">
    <path clip-path="url(#p9a6bc35fc9)" d="M 208.726196 150.83512 
L 168.209793 207.036101 
L 212.879648 150.19476 
L 202.160735 142.6244 
L 205.169137 159.737306 
L 189.789487 160.854161 
L 235.315047 105.366032 
L 191.433562 157.535961 
L 222.280878 151.929161 
" style="fill:none;stroke:#808080;stroke-dasharray:3.2,0.8,0.5,0.8;stroke-dashoffset:0;stroke-width:0.5;"/>
   </g>
   <g id="line2d_41">
    <g clip-path="url(#p9a6bc35fc9)">
     <use style="fill:#2ca02c;stroke:#2ca02c;" x="168.209793" xlink:href="#mb25a6e8b49" y="207.036101"/>
    </g>
   </g>
   <g id="line2d_42">
    <path clip-path="url(#p9a6bc35fc9)" d="M 208.726196 150.83512 
L 327.92239 75.966319 
L 219.693972 131.955741 
L 198.625634 158.149218 
L 207.995697 146.792041 
L 204.581312 160.625971 
L 200.50396 143.354675 
L 212.081747 168.790576 
L 203.022359 148.846713 
" style="fill:none;stroke:#808080;stroke-dasharray:3.2,0.8,0.5,0.8;stroke-dashoffset:0;stroke-width:0.5;"/>
   </g>
   <g id="line2d_43">
    <g clip-path="url(#p9a6bc35fc9)">
     <use style="fill:#2ca02c;stroke:#2ca02c;" x="327.92239" xlink:href="#mb25a6e8b49" y="75.966319"/>
    </g>
   </g>
   <g id="line2d_44">
    <path clip-path="url(#p9a6bc35fc9)" d="M 208.726196 150.83512 
L 173.894275 111.859516 
L 200.467807 151.497696 
L 206.600834 151.85604 
L 207.764499 150.490187 
L 203.589326 154.549277 
L 202.848365 152.879838 
L 203.029076 155.854202 
L 209.880206 155.260431 
" style="fill:none;stroke:#808080;stroke-dasharray:3.2,0.8,0.5,0.8;stroke-dashoffset:0;stroke-width:0.5;"/>
   </g>
   <g id="line2d_45">
    <g clip-path="url(#p9a6bc35fc9)">
     <use style="fill:#2ca02c;stroke:#2ca02c;" x="173.894275" xlink:href="#mb25a6e8b49" y="111.859516"/>
    </g>
   </g>
   <g id="line2d_46">
    <path clip-path="url(#p9a6bc35fc9)" d="M 208.726196 150.83512 
L 373.581818 234.733409 
L 217.706849 176.758678 
L 226.877644 154.845336 
L 204.309652 138.60535 
L 194.944282 175.581999 
L 200.001376 117.600447 
L 222.369859 185.250594 
L 242.49096 143.620929 
" style="fill:none;stroke:#808080;stroke-dasharray:3.2,0.8,0.5,0.8;stroke-dashoffset:0;stroke-width:0.5;"/>
   </g>
   <g id="line2d_47">
    <g clip-path="url(#p9a6bc35fc9)">
     <use style="fill:#2ca02c;stroke:#2ca02c;" x="373.581818" xlink:href="#mb25a6e8b49" y="234.733409"/>
    </g>
   </g>
   <g id="line2d_48">
    <path clip-path="url(#p9a6bc35fc9)" d="M 208.726196 150.83512 
L 265.441742 55.78568 
L 228.493105 157.548718 
L 215.542771 163.32696 
L 219.026667 144.211886 
L 224.169193 167.325048 
L 229.098682 182.968172 
L 221.760214 127.502291 
L 248.652505 169.709046 
" style="fill:none;stroke:#808080;stroke-dasharray:3.2,0.8,0.5,0.8;stroke-dashoffset:0;stroke-width:0.5;"/>
   </g>
   <g id="line2d_49">
    <g clip-path="url(#p9a6bc35fc9)">
     <use style="fill:#2ca02c;stroke:#2ca02c;" x="265.441742" xlink:href="#mb25a6e8b49" y="55.78568"/>
    </g>
   </g>
   <g id="line2d_50">
    <path clip-path="url(#p9a6bc35fc9)" d="M 208.726196 150.83512 
L 224.742697 100.537022 
L 208.96098 157.471165 
L 200.881449 151.384334 
L 211.615389 149.229632 
L 211.079423 159.261924 
L 190.261296 154.754121 
L 199.429655 146.435418 
L 191.320193 144.009394 
" style="fill:none;stroke:#808080;stroke-dasharray:3.2,0.8,0.5,0.8;stroke-dashoffset:0;stroke-width:0.5;"/>
   </g>
   <g id="line2d_51">
    <g clip-path="url(#p9a6bc35fc9)">
     <use style="fill:#2ca02c;stroke:#2ca02c;" x="224.742697" xlink:href="#mb25a6e8b49" y="100.537022"/>
    </g>
   </g>
   <g id="line2d_52">
    <path clip-path="url(#p9a6bc35fc9)" d="M 208.726196 150.83512 
L 272.436388 150.292412 
L 199.043355 159.224426 
L 212.164926 144.867247 
L 212.046246 152.355257 
L 206.91705 149.691907 
L 212.627476 160.19509 
L 211.748581 153.277478 
L 208.714545 163.233465 
" style="fill:none;stroke:#808080;stroke-dasharray:3.2,0.8,0.5,0.8;stroke-dashoffset:0;stroke-width:0.5;"/>
   </g>
   <g id="line2d_53">
    <g clip-path="url(#p9a6bc35fc9)">
     <use style="fill:#2ca02c;stroke:#2ca02c;" x="272.436388" xlink:href="#mb25a6e8b49" y="150.292412"/>
    </g>
   </g>
   <g id="line2d_54">
    <path clip-path="url(#p9a6bc35fc9)" d="M 208.726196 150.83512 
L 223.753219 201.43602 
L 187.684349 140.034187 
L 215.873656 133.32716 
L 225.129545 148.593396 
L 230.134588 148.009828 
L 257.395046 143.907098 
L 233.383698 153.794678 
L 239.128336 157.879273 
" style="fill:none;stroke:#808080;stroke-dasharray:3.2,0.8,0.5,0.8;stroke-dashoffset:0;stroke-width:0.5;"/>
   </g>
   <g id="line2d_55">
    <g clip-path="url(#p9a6bc35fc9)">
     <use style="fill:#2ca02c;stroke:#2ca02c;" x="223.753219" xlink:href="#mb25a6e8b49" y="201.43602"/>
    </g>
   </g>
   <g id="line2d_56">
    <path clip-path="url(#p9a6bc35fc9)" d="M 208.726196 150.83512 
L 299.000464 117.200416 
L 204.958387 165.378167 
L 208.557679 140.62773 
L 217.970295 147.720681 
L 230.345648 161.32135 
L 178.309015 160.172192 
L 198.190276 138.029424 
L 191.285156 176.629069 
" style="fill:none;stroke:#808080;stroke-dasharray:3.2,0.8,0.5,0.8;stroke-dashoffset:0;stroke-width:0.5;"/>
   </g>
   <g id="line2d_57">
    <g clip-path="url(#p9a6bc35fc9)">
     <use style="fill:#2ca02c;stroke:#2ca02c;" x="299.000464" xlink:href="#mb25a6e8b49" y="117.200416"/>
    </g>
   </g>
   <g id="line2d_58">
    <path clip-path="url(#p9a6bc35fc9)" d="M 208.726196 150.83512 
L 138.548327 147.820839 
L 207.752646 148.376401 
L 207.874294 148.423056 
L 204.73598 150.607936 
L 198.819073 157.284925 
L 210.515282 147.516019 
L 201.528505 162.626851 
L 202.76219 156.936386 
" style="fill:none;stroke:#808080;stroke-dasharray:3.2,0.8,0.5,0.8;stroke-dashoffset:0;stroke-width:0.5;"/>
   </g>
   <g id="line2d_59">
    <g clip-path="url(#p9a6bc35fc9)">
     <use style="fill:#2ca02c;stroke:#2ca02c;" x="138.548327" xlink:href="#mb25a6e8b49" y="147.820839"/>
    </g>
   </g>
   <g id="line2d_60">
    <path clip-path="url(#p9a6bc35fc9)" d="M 208.726196 150.83512 
L 256.63027 175.237906 
L 197.822049 170.992081 
L 217.001951 143.267499 
L 216.215681 153.439447 
L 212.742959 144.349415 
L 216.014872 169.772772 
L 191.894376 175.914422 
L 187.85621 154.160049 
" style="fill:none;stroke:#808080;stroke-dasharray:3.2,0.8,0.5,0.8;stroke-dashoffset:0;stroke-width:0.5;"/>
   </g>
   <g id="line2d_61">
    <g clip-path="url(#p9a6bc35fc9)">
     <use style="fill:#2ca02c;stroke:#2ca02c;" x="256.63027" xlink:href="#mb25a6e8b49" y="175.237906"/>
    </g>
   </g>
   <g id="line2d_62">
    <path clip-path="url(#p9a6bc35fc9)" d="M 208.726196 150.83512 
L 207.41055 113.19799 
L 208.004852 138.700064 
L 219.404977 155.580831 
L 207.681917 141.61724 
L 199.366264 169.808307 
L 204.142473 129.176727 
L 223.119577 170.196691 
L 224.047264 138.95952 
" style="fill:none;stroke:#808080;stroke-dasharray:3.2,0.8,0.5,0.8;stroke-dashoffset:0;stroke-width:0.5;"/>
   </g>
   <g id="line2d_63">
    <g clip-path="url(#p9a6bc35fc9)">
     <use style="fill:#2ca02c;stroke:#2ca02c;" x="207.41055" xlink:href="#mb25a6e8b49" y="113.19799"/>
    </g>
   </g>
   <g id="line2d_64">
    <path clip-path="url(#p9a6bc35fc9)" d="M 208.726196 150.83512 
L 158.245512 179.620539 
L 199.335754 138.422783 
L 211.897364 156.200543 
L 212.197434 142.289255 
L 198.470021 145.383263 
L 229.893758 162.570985 
L 225.476178 142.660552 
L 212.900099 130.877405 
" style="fill:none;stroke:#808080;stroke-dasharray:3.2,0.8,0.5,0.8;stroke-dashoffset:0;stroke-width:0.5;"/>
   </g>
   <g id="line2d_65">
    <g clip-path="url(#p9a6bc35fc9)">
     <use style="fill:#2ca02c;stroke:#2ca02c;" x="158.245512" xlink:href="#mb25a6e8b49" y="179.620539"/>
    </g>
   </g>
   <g id="line2d_66">
    <path clip-path="url(#p9a6bc35fc9)" d="M 208.726196 150.83512 
L 167.515969 83.139809 
L 201.476947 143.315162 
L 214.126552 149.531051 
L 203.373177 147.927054 
L 211.107107 152.840575 
L 220.073938 152.862127 
L 217.557505 147.819959 
L 209.323003 138.769929 
" style="fill:none;stroke:#808080;stroke-dasharray:3.2,0.8,0.5,0.8;stroke-dashoffset:0;stroke-width:0.5;"/>
   </g>
   <g id="line2d_67">
    <g clip-path="url(#p9a6bc35fc9)">
     <use style="fill:#2ca02c;stroke:#2ca02c;" x="167.515969" xlink:href="#mb25a6e8b49" y="83.139809"/>
    </g>
   </g>
   <g id="line2d_68">
    <path clip-path="url(#p9a6bc35fc9)" d="M 208.726196 150.83512 
L 283.787968 142.521754 
L 198.591407 163.278354 
L 211.561834 138.323197 
L 222.721915 149.497544 
L 222.208118 149.881447 
L 197.888364 165.393427 
L 223.980749 157.491315 
L 228.781267 157.77691 
" style="fill:none;stroke:#808080;stroke-dasharray:3.2,0.8,0.5,0.8;stroke-dashoffset:0;stroke-width:0.5;"/>
   </g>
   <g id="line2d_69">
    <g clip-path="url(#p9a6bc35fc9)">
     <use style="fill:#2ca02c;stroke:#2ca02c;" x="283.787968" xlink:href="#mb25a6e8b49" y="142.521754"/>
    </g>
   </g>
   <g id="line2d_70">
    <path clip-path="url(#p9a6bc35fc9)" d="M 208.726196 150.83512 
L 236.179681 143.229988 
L 215.749382 168.44609 
L 208.239531 133.863927 
L 222.636262 152.956721 
L 222.373487 144.272155 
L 245.986411 155.092927 
L 212.161151 138.923316 
L 231.6227 168.566421 
" style="fill:none;stroke:#808080;stroke-dasharray:3.2,0.8,0.5,0.8;stroke-dashoffset:0;stroke-width:0.5;"/>
   </g>
   <g id="line2d_71">
    <g clip-path="url(#p9a6bc35fc9)">
     <use style="fill:#2ca02c;stroke:#2ca02c;" x="236.179681" xlink:href="#mb25a6e8b49" y="143.229988"/>
    </g>
   </g>
   <g id="line2d_72">
    <path clip-path="url(#p9a6bc35fc9)" d="M 208.726196 150.83512 
L 114.462288 45.596039 
L 191.337342 172.445343 
L 221.954833 140.666763 
L 216.483222 157.07914 
L 207.130583 142.525285 
L 209.352727 178.573355 
L 186.400765 182.466223 
L 179.179438 158.127985 
" style="fill:none;stroke:#808080;stroke-dasharray:3.2,0.8,0.5,0.8;stroke-dashoffset:0;stroke-width:0.5;"/>
   </g>
   <g id="line2d_73">
    <g clip-path="url(#p9a6bc35fc9)">
     <use style="fill:#2ca02c;stroke:#2ca02c;" x="114.462288" xlink:href="#mb25a6e8b49" y="45.596039"/>
    </g>
   </g>
   <g id="patch_3">
    <path d="M 54 252 
L 54 34.56 
" style="fill:none;stroke:#000000;stroke-linecap:square;stroke-linejoin:miter;stroke-width:0.8;"/>
   </g>
   <g id="patch_4">
    <path d="M 388.8 252 
L 388.8 34.56 
" style="fill:none;stroke:#000000;stroke-linecap:square;stroke-linejoin:miter;stroke-width:0.8;"/>
   </g>
   <g id="patch_5">
    <path d="M 54 252 
L 388.8 252 
" style="fill:none;stroke:#000000;stroke-linecap:square;stroke-linejoin:miter;stroke-width:0.8;"/>
   </g>
   <g id="patch_6">
    <path d="M 54 34.56 
L 388.8 34.56 
" style="fill:none;stroke:#000000;stroke-linecap:square;stroke-linejoin:miter;stroke-width:0.8;"/>
   </g>
   <g id="text_18">
    <!-- Unlearned Trials: Pre-Color-Cue -->
    <g transform="translate(109.866375 28.56)scale(0.144 -0.144)">
     <defs>
      <path d="M 8.6875 72.90625 
L 18.609375 72.90625 
L 18.609375 28.609375 
Q 18.609375 16.890625 22.84375 11.734375 
Q 27.09375 6.59375 36.625 6.59375 
Q 46.09375 6.59375 50.34375 11.734375 
Q 54.59375 16.890625 54.59375 28.609375 
L 54.59375 72.90625 
L 64.5 72.90625 
L 64.5 27.390625 
Q 64.5 13.140625 57.4375 5.859375 
Q 50.390625 -1.421875 36.625 -1.421875 
Q 22.796875 -1.421875 15.734375 5.859375 
Q 8.6875 13.140625 8.6875 27.390625 
z
" id="DejaVuSans-85"/>
      <path d="M 9.421875 75.984375 
L 18.40625 75.984375 
L 18.40625 0 
L 9.421875 0 
z
" id="DejaVuSans-108"/>
      <path d="M 41.109375 46.296875 
Q 39.59375 47.171875 37.8125 47.578125 
Q 36.03125 48 33.890625 48 
Q 26.265625 48 22.1875 43.046875 
Q 18.109375 38.09375 18.109375 28.8125 
L 18.109375 0 
L 9.078125 0 
L 9.078125 54.6875 
L 18.109375 54.6875 
L 18.109375 46.1875 
Q 20.953125 51.171875 25.484375 53.578125 
Q 30.03125 56 36.53125 56 
Q 37.453125 56 38.578125 55.875 
Q 39.703125 55.765625 41.0625 55.515625 
z
" id="DejaVuSans-114"/>
      <path d="M 45.40625 46.390625 
L 45.40625 75.984375 
L 54.390625 75.984375 
L 54.390625 0 
L 45.40625 0 
L 45.40625 8.203125 
Q 42.578125 3.328125 38.25 0.953125 
Q 33.9375 -1.421875 27.875 -1.421875 
Q 17.96875 -1.421875 11.734375 6.484375 
Q 5.515625 14.40625 5.515625 27.296875 
Q 5.515625 40.1875 11.734375 48.09375 
Q 17.96875 56 27.875 56 
Q 33.9375 56 38.25 53.625 
Q 42.578125 51.265625 45.40625 46.390625 
z
M 14.796875 27.296875 
Q 14.796875 17.390625 18.875 11.75 
Q 22.953125 6.109375 30.078125 6.109375 
Q 37.203125 6.109375 41.296875 11.75 
Q 45.40625 17.390625 45.40625 27.296875 
Q 45.40625 37.203125 41.296875 42.84375 
Q 37.203125 48.484375 30.078125 48.484375 
Q 22.953125 48.484375 18.875 42.84375 
Q 14.796875 37.203125 14.796875 27.296875 
z
" id="DejaVuSans-100"/>
      <path d="M -0.296875 72.90625 
L 61.375 72.90625 
L 61.375 64.59375 
L 35.5 64.59375 
L 35.5 0 
L 25.59375 0 
L 25.59375 64.59375 
L -0.296875 64.59375 
z
" id="DejaVuSans-84"/>
      <path d="M 9.421875 54.6875 
L 18.40625 54.6875 
L 18.40625 0 
L 9.421875 0 
z
M 9.421875 75.984375 
L 18.40625 75.984375 
L 18.40625 64.59375 
L 9.421875 64.59375 
z
" id="DejaVuSans-105"/>
      <path d="M 44.28125 53.078125 
L 44.28125 44.578125 
Q 40.484375 46.53125 36.375 47.5 
Q 32.28125 48.484375 27.875 48.484375 
Q 21.1875 48.484375 17.84375 46.4375 
Q 14.5 44.390625 14.5 40.28125 
Q 14.5 37.15625 16.890625 35.375 
Q 19.28125 33.59375 26.515625 31.984375 
L 29.59375 31.296875 
Q 39.15625 29.25 43.1875 25.515625 
Q 47.21875 21.78125 47.21875 15.09375 
Q 47.21875 7.46875 41.1875 3.015625 
Q 35.15625 -1.421875 24.609375 -1.421875 
Q 20.21875 -1.421875 15.453125 -0.5625 
Q 10.6875 0.296875 5.421875 2 
L 5.421875 11.28125 
Q 10.40625 8.6875 15.234375 7.390625 
Q 20.0625 6.109375 24.8125 6.109375 
Q 31.15625 6.109375 34.5625 8.28125 
Q 37.984375 10.453125 37.984375 14.40625 
Q 37.984375 18.0625 35.515625 20.015625 
Q 33.0625 21.96875 24.703125 23.78125 
L 21.578125 24.515625 
Q 13.234375 26.265625 9.515625 29.90625 
Q 5.8125 33.546875 5.8125 39.890625 
Q 5.8125 47.609375 11.28125 51.796875 
Q 16.75 56 26.8125 56 
Q 31.78125 56 36.171875 55.265625 
Q 40.578125 54.546875 44.28125 53.078125 
z
" id="DejaVuSans-115"/>
      <path d="M 11.71875 12.40625 
L 22.015625 12.40625 
L 22.015625 0 
L 11.71875 0 
z
M 11.71875 51.703125 
L 22.015625 51.703125 
L 22.015625 39.3125 
L 11.71875 39.3125 
z
" id="DejaVuSans-58"/>
      <path d="M 19.671875 64.796875 
L 19.671875 37.40625 
L 32.078125 37.40625 
Q 38.96875 37.40625 42.71875 40.96875 
Q 46.484375 44.53125 46.484375 51.125 
Q 46.484375 57.671875 42.71875 61.234375 
Q 38.96875 64.796875 32.078125 64.796875 
z
M 9.8125 72.90625 
L 32.078125 72.90625 
Q 44.34375 72.90625 50.609375 67.359375 
Q 56.890625 61.8125 56.890625 51.125 
Q 56.890625 40.328125 50.609375 34.8125 
Q 44.34375 29.296875 32.078125 29.296875 
L 19.671875 29.296875 
L 19.671875 0 
L 9.8125 0 
z
" id="DejaVuSans-80"/>
      <path d="M 4.890625 31.390625 
L 31.203125 31.390625 
L 31.203125 23.390625 
L 4.890625 23.390625 
z
" id="DejaVuSans-45"/>
      <path d="M 64.40625 67.28125 
L 64.40625 56.890625 
Q 59.421875 61.53125 53.78125 63.8125 
Q 48.140625 66.109375 41.796875 66.109375 
Q 29.296875 66.109375 22.65625 58.46875 
Q 16.015625 50.828125 16.015625 36.375 
Q 16.015625 21.96875 22.65625 14.328125 
Q 29.296875 6.6875 41.796875 6.6875 
Q 48.140625 6.6875 53.78125 8.984375 
Q 59.421875 11.28125 64.40625 15.921875 
L 64.40625 5.609375 
Q 59.234375 2.09375 53.4375 0.328125 
Q 47.65625 -1.421875 41.21875 -1.421875 
Q 24.65625 -1.421875 15.125 8.703125 
Q 5.609375 18.84375 5.609375 36.375 
Q 5.609375 53.953125 15.125 64.078125 
Q 24.65625 74.21875 41.21875 74.21875 
Q 47.75 74.21875 53.53125 72.484375 
Q 59.328125 70.75 64.40625 67.28125 
z
" id="DejaVuSans-67"/>
      <path d="M 30.609375 48.390625 
Q 23.390625 48.390625 19.1875 42.75 
Q 14.984375 37.109375 14.984375 27.296875 
Q 14.984375 17.484375 19.15625 11.84375 
Q 23.34375 6.203125 30.609375 6.203125 
Q 37.796875 6.203125 41.984375 11.859375 
Q 46.1875 17.53125 46.1875 27.296875 
Q 46.1875 37.015625 41.984375 42.703125 
Q 37.796875 48.390625 30.609375 48.390625 
z
M 30.609375 56 
Q 42.328125 56 49.015625 48.375 
Q 55.71875 40.765625 55.71875 27.296875 
Q 55.71875 13.875 49.015625 6.21875 
Q 42.328125 -1.421875 30.609375 -1.421875 
Q 18.84375 -1.421875 12.171875 6.21875 
Q 5.515625 13.875 5.515625 27.296875 
Q 5.515625 40.765625 12.171875 48.375 
Q 18.84375 56 30.609375 56 
z
" id="DejaVuSans-111"/>
      <path d="M 8.5 21.578125 
L 8.5 54.6875 
L 17.484375 54.6875 
L 17.484375 21.921875 
Q 17.484375 14.15625 20.5 10.265625 
Q 23.53125 6.390625 29.59375 6.390625 
Q 36.859375 6.390625 41.078125 11.03125 
Q 45.3125 15.671875 45.3125 23.6875 
L 45.3125 54.6875 
L 54.296875 54.6875 
L 54.296875 0 
L 45.3125 0 
L 45.3125 8.40625 
Q 42.046875 3.421875 37.71875 1 
Q 33.40625 -1.421875 27.6875 -1.421875 
Q 18.265625 -1.421875 13.375 4.4375 
Q 8.5 10.296875 8.5 21.578125 
z
M 31.109375 56 
z
" id="DejaVuSans-117"/>
     </defs>
     <use xlink:href="#DejaVuSans-85"/>
     <use x="73.193359" xlink:href="#DejaVuSans-110"/>
     <use x="136.572266" xlink:href="#DejaVuSans-108"/>
     <use x="164.355469" xlink:href="#DejaVuSans-101"/>
     <use x="225.878906" xlink:href="#DejaVuSans-97"/>
     <use x="287.158203" xlink:href="#DejaVuSans-114"/>
     <use x="326.521484" xlink:href="#DejaVuSans-110"/>
     <use x="389.900391" xlink:href="#DejaVuSans-101"/>
     <use x="451.423828" xlink:href="#DejaVuSans-100"/>
     <use x="514.900391" xlink:href="#DejaVuSans-32"/>
     <use x="546.6875" xlink:href="#DejaVuSans-84"/>
     <use x="593.021484" xlink:href="#DejaVuSans-114"/>
     <use x="634.134766" xlink:href="#DejaVuSans-105"/>
     <use x="661.917969" xlink:href="#DejaVuSans-97"/>
     <use x="723.197266" xlink:href="#DejaVuSans-108"/>
     <use x="750.980469" xlink:href="#DejaVuSans-115"/>
     <use x="803.080078" xlink:href="#DejaVuSans-58"/>
     <use x="836.771484" xlink:href="#DejaVuSans-32"/>
     <use x="868.558594" xlink:href="#DejaVuSans-80"/>
     <use x="927.111328" xlink:href="#DejaVuSans-114"/>
     <use x="965.974609" xlink:href="#DejaVuSans-101"/>
     <use x="1027.498047" xlink:href="#DejaVuSans-45"/>
     <use x="1063.582031" xlink:href="#DejaVuSans-67"/>
     <use x="1133.40625" xlink:href="#DejaVuSans-111"/>
     <use x="1194.587891" xlink:href="#DejaVuSans-108"/>
     <use x="1222.371094" xlink:href="#DejaVuSans-111"/>
     <use x="1283.552734" xlink:href="#DejaVuSans-114"/>
     <use x="1318.291016" xlink:href="#DejaVuSans-45"/>
     <use x="1354.375" xlink:href="#DejaVuSans-67"/>
     <use x="1424.199219" xlink:href="#DejaVuSans-117"/>
     <use x="1487.578125" xlink:href="#DejaVuSans-101"/>
    </g>
   </g>
  </g>
 </g>
 <defs>
  <clipPath id="p9a6bc35fc9">
   <rect height="217.44" width="334.8" x="54" y="34.56"/>
  </clipPath>
 </defs>
</svg>
